<svg xmlns="http://www.w3.org/2000/svg" width="24" height="24" viewBox="0 0 24 24" fill="none">
  <path d="M8.00084 11C7.80306 11 7.60972 11.0586 7.44527 11.1685C7.28082 11.2784 7.15265 11.4346 7.07696 11.6173C7.00128 11.8 6.98147 12.0011 7.02006 12.1951C7.05864 12.3891 7.15388 12.5673 7.29374 12.7071C7.43359 12.847 7.61177 12.9422 7.80575 12.9808C7.99973 13.0194 8.2008 12.9996 8.38353 12.9239C8.56625 12.8482 8.72243 12.72 8.83231 12.5556C8.94219 12.3911 9.00084 12.1978 9.00084 12C9.00084 11.7348 8.89549 11.4804 8.70795 11.2929C8.52041 11.1054 8.26606 11 8.00084 11ZM12.0008 11C11.8031 11 11.6097 11.0586 11.4453 11.1685C11.2808 11.2784 11.1527 11.4346 11.077 11.6173C11.0013 11.8 10.9815 12.0011 11.0201 12.1951C11.0586 12.3891 11.1539 12.5673 11.2937 12.7071C11.4336 12.847 11.6118 12.9422 11.8058 12.9808C11.9997 13.0194 12.2008 12.9996 12.3835 12.9239C12.5663 12.8482 12.7224 12.72 12.8323 12.5556C12.9422 12.3911 13.0008 12.1978 13.0008 12C13.0008 11.7348 12.8955 11.4804 12.7079 11.2929C12.5204 11.1054 12.2661 11 12.0008 11ZM16.0008 11C15.8031 11 15.6097 11.0586 15.4453 11.1685C15.2808 11.2784 15.1527 11.4346 15.077 11.6173C15.0013 11.8 14.9815 12.0011 15.0201 12.1951C15.0586 12.3891 15.1539 12.5673 15.2937 12.7071C15.4336 12.847 15.6118 12.9422 15.8058 12.9808C15.9997 13.0194 16.2008 12.9996 16.3835 12.9239C16.5663 12.8482 16.7224 12.72 16.8323 12.5556C16.9422 12.3911 17.0008 12.1978 17.0008 12C17.0008 11.7348 16.8955 11.4804 16.708 11.2929C16.5204 11.1054 16.2661 11 16.0008 11ZM12.0008 2C10.6876 2 9.38726 2.25866 8.17401 2.7612C6.96075 3.26375 5.85836 4.00035 4.92977 4.92893C3.05441 6.8043 2.00084 9.34784 2.00084 12C1.9921 14.3091 2.79164 16.5485 4.26084 18.33L2.26084 20.33C2.12208 20.4706 2.02809 20.6492 1.99071 20.8432C1.95334 21.0372 1.97426 21.2379 2.05084 21.42C2.1339 21.5999 2.26855 21.7511 2.43769 21.8544C2.60683 21.9577 2.80284 22.0083 3.00084 22H12.0008C14.653 22 17.1965 20.9464 19.0719 19.0711C20.9473 17.1957 22.0008 14.6522 22.0008 12C22.0008 9.34784 20.9473 6.8043 19.0719 4.92893C17.1965 3.05357 14.653 2 12.0008 2ZM12.0008 20H5.41084L6.34084 19.07C6.43533 18.9774 6.5105 18.8669 6.562 18.7451C6.61349 18.6232 6.64029 18.4923 6.64084 18.36C6.63709 18.0962 6.52926 17.8446 6.34084 17.66C5.03143 16.352 4.21602 14.6305 4.03353 12.7888C3.85105 10.947 4.31279 9.09901 5.34007 7.55952C6.36735 6.02004 7.89663 4.88436 9.66736 4.34597C11.4381 3.80759 13.3407 3.8998 15.0511 4.60691C16.7614 5.31402 18.1737 6.59227 19.0473 8.22389C19.9209 9.85551 20.2017 11.7395 19.842 13.555C19.4822 15.3705 18.5042 17.005 17.0744 18.1802C15.6446 19.3554 13.8516 19.9985 12.0008 20Z" fill="{color}"/>
</svg>