<svg xmlns="http://www.w3.org/2000/svg" width="20" height="19" viewBox="0 0 20 19" fill="none">
  <path d="M10.1302 0.600006C4.74404 0.600006 0.400391 4.07489 0.400391 8.29343C0.400391 11.0317 2.20735 13.4293 4.91778 14.7985L4.0004 18.2248C3.98311 18.2761 3.98045 18.3312 3.99272 18.384C4.005 18.4368 4.03172 18.4851 4.0699 18.5236C4.12558 18.5727 4.19721 18.5998 4.27145 18.6C4.333 18.5951 4.39139 18.5707 4.43824 18.5305L8.38575 15.8688C8.96845 15.9492 9.55583 15.9909 10.1441 15.9938C15.5232 15.9938 19.8738 12.5189 19.8738 8.29343C19.8738 4.06794 15.5093 0.600006 10.1302 0.600006Z" fill={color}/>
</svg>