<svg xmlns="http://www.w3.org/2000/svg" width="24" height="24" viewBox="0 0 24 24" fill="none">
  <path d="M19 2C19.5304 2 20.0391 2.21071 20.4142 2.58579C20.7893 2.96086 21 3.46957 21 4V16C21 16.5304 20.7893 17.0391 20.4142 17.4142C20.0391 17.7893 19.5304 18 19 18H17V20C17 20.5304 16.7893 21.0391 16.4142 21.4142C16.0391 21.7893 15.5304 22 15 22H5C4.46957 22 3.96086 21.7893 3.58579 21.4142C3.21071 21.0391 3 20.5304 3 20V8C3 7.46957 3.21071 6.96086 3.58579 6.58579C3.96086 6.21071 4.46957 6 5 6H7V4C7 3.46957 7.21071 2.96086 7.58579 2.58579C7.96086 2.21071 8.46957 2 9 2H19ZM10 15H8C7.74512 15.0003 7.49997 15.0979 7.31463 15.2728C7.1293 15.4478 7.01777 15.687 7.00283 15.9414C6.98789 16.1958 7.07067 16.4464 7.23426 16.6418C7.39786 16.8373 7.6299 16.9629 7.883 16.993L8 17H10C10.2549 16.9997 10.5 16.9021 10.6854 16.7272C10.8707 16.5522 10.9822 16.313 10.9972 16.0586C11.0121 15.8042 10.9293 15.5536 10.7657 15.3582C10.6021 15.1627 10.3701 15.0371 10.117 15.007L10 15ZM19 4H9V6H15C15.5304 6 16.0391 6.21071 16.4142 6.58579C16.7893 6.96086 17 7.46957 17 8V16H19V4ZM12 11H8C7.73478 11 7.48043 11.1054 7.29289 11.2929C7.10536 11.4804 7 11.7348 7 12C7 12.2652 7.10536 12.5196 7.29289 12.7071C7.48043 12.8946 7.73478 13 8 13H12C12.2652 13 12.5196 12.8946 12.7071 12.7071C12.8946 12.5196 13 12.2652 13 12C13 11.7348 12.8946 11.4804 12.7071 11.2929C12.5196 11.1054 12.2652 11 12 11Z" fill={color}/>
</svg>