<svg xmlns="http://www.w3.org/2000/svg" width="20" height="20" viewBox="0 0 20 20" fill="none">
  <g clip-path="url(#clip0_1437_2956)">
    <path d="M15.1165 1.9556L2.74212 6.08039C2.25452 6.24392 1.82921 6.55386 1.52418 6.96794C1.21916 7.38202 1.04927 7.8801 1.03767 8.39427C1.02607 8.90844 1.17333 9.41368 1.45938 9.84109C1.74542 10.2685 2.15632 10.5973 2.63606 10.7827L7.21458 12.5327C7.32317 12.5772 7.42182 12.6428 7.50479 12.7257C7.58775 12.8087 7.65335 12.9073 7.69776 13.0159L9.44785 17.5944C9.59718 17.9834 9.84133 18.3288 10.1581 18.5994C10.4749 18.8699 10.8543 19.057 11.2618 19.1437C11.6692 19.2303 12.0919 19.2138 12.4914 19.0955C12.8908 18.9773 13.2544 18.7611 13.5491 18.4665C13.8222 18.1879 14.0296 17.8517 14.156 17.4825L18.2808 5.10812C18.4262 4.66829 18.4466 4.19671 18.3396 3.74599C18.2326 3.29527 18.0025 2.88314 17.6749 2.55558C17.3474 2.22801 16.9352 1.9979 16.4845 1.89092C16.0338 1.78394 15.5622 1.80429 15.1224 1.94971L15.1165 1.9556ZM16.6957 4.58368L12.5709 16.9581C12.5146 17.1184 12.4106 17.2577 12.2729 17.3572C12.1352 17.4568 11.9703 17.5119 11.8004 17.5151C11.6305 17.5183 11.4636 17.4695 11.3223 17.3752C11.1809 17.2809 11.0717 17.1456 11.0094 16.9875L9.2534 12.4149C9.22938 12.3544 9.20183 12.2954 9.1709 12.2381L13.2309 8.17814C13.3872 8.02186 13.475 7.8099 13.475 7.58889C13.475 7.36787 13.3872 7.15591 13.2309 6.99963C13.0746 6.84335 12.8626 6.75556 12.6416 6.75556C12.4206 6.75556 12.2086 6.84335 12.0524 6.99963L7.99239 11.0596C7.93513 11.0287 7.8761 11.0011 7.81562 10.9771L3.24299 9.22113C3.08489 9.1588 2.94962 9.04963 2.85532 8.90825C2.76102 8.76687 2.7122 8.60004 2.71541 8.43013C2.71861 8.26022 2.77369 8.09535 2.87326 7.95762C2.97282 7.8199 3.11211 7.71591 3.27245 7.6596L15.6468 3.53481C15.7928 3.48774 15.9489 3.48186 16.098 3.51783C16.2471 3.5538 16.3834 3.63022 16.4918 3.73867C16.6003 3.84712 16.6767 3.9834 16.7127 4.13249C16.7486 4.28158 16.7428 4.43771 16.6957 4.58368Z" fill="white"/>
  </g>
  <defs>
    <clipPath id="clip0_1437_2956">
      <rect width="20" height="20" fill="white"/>
    </clipPath>
  </defs>
</svg>