<svg xmlns="http://www.w3.org/2000/svg" width="16" height="16" viewBox="0 0 16 16" fill="none">
  <g clip-path="url(#clip0_2240_8507)">
    <path d="M15.5554 7.55556C15.5554 11.7284 12.1728 15.1111 7.99989 15.1111C3.827 15.1111 0.444336 11.7284 0.444336 7.55556C0.444336 3.38267 3.827 0 7.99989 0C12.1728 0 15.5554 3.38267 15.5554 7.55556Z" fill="#FFCB4C"/>
    <path d="M7.91666 11.1356C8.91372 11.1356 9.722 10.7515 9.722 10.2778C9.722 9.80404 8.91372 9.42 7.91666 9.42C6.9196 9.42 6.11133 9.80404 6.11133 10.2778C6.11133 10.7515 6.9196 11.1356 7.91666 11.1356Z" fill="#65471B"/>
    <path d="M11.2668 11.5471L11.2521 11.5382C10.8792 11.3093 10.3868 11.4271 10.1579 11.8L10.0908 11.9089C9.84986 11.6591 9.5352 11.476 9.17164 11.4018L8.54986 11.2747L9.1152 8.50845C9.20275 8.07956 8.92364 7.65734 8.4952 7.56978L8.47831 7.56623C8.04942 7.47867 7.6272 7.75778 7.53964 8.18623L6.79609 11.8231L6.78942 11.856L6.65031 12.5364L6.64986 12.5409L6.14853 15C6.05075 15.4791 6.26853 16 6.99075 16H8.44453C9.69075 16 10.0601 15.5511 10.3103 14.6253L11.5285 12.6418C11.757 12.2689 11.6396 11.7764 11.2668 11.5471Z" fill="#F19020"/>
    <path d="M9.95964 13.6636C9.95075 13.6636 9.94097 13.6627 9.9312 13.6609C9.84942 13.6458 9.79564 13.5667 9.81164 13.4844C9.83786 13.3458 9.81075 13.2236 9.72853 13.1116C9.46631 12.7524 8.7112 12.5893 8.44231 12.5569C8.35964 12.5471 8.30053 12.4716 8.31075 12.3893C8.32053 12.3067 8.39253 12.2467 8.47831 12.2578C8.5232 12.2627 9.57786 12.3956 9.97164 12.9338C10.1041 13.1147 10.1499 13.3196 10.1076 13.5418C10.0939 13.6133 10.0308 13.6636 9.95964 13.6636ZM8.5112 15.7658C8.39875 15.7658 8.27564 15.752 8.14097 15.7204C7.86986 15.6564 7.67875 15.4987 7.61653 15.2871C7.56408 15.1089 7.61208 14.9204 7.74497 14.7827C7.91742 14.604 8.19075 14.5453 8.49831 14.6236C8.57875 14.644 8.62764 14.7262 8.6072 14.8071C8.58675 14.8871 8.50542 14.9364 8.42364 14.916C8.22586 14.8653 8.05697 14.8938 7.96231 14.992C7.90542 15.0507 7.88453 15.1293 7.90586 15.2022C7.93653 15.3071 8.04764 15.3893 8.21031 15.4271C8.73475 15.5502 9.02497 15.3444 9.17653 15.1493C9.40231 14.8591 9.42897 14.4658 9.34853 14.3116C9.16097 13.9507 8.43786 13.8707 8.1752 13.8702C8.09208 13.8702 8.02453 13.8027 8.02453 13.7196C8.02453 13.6364 8.09208 13.5689 8.1752 13.5689C8.22097 13.5689 9.30497 13.5756 9.61608 14.1729C9.75164 14.4329 9.71297 14.9511 9.41431 15.3347C9.27742 15.5098 8.9952 15.7658 8.5112 15.7658ZM6.32097 5.87644C6.32097 6.49466 5.94497 6.996 5.48142 6.996C5.01786 6.996 4.64186 6.49511 4.64186 5.87644C4.64186 5.25822 5.01742 4.75689 5.48142 4.75689C5.94497 4.75733 6.32097 5.25822 6.32097 5.87644ZM13.2828 4.56489C13.3814 4.56489 13.4805 4.53422 13.5659 4.47022C13.7748 4.31377 13.8165 4.01777 13.6601 3.80933C12.1196 1.75511 10.0636 1.73155 9.97697 1.73155C9.71608 1.73155 9.50497 1.94311 9.50497 2.204C9.50497 2.464 9.7152 2.67511 9.9752 2.676C10.049 2.67689 11.6605 2.71644 12.905 4.376C12.9974 4.49955 13.1392 4.56489 13.2828 4.56489ZM9.6792 5.87644C9.6792 6.49466 10.0552 6.996 10.5188 6.996C10.9823 6.996 11.3583 6.49511 11.3583 5.87644C11.3583 5.25822 10.9828 4.75689 10.5188 4.75689C10.0548 4.75733 9.6792 5.25822 9.6792 5.87644ZM2.71742 4.56489C2.61875 4.56489 2.51964 4.53422 2.43431 4.47022C2.22586 4.31377 2.18364 4.01777 2.34008 3.80933C3.88053 1.75511 5.93653 1.73155 6.0232 1.73155C6.28408 1.73155 6.4952 1.94311 6.4952 2.204C6.4952 2.464 6.28497 2.67511 6.02497 2.676C5.9512 2.67689 4.33964 2.71644 3.0952 4.376C3.00275 4.49955 2.86097 4.56489 2.71742 4.56489Z" fill="#65471B"/>
  </g>
  <defs>
    <clipPath id="clip0_2240_8507">
      <rect width="16" height="16" fill="white"/>
    </clipPath>
  </defs>
</svg>