<svg xmlns="http://www.w3.org/2000/svg" width="20" height="20" viewBox="0 0 16 16" fill="#667085">
  <path d="M11.3326 7.33317H3.60595L5.13928 5.8065C5.20144 5.74434 5.25075 5.67055 5.28439 5.58934C5.31803 5.50812 5.33534 5.42108 5.33534 5.33317C5.33534 5.24526 5.31803 5.15822 5.28439 5.077C5.25075 4.99579 5.20144 4.922 5.13928 4.85984C5.07712 4.79768 5.00333 4.74837 4.92211 4.71473C4.8409 4.68109 4.75385 4.66378 4.66595 4.66378C4.57804 4.66378 4.491 4.68109 4.40978 4.71473C4.32857 4.74837 4.25477 4.79768 4.19261 4.85984L1.52595 7.5265C1.46525 7.58991 1.41768 7.66467 1.38595 7.7465C1.31927 7.90881 1.31927 8.09086 1.38595 8.25317C1.41768 8.335 1.46525 8.40977 1.52595 8.47317L4.19261 11.1398C4.25459 11.2023 4.32832 11.2519 4.40956 11.2858C4.4908 11.3196 4.57794 11.337 4.66595 11.337C4.75395 11.337 4.84109 11.3196 4.92233 11.2858C5.00357 11.2519 5.0773 11.2023 5.13928 11.1398C5.20177 11.0779 5.25136 11.0041 5.28521 10.9229C5.31905 10.8416 5.33648 10.7545 5.33648 10.6665C5.33648 10.5785 5.31905 10.4914 5.28521 10.4101C5.25136 10.3289 5.20177 10.2551 5.13928 10.1932L3.60595 8.6665H11.3326C11.5094 8.6665 11.679 8.59627 11.804 8.47124C11.929 8.34622 11.9993 8.17665 11.9993 7.99984C11.9993 7.82303 11.929 7.65346 11.804 7.52843C11.679 7.40341 11.5094 7.33317 11.3326 7.33317ZM13.9993 2.6665C13.8225 2.6665 13.6529 2.73674 13.5279 2.86177C13.4029 2.98679 13.3326 3.15636 13.3326 3.33317V12.6665C13.3326 12.8433 13.4029 13.0129 13.5279 13.1379C13.6529 13.2629 13.8225 13.3332 13.9993 13.3332C14.1761 13.3332 14.3457 13.2629 14.4707 13.1379C14.5957 13.0129 14.6659 12.8433 14.6659 12.6665V3.33317C14.6659 3.15636 14.5957 2.98679 14.4707 2.86177C14.3457 2.73674 14.1761 2.6665 13.9993 2.6665Z" fill="{color}"/>
</svg>