<svg width="142" height="142" viewBox="0 0 142 142" fill="none" xmlns="http://www.w3.org/2000/svg">
<path d="M21.5938 118.156C21.5859 119.672 22.7344 121.156 24.9531 121.75L24.1719 123.078C22.5391 122.641 21.375 121.703 20.7422 120.5C20.1172 121.828 18.9297 122.859 17.2656 123.344L16.4375 121.969C18.6641 121.367 19.8594 119.812 19.8594 118.156V118.109H16.9062V116.734H19.8594V115.203H21.6094V116.734H24.5469V118.109H21.5938V118.156ZM17.8281 128C20.25 127.672 21.8203 126.609 22.1562 125.406H18.4062V124.016H27.8594V125.406H24.125C24.4609 126.578 26.0391 127.68 28.4531 128.016L27.8281 129.344C25.6172 129.031 23.9453 128.086 23.1328 126.805C22.3203 128.078 20.6562 129 18.4688 129.312L17.8281 128ZM25.9219 123.359V115.266H27.6562V118.547H29.625V119.984H27.6562V123.359H25.9219ZM34.3125 116.047C36.4844 116.047 38.1094 117.43 38.125 119.422C38.1094 121.414 36.4844 122.812 34.3125 122.812C32.1328 122.812 30.4922 121.414 30.5 119.422C30.4922 117.43 32.1328 116.047 34.3125 116.047ZM30.7969 127.938C32.6172 127.281 33.5234 125.82 33.5312 124.422V123.812H35.2031V124.422C35.1875 125.617 35.7266 126.844 36.9375 127.648C38.1641 126.797 38.7188 125.492 38.7344 124.422V123.812H40.4219V124.422C40.4297 125.922 41.2969 127.312 43.1562 127.938L42.2969 129.219C40.9375 128.727 40.0312 127.812 39.5469 126.68C39.0938 127.805 38.2656 128.82 36.9688 129.344C35.6406 128.836 34.8047 127.867 34.3516 126.734C33.8516 127.828 32.9531 128.734 31.6562 129.219L30.7969 127.938ZM32.2031 119.422C32.1953 120.609 33.1016 121.344 34.3125 121.344C35.5156 121.344 36.4141 120.609 36.4219 119.422C36.4141 118.273 35.5156 117.5 34.3125 117.5C33.0938 117.5 32.1953 118.273 32.2031 119.422ZM39.75 123.203V115.266H41.4844V118.438H43.4531V119.844H41.4844V123.203H39.75ZM55.2344 115.266V120.625H57.4062V122.047H55.2344V129.406H53.5V115.266H55.2344ZM44.75 125.953V116.609H51.3594V118.016H46.4844V124.5C48.6797 124.492 50.4219 124.383 52.3594 124.047L52.5625 125.516C50.3672 125.891 48.4688 125.953 45.9219 125.953H44.75ZM73.5625 115.281V125.484H71.8125V115.281H73.5625ZM62.0469 119.734C62.0469 117.68 63.7109 116.211 65.8594 116.203C68.0078 116.211 69.6641 117.68 69.6562 119.734C69.6641 121.82 68.0078 123.281 65.8594 123.281C63.7109 123.281 62.0469 121.82 62.0469 119.734ZM63.75 119.734C63.7422 120.984 64.6484 121.766 65.8594 121.766C67.0391 121.766 67.9531 120.984 67.9531 119.734C67.9531 118.516 67.0391 117.719 65.8594 117.719C64.6484 117.719 63.7422 118.516 63.75 119.734ZM64.2188 129.109V124.453H65.9688V127.703H73.9531V129.109H64.2188ZM80.0312 117.891C80.0391 119.414 80.9297 120.953 82.7812 121.656L81.8594 122.984C80.6016 122.508 79.7266 121.602 79.2188 120.508C78.7031 121.766 77.7812 122.844 76.4375 123.406L75.5 122.078C77.4453 121.219 78.3516 119.453 78.3594 117.891V116.141H80.0312V117.891ZM78.0938 126.766C78.0859 125.141 79.9609 124.172 82.9375 124.172C85.8906 124.172 87.7734 125.141 87.7812 126.766C87.7734 128.398 85.8906 129.375 82.9375 129.375C79.9609 129.375 78.0859 128.398 78.0938 126.766ZM79.8281 126.766C79.8203 127.602 80.9766 128.055 82.9375 128.047C84.8672 128.055 86.0234 127.602 86.0312 126.766C86.0234 125.938 84.8672 125.484 82.9375 125.484C80.9766 125.484 79.8203 125.938 79.8281 126.766ZM83.0156 123.5V115.547H84.6406V118.844H86.0469V115.281H87.7031V123.938H86.0469V120.266H84.6406V123.5H83.0156ZM102.359 126.266V127.688H89.4531V126.266H95.0312V123.016H96.7656V126.266H102.359ZM90.0156 122.234C92.8281 121.766 94.9219 119.859 94.9688 117.828H90.5312V116.406H101.25V117.828H96.7969C96.8516 119.859 98.9453 121.719 101.844 122.156L101.156 123.531C98.7734 123.102 96.8125 121.836 95.8984 120.07C94.9922 121.859 93.0547 123.164 90.7031 123.609L90.0156 122.234ZM114.422 115.266V118.75H116.391V120.188H114.422V123.516H112.688V115.266H114.422ZM103.297 117.969V116.578H106.625V115.156H108.359V116.578H111.672V117.969H103.297ZM104.016 120.938C104.016 119.438 105.422 118.453 107.484 118.453C109.523 118.453 110.93 119.438 110.938 120.938C110.93 122.438 109.523 123.43 107.484 123.422C105.422 123.43 104.016 122.438 104.016 120.938ZM105.297 129.219V124.078H107.016V125.297H112.688V124.078H114.422V129.219H105.297ZM105.703 120.938C105.695 121.703 106.414 122.141 107.484 122.141C108.555 122.141 109.281 121.703 109.281 120.938C109.281 120.195 108.555 119.734 107.484 119.734C106.414 119.734 105.695 120.195 105.703 120.938ZM107.016 127.844H112.688V126.641H107.016V127.844ZM117.781 124.844C117.734 122.836 118.734 121.844 120.094 121.844C120.82 121.844 121.375 122.109 122.188 122.812C122.648 123.219 122.891 123.414 123.281 123.422C123.836 123.414 124.234 123 124.219 122.109H125.812C125.867 124.117 124.836 125.117 123.484 125.109C122.75 125.117 122.188 124.82 121.406 124.125C120.906 123.711 120.695 123.531 120.312 123.531C119.766 123.531 119.359 123.906 119.375 124.844H117.781Z" fill="#E4E7EC"/>
<g clip-path="url(#clip0_1864_7289)">
<path d="M119.02 49.0005C119.02 75.5258 97.5258 97.0205 71.0005 97.0205C44.4751 97.0205 22.9805 75.5258 22.9805 49.0005C22.9805 22.4751 44.4751 0.980469 71.0005 0.980469C97.5258 0.980469 119.02 22.4751 119.02 49.0005Z" fill="#E4E7EC"/>
<g clip-path="url(#clip1_1864_7289)">
<path d="M71.1171 27.3096C65.5318 27.3096 60.9803 31.8515 60.9803 37.4195V42.463H60.7973C58.1304 42.463 55.9805 44.6063 55.9805 47.2649V63.0431C55.9805 65.7017 58.1304 67.8449 60.7973 67.8449H81.4415C84.1083 67.8449 86.2583 65.7017 86.2583 63.0431V47.2649C86.2583 44.6063 84.1083 42.463 81.4415 42.463H81.2585V37.4195C81.2585 31.8515 76.7024 27.3096 71.1171 27.3096ZM71.1171 31.0079C74.7126 31.0079 77.5487 33.8352 77.5487 37.4195V42.463H64.6855V37.4195C64.6855 33.8352 67.5216 31.0079 71.1171 31.0079ZM71.1171 48.5828C73.0017 48.5828 74.5296 50.1059 74.5296 51.9847C74.5296 53.3755 73.6787 54.625 72.3842 55.1403V60.1474C72.3842 60.8451 71.8215 61.4105 71.1171 61.4105C70.4172 61.4105 69.85 60.8496 69.85 60.1474V55.1403C68.5554 54.625 67.7046 53.3755 67.7046 51.9847C67.7046 51.0817 68.066 50.2153 68.7064 49.5769C69.3422 48.943 70.2114 48.5828 71.1171 48.5828Z" fill="#F9FAFB"/>
</g>
</g>
<defs>
<clipPath id="clip0_1864_7289">
<rect width="98" height="98" fill="white" transform="translate(22)"/>
</clipPath>
<clipPath id="clip1_1864_7289">
<rect width="30.2733" height="40.5354" fill="white" transform="translate(55.9785 27.3096)"/>
</clipPath>
</defs>
</svg>
