<svg width="142" height="142" viewBox="0 0 142 142" fill="none" xmlns="http://www.w3.org/2000/svg">
<path d="M40.5469 118.656C40.5312 121.18 41.7969 123.727 43.9844 124.781L42.9219 126.172C41.3906 125.398 40.2891 123.906 39.6875 122.109C39.0703 124.031 37.9141 125.625 36.2969 126.438L35.2344 125.047C37.5078 123.969 38.8047 121.266 38.8125 118.656V116.406H40.5469V118.656ZM44.8281 129.391V115.266H46.5625V120.797H48.7344V122.281H46.5625V129.391H44.8281ZM61.0625 115.266V122.469H59.3438V115.266H61.0625ZM49.3125 121.094C51.6016 120.367 52.8047 118.555 52.7969 116.703V115.609H54.5938V116.703C54.5859 118.5 55.7812 120.18 58.0156 120.859L57.1719 122.203C55.5312 121.695 54.3594 120.648 53.7188 119.305C53.0781 120.766 51.875 121.914 50.1875 122.453L49.3125 121.094ZM51.7188 124.469V123.125H61.0938V126.797H53.4531V127.891H61.5156V129.266H51.75V125.5H59.3594V124.469H51.7188ZM68.1562 117.516C68.1562 119.289 69.3047 120.969 71.4844 121.656L70.5469 123.016C69.0234 122.5 67.9297 121.469 67.3125 120.156C66.7031 121.656 65.5625 122.836 63.9375 123.406L63 122.047C65.2734 121.258 66.4141 119.375 66.4219 117.359V116.016H68.1562V117.516ZM64.9219 126.688C64.9219 125.016 66.7578 124.023 69.7031 124.031C72.625 124.023 74.4297 125.016 74.4375 126.688C74.4297 128.398 72.625 129.375 69.7031 129.375C66.7578 129.375 64.9219 128.398 64.9219 126.688ZM66.6562 126.688C66.6562 127.562 67.7656 128 69.7031 128C71.6328 128 72.7188 127.562 72.7188 126.688C72.7188 125.859 71.6328 125.391 69.7031 125.391C67.7656 125.391 66.6562 125.859 66.6562 126.688ZM72.5625 123.719V115.266H74.2969V118.703H76.2656V120.141H74.2969V123.719H72.5625ZM91.9375 115.266V118.734H93.8906V120.156H91.9375V123.516H90.1875V115.266H91.9375ZM81.3281 122.625V116.266H87.6562V117.672H83.0469V121.219C85.75 121.211 87.2578 121.125 88.9219 120.781L89.0938 122.172C87.2656 122.562 85.6016 122.625 82.4688 122.625H81.3281ZM82.5469 126.562C82.5469 124.812 84.4062 123.781 87.3281 123.781C90.2266 123.781 92.0547 124.812 92.0625 126.562C92.0547 128.344 90.2266 129.375 87.3281 129.375C84.4062 129.375 82.5469 128.344 82.5469 126.562ZM84.2656 126.562C84.2578 127.477 85.3906 127.984 87.3281 127.984C89.2266 127.984 90.3672 127.477 90.375 126.562C90.3672 125.664 89.2266 125.164 87.3281 125.172C85.3906 125.164 84.2578 125.664 84.2656 126.562ZM99.6875 118.281C99.6797 119.844 100.891 121.305 103.109 121.906L102.312 123.25C100.664 122.805 99.4844 121.859 98.8359 120.641C98.2188 121.969 97.0391 123.016 95.3594 123.516L94.5312 122.156C96.7578 121.539 97.9531 119.953 97.9531 118.281V118.141H95V116.766H97.9531V115.203H99.7031V116.766H102.641V118.141H99.6875V118.281ZM97.0469 129.219V124.219H106.438V129.219H97.0469ZM98.7812 127.812H104.734V125.609H98.7812V127.812ZM102.266 120.469V119.062H104.703V115.266H106.438V123.578H104.703V120.469H102.266Z" fill="#E4E7EC"/>
<g clip-path="url(#clip0_1545_9505)">
<path d="M119.02 49.0005C119.02 75.5258 97.5258 97.0205 71.0005 97.0205C44.4751 97.0205 22.9805 75.5258 22.9805 49.0005C22.9805 22.4751 44.4751 0.980469 71.0005 0.980469C97.5258 0.980469 119.02 22.4751 119.02 49.0005Z" fill="#E4E7EC"/>
<g clip-path="url(#clip1_1545_9505)">
<path d="M71.1171 27.3096C65.5318 27.3096 60.9803 31.8515 60.9803 37.4195V42.463H60.7973C58.1304 42.463 55.9805 44.6063 55.9805 47.2649V63.0431C55.9805 65.7017 58.1304 67.8449 60.7973 67.8449H81.4415C84.1083 67.8449 86.2583 65.7017 86.2583 63.0431V47.2649C86.2583 44.6063 84.1083 42.463 81.4415 42.463H81.2585V37.4195C81.2585 31.8515 76.7024 27.3096 71.1171 27.3096ZM71.1171 31.0079C74.7126 31.0079 77.5487 33.8352 77.5487 37.4195V42.463H64.6855V37.4195C64.6855 33.8352 67.5216 31.0079 71.1171 31.0079ZM71.1171 48.5828C73.0017 48.5828 74.5296 50.1059 74.5296 51.9847C74.5296 53.3755 73.6787 54.625 72.3842 55.1403V60.1474C72.3842 60.8451 71.8215 61.4105 71.1171 61.4105C70.4172 61.4105 69.85 60.8496 69.85 60.1474V55.1403C68.5554 54.625 67.7046 53.3755 67.7046 51.9847C67.7046 51.0817 68.066 50.2153 68.7064 49.5769C69.3422 48.943 70.2114 48.5828 71.1171 48.5828Z" fill="#F9FAFB"/>
</g>
</g>
<defs>
<clipPath id="clip0_1545_9505">
<rect width="98" height="98" fill="white" transform="translate(22)"/>
</clipPath>
<clipPath id="clip1_1545_9505">
<rect width="30.2733" height="40.5354" fill="white" transform="translate(55.9785 27.3096)"/>
</clipPath>
</defs>
</svg>
