<svg width="142" height="142" viewBox="0 0 142 142" fill="none" xmlns="http://www.w3.org/2000/svg">
<path d="M38.4375 115.266V129.406H36.6875V115.266H38.4375ZM27.1406 121.281C27.1328 118.234 28.6875 116.297 30.8281 116.297C32.9453 116.297 34.5078 118.234 34.5156 121.281C34.5078 124.352 32.9453 126.281 30.8281 126.281C28.6875 126.281 27.1328 124.352 27.1406 121.281ZM28.8125 121.281C28.8125 123.453 29.6328 124.711 30.8281 124.719C32.0156 124.711 32.8281 123.453 32.8281 121.281C32.8281 119.125 32.0156 117.859 30.8281 117.859C29.6328 117.859 28.8125 119.125 28.8125 121.281ZM55.6094 116.125V117.391C55.6016 118.711 55.6016 120.156 55.2344 122.156H57.1875V123.562H51.5781V129.406H49.8281V123.562H44.3125V122.156H53.4688C53.8594 120.234 53.875 118.789 53.875 117.531H45.8281V116.125H55.6094ZM69.9688 124.281V129.391H68.2344V125.656H60.3438V124.281H69.9688ZM58.3281 119.469C58.3281 117.469 59.9297 116.031 62.0625 116.047C63.2266 116.039 64.2422 116.477 64.9062 117.219H68.2344V115.266H69.9688V123.609H68.2344V121.734H64.9219C64.25 122.484 63.2344 122.938 62.0625 122.938C59.9297 122.938 58.3281 121.5 58.3281 119.469ZM59.9844 119.469C59.9844 120.695 60.8516 121.461 62.0625 121.469C63.2188 121.461 64.1016 120.695 64.1094 119.469C64.1016 118.289 63.2188 117.508 62.0625 117.516C60.8516 117.508 59.9844 118.289 59.9844 119.469ZM65.6562 120.328H68.2344V118.641H65.6641C65.7266 118.906 65.7656 119.18 65.7656 119.469C65.7656 119.766 65.7266 120.055 65.6562 120.328ZM81.8125 116.438V117.844H78.0312V121.5C79.6797 121.492 80.9219 121.414 82.3125 121.141L82.4688 122.547C80.7969 122.852 79.375 122.922 77.2812 122.922H76.3125V116.438H81.8125ZM77.4844 127.984C80.3125 127.578 82.125 125.992 82.1406 124.359V123.891H83.875V124.359C83.8672 125.992 85.6797 127.578 88.5469 127.984L87.8125 129.328C85.6016 128.961 83.875 127.922 83.0078 126.508C82.1406 127.922 80.3984 128.961 78.2031 129.328L77.4844 127.984ZM83.0938 123.312V115.516H84.7188V118.766H86.1875V115.266H87.8438V124.578H86.1875V120.188H84.7188V123.312H83.0938ZM100.922 115.859V116.797C100.93 117.719 100.93 118.891 100.633 120.359H102.5V121.734H89.5938V120.359H98.8828C99.1406 119.07 99.1797 118.07 99.1875 117.234H91.1875V115.859H100.922ZM91.0781 124.219V122.859H100.906V126.688H92.8281V127.891H101.266V129.25H91.0938V125.359H99.1719V124.219H91.0781ZM114.609 115.281V119H116.516V120.438H114.609V124.188H112.875V115.281H114.609ZM103.391 122.125C104.414 122.125 105.602 122.117 106.844 122.086V121C105.219 120.75 104.148 119.758 104.156 118.391C104.148 116.805 105.594 115.727 107.688 115.719C109.758 115.727 111.219 116.805 111.234 118.391C111.219 119.742 110.172 120.719 108.594 120.992V122.016C109.773 121.953 110.953 121.852 112.047 121.703L112.203 122.922C109.258 123.43 105.992 123.477 103.578 123.484L103.391 122.125ZM105.172 126.875C105.164 125.273 106.977 124.352 109.938 124.359C112.875 124.352 114.68 125.273 114.688 126.875C114.68 128.43 112.875 129.375 109.938 129.375C106.977 129.375 105.164 128.43 105.172 126.875ZM105.781 118.391C105.766 119.258 106.531 119.789 107.688 119.797C108.82 119.789 109.586 119.258 109.594 118.391C109.586 117.531 108.82 117.031 107.688 117.031C106.531 117.031 105.766 117.531 105.781 118.391ZM106.875 126.875C106.867 127.625 107.977 128.031 109.938 128.031C111.844 128.031 112.953 127.625 112.969 126.875C112.953 126.086 111.844 125.68 109.938 125.672C107.977 125.68 106.867 126.086 106.875 126.875Z" fill="#E4E7EC"/>
<g clip-path="url(#clip0_1864_7327)">
<path d="M119.02 49.0005C119.02 75.5258 97.5258 97.0205 71.0005 97.0205C44.4751 97.0205 22.9805 75.5258 22.9805 49.0005C22.9805 22.4751 44.4751 0.980469 71.0005 0.980469C97.5258 0.980469 119.02 22.4751 119.02 49.0005Z" fill="#E4E7EC"/>
<g clip-path="url(#clip1_1864_7327)">
<path d="M71.1171 27.3096C65.5318 27.3096 60.9803 31.8515 60.9803 37.4195V42.463H60.7973C58.1304 42.463 55.9805 44.6063 55.9805 47.2649V63.0431C55.9805 65.7017 58.1304 67.8449 60.7973 67.8449H81.4415C84.1083 67.8449 86.2583 65.7017 86.2583 63.0431V47.2649C86.2583 44.6063 84.1083 42.463 81.4415 42.463H81.2585V37.4195C81.2585 31.8515 76.7024 27.3096 71.1171 27.3096ZM71.1171 31.0079C74.7126 31.0079 77.5487 33.8352 77.5487 37.4195V42.463H64.6855V37.4195C64.6855 33.8352 67.5216 31.0079 71.1171 31.0079ZM71.1171 48.5828C73.0017 48.5828 74.5296 50.1059 74.5296 51.9847C74.5296 53.3755 73.6787 54.625 72.3842 55.1403V60.1474C72.3842 60.8451 71.8215 61.4105 71.1171 61.4105C70.4172 61.4105 69.85 60.8496 69.85 60.1474V55.1403C68.5554 54.625 67.7046 53.3755 67.7046 51.9847C67.7046 51.0817 68.066 50.2153 68.7064 49.5769C69.3422 48.943 70.2114 48.5828 71.1171 48.5828Z" fill="#F9FAFB"/>
</g>
</g>
<defs>
<clipPath id="clip0_1864_7327">
<rect width="98" height="98" fill="white" transform="translate(22)"/>
</clipPath>
<clipPath id="clip1_1864_7327">
<rect width="30.2733" height="40.5354" fill="white" transform="translate(55.9785 27.3096)"/>
</clipPath>
</defs>
</svg>
