<svg width="142" height="142" viewBox="0 0 142 142" fill="none" xmlns="http://www.w3.org/2000/svg">
<path d="M47.3281 115.266V122.359H45.5938V119.609H43.0469C42.7031 121.148 41.2656 122.164 39.4219 122.172C37.2812 122.164 35.6875 120.828 35.6875 118.906C35.6875 117.023 37.2812 115.703 39.4219 115.703C41.2578 115.703 42.6875 116.703 43.0391 118.203H45.5938V115.266H47.3281ZM37.3438 118.906C37.3438 120.039 38.2109 120.75 39.4219 120.75C40.5938 120.75 41.4609 120.039 41.4688 118.906C41.4609 117.828 40.5938 117.109 39.4219 117.109C38.2109 117.109 37.3438 117.828 37.3438 118.906ZM38.0156 124.391V123.047H47.3281V126.703H39.7656V127.844H47.7812V129.219H38.0312V125.422H45.5938V124.391H38.0156ZM61.0938 115.266V129.406H59.375V115.266H61.0938ZM50.0938 117.906V116.5H56.75V121.797H51.8906V124.641C54.1172 124.625 56.0312 124.508 58.2344 124.141L58.3906 125.562C55.9922 125.977 53.8828 126.07 51.3438 126.062H50.1094V120.422H54.9844V117.906H50.0938ZM67.0156 116.297C68.9219 116.297 70.3359 117.891 70.5859 120.469H73.2812V115.266H75V129.406H73.2812V121.875H70.6016C70.4141 124.602 68.9766 126.281 67.0156 126.281C64.8906 126.281 63.3828 124.352 63.3906 121.281C63.3828 118.234 64.8906 116.297 67.0156 116.297ZM65.0625 121.281C65.0547 123.453 65.8516 124.711 67.0156 124.719C68.1875 124.711 68.9766 123.453 68.9844 121.281C68.9766 119.125 68.1875 117.859 67.0156 117.859C65.8516 117.859 65.0547 119.125 65.0625 121.281ZM92.6094 124.297V129.406H90.875V125.688H82.9844V124.297H92.6094ZM81.3906 122.781V116.297H88.0312V118.703H90.875V115.266H92.6094V123.609H90.875V120.109H88.0312V122.781H81.3906ZM83.125 121.406H86.3125V117.703H83.125V121.406ZM106.453 115.266V129.406H104.734V121.781H102.078V120.375H104.734V115.266H106.453ZM95.25 126.156V116.484H101.859V117.906H97V120.438H101.297V121.812H97V124.719C99.1484 124.711 100.758 124.633 102.578 124.344L102.75 125.75C100.695 126.062 98.8828 126.141 96.3594 126.156H95.25Z" fill="#E4E7EC"/>
<g clip-path="url(#clip0_1545_9527)">
<path d="M119.02 49.0005C119.02 75.5258 97.5258 97.0205 71.0005 97.0205C44.4751 97.0205 22.9805 75.5258 22.9805 49.0005C22.9805 22.4751 44.4751 0.980469 71.0005 0.980469C97.5258 0.980469 119.02 22.4751 119.02 49.0005Z" fill="#E4E7EC"/>
<g clip-path="url(#clip1_1545_9527)">
<path d="M71.1171 27.3096C65.5318 27.3096 60.9803 31.8515 60.9803 37.4195V42.463H60.7973C58.1304 42.463 55.9805 44.6063 55.9805 47.2649V63.0431C55.9805 65.7017 58.1304 67.8449 60.7973 67.8449H81.4415C84.1083 67.8449 86.2583 65.7017 86.2583 63.0431V47.2649C86.2583 44.6063 84.1083 42.463 81.4415 42.463H81.2585V37.4195C81.2585 31.8515 76.7024 27.3096 71.1171 27.3096ZM71.1171 31.0079C74.7126 31.0079 77.5487 33.8352 77.5487 37.4195V42.463H64.6855V37.4195C64.6855 33.8352 67.5216 31.0079 71.1171 31.0079ZM71.1171 48.5828C73.0017 48.5828 74.5296 50.1059 74.5296 51.9847C74.5296 53.3755 73.6787 54.625 72.3842 55.1403V60.1474C72.3842 60.8451 71.8215 61.4105 71.1171 61.4105C70.4172 61.4105 69.85 60.8496 69.85 60.1474V55.1403C68.5554 54.625 67.7046 53.3755 67.7046 51.9847C67.7046 51.0817 68.066 50.2153 68.7064 49.5769C69.3422 48.943 70.2114 48.5828 71.1171 48.5828Z" fill="#F9FAFB"/>
</g>
</g>
<defs>
<clipPath id="clip0_1545_9527">
<rect width="98" height="98" fill="white" transform="translate(22)"/>
</clipPath>
<clipPath id="clip1_1545_9527">
<rect width="30.2733" height="40.5354" fill="white" transform="translate(55.9785 27.3096)"/>
</clipPath>
</defs>
</svg>
