<svg width="142" height="142" viewBox="0 0 142 142" fill="none" xmlns="http://www.w3.org/2000/svg">
<path d="M39.9141 115.234V120.641H41.7422V122.094H39.9141V129.391H38.1797V115.234H39.9141ZM28.9141 125.844V116.703H32.5547V118.109H30.6484V124.391C31.2812 124.367 31.9297 124.305 32.6641 124.156L32.8047 125.578C31.5859 125.82 30.625 125.836 29.6016 125.844H28.9141ZM33.3203 125.844V116.703H37.1172V118.109H35.0234V124.398C35.9766 124.383 36.6562 124.312 37.3984 124.125L37.5391 125.547C36.4922 125.812 35.6328 125.836 34.0391 125.844H33.3203ZM55.2891 121.891V123.297H42.4141V121.891H55.2891ZM43.3516 127.953C46.2734 127.602 47.9766 126.172 47.9766 124.531V124.203H49.7422V124.531C49.7422 126.172 51.4531 127.602 54.3984 127.953L53.7578 129.312C51.4766 128.992 49.7344 128.047 48.8672 126.672C48 128.047 46.2656 128.992 43.9766 129.312L43.3516 127.953ZM43.6172 120.844V115.953H48.5234V117.328H45.3516V119.445C46.4844 119.43 47.5 119.344 48.6328 119.094L48.7891 120.5C47.2969 120.805 46.0391 120.836 44.4609 120.844H43.6172ZM49.2578 120.844V115.953H54.0703V117.328H51.0078V119.453H54.1641V120.844H49.2578ZM67.3828 115.266V118.844H69.3516V120.297H67.3828V123.781H65.6484V115.266H67.3828ZM56.2578 118.016V116.625H59.5859V115.172H61.3203V116.625H64.6328V118.016H56.2578ZM56.9766 121.062C56.9766 119.555 58.3828 118.531 60.4453 118.531C62.4922 118.531 63.8906 119.555 63.8984 121.062C63.8906 122.586 62.4844 123.594 60.4453 123.594C58.3828 123.594 56.9766 122.586 56.9766 121.062ZM58.2578 129.219V124.453H67.3828V129.219H58.2578ZM58.6641 121.062C58.6562 121.852 59.375 122.297 60.4453 122.297C61.5156 122.297 62.2422 121.852 62.2422 121.062C62.2422 120.297 61.5156 119.844 60.4453 119.844C59.375 119.844 58.6562 120.297 58.6641 121.062ZM59.9766 127.812H65.6641V125.828H59.9766V127.812ZM74.6484 116.25C76.8906 116.242 78.5234 117.656 78.5391 119.656C78.5234 121.664 76.8906 123.07 74.6484 123.078C72.4297 123.07 70.7656 121.664 70.7734 119.656C70.7656 117.656 72.4297 116.242 74.6484 116.25ZM70.1328 125.031C72.6797 125.031 76.2031 125 79.2578 124.562L79.3984 125.828C76.2344 126.43 72.8438 126.453 70.3516 126.453L70.1328 125.031ZM72.4922 119.656C72.4844 120.836 73.4141 121.562 74.6484 121.562C75.8984 121.562 76.8281 120.836 76.8359 119.656C76.8281 118.484 75.9062 117.75 74.6484 117.75C73.4141 117.75 72.4844 118.484 72.4922 119.656ZM80.1016 129.406V115.266H81.8359V129.406H80.1016ZM93.0391 118.656C93.0234 121.25 94.3906 123.844 96.6797 124.828L95.6484 126.219C94.0234 125.469 92.8359 123.977 92.1797 122.133C91.5312 124.117 90.3125 125.742 88.6016 126.547L87.5391 125.094C89.8906 124.078 91.2656 121.383 91.2734 118.656V116.406H93.0391V118.656ZM97.6953 129.406V115.266H99.4453V129.406H97.6953ZM106.586 117.719C106.586 119.461 107.703 121.172 109.93 121.906L109.055 123.25C107.469 122.719 106.352 121.664 105.734 120.344C105.109 121.789 103.938 122.938 102.289 123.5L101.367 122.156C103.641 121.398 104.836 119.57 104.836 117.719V117.547H101.852V116.156H109.523V117.547H106.586V117.719ZM103.258 125.828V124.438H112.664V129.391H110.93V125.828H103.258ZM110.93 123.781V115.266H112.664V118.797H114.633V120.25H112.664V123.781H110.93Z" fill="#E4E7EC"/>
<g clip-path="url(#clip0_1864_7324)">
<path d="M119.02 49.0005C119.02 75.5258 97.5258 97.0205 71.0005 97.0205C44.4751 97.0205 22.9805 75.5258 22.9805 49.0005C22.9805 22.4751 44.4751 0.980469 71.0005 0.980469C97.5258 0.980469 119.02 22.4751 119.02 49.0005Z" fill="#E4E7EC"/>
<g clip-path="url(#clip1_1864_7324)">
<path d="M71.1171 27.3096C65.5318 27.3096 60.9803 31.8515 60.9803 37.4195V42.463H60.7973C58.1304 42.463 55.9805 44.6063 55.9805 47.2649V63.0431C55.9805 65.7017 58.1304 67.8449 60.7973 67.8449H81.4415C84.1083 67.8449 86.2583 65.7017 86.2583 63.0431V47.2649C86.2583 44.6063 84.1083 42.463 81.4415 42.463H81.2585V37.4195C81.2585 31.8515 76.7024 27.3096 71.1171 27.3096ZM71.1171 31.0079C74.7126 31.0079 77.5487 33.8352 77.5487 37.4195V42.463H64.6855V37.4195C64.6855 33.8352 67.5216 31.0079 71.1171 31.0079ZM71.1171 48.5828C73.0017 48.5828 74.5296 50.1059 74.5296 51.9847C74.5296 53.3755 73.6787 54.625 72.3842 55.1403V60.1474C72.3842 60.8451 71.8215 61.4105 71.1171 61.4105C70.4172 61.4105 69.85 60.8496 69.85 60.1474V55.1403C68.5554 54.625 67.7046 53.3755 67.7046 51.9847C67.7046 51.0817 68.066 50.2153 68.7064 49.5769C69.3422 48.943 70.2114 48.5828 71.1171 48.5828Z" fill="#F9FAFB"/>
</g>
</g>
<defs>
<clipPath id="clip0_1864_7324">
<rect width="98" height="98" fill="white" transform="translate(22)"/>
</clipPath>
<clipPath id="clip1_1864_7324">
<rect width="30.2733" height="40.5354" fill="white" transform="translate(55.9785 27.3096)"/>
</clipPath>
</defs>
</svg>
