<svg width="142" height="142" viewBox="0 0 142 142" fill="none" xmlns="http://www.w3.org/2000/svg">
<path d="M38.4375 115.266V129.406H36.6875V115.266H38.4375ZM27.1406 121.281C27.1328 118.234 28.6875 116.297 30.8281 116.297C32.9453 116.297 34.5078 118.234 34.5156 121.281C34.5078 124.352 32.9453 126.281 30.8281 126.281C28.6875 126.281 27.1328 124.352 27.1406 121.281ZM28.8125 121.281C28.8125 123.453 29.6328 124.711 30.8281 124.719C32.0156 124.711 32.8281 123.453 32.8281 121.281C32.8281 119.125 32.0156 117.859 30.8281 117.859C29.6328 117.859 28.8125 119.125 28.8125 121.281ZM52.3438 115.281V125.641H50.6094V120.891H47.8906V119.453H50.6094V115.281H52.3438ZM40.7031 122.766C43.7422 121.805 45.75 120 46.0859 117.766H41.4375V116.344H47.9844C47.9844 120.07 45.5234 122.852 41.4375 124.156L40.7031 122.766ZM43.1406 129.109V124.594H44.9062V127.703H52.7031V129.109H43.1406ZM69.6719 115.859V116.656C69.6719 117.594 69.6719 118.984 69.25 120.812L67.5469 120.609C67.8906 119.172 67.9609 118.094 67.9766 117.25H64.7031V115.859H69.6719ZM58.1719 123.188V121.781H63.9844V119.188H65.6875V121.781H70.9844V123.188H58.1719ZM59.2188 117.25V115.859H63.5938V116.422C63.5859 117.312 63.5859 118.82 62.875 120.828L61.2188 120.594C61.6953 119.133 61.8359 118.047 61.875 117.25H59.2188ZM59.5469 125.844V124.438H69.4062V129.297H67.6406V125.844H59.5469ZM80.8125 118.656C80.7969 121.18 82.0625 123.727 84.25 124.781L83.1875 126.172C81.6562 125.398 80.5547 123.906 79.9531 122.109C79.3359 124.031 78.1797 125.625 76.5625 126.438L75.5 125.047C77.7734 123.969 79.0703 121.266 79.0781 118.656V116.406H80.8125V118.656ZM85.0938 129.391V115.266H86.8281V120.797H89V122.281H86.8281V129.391H85.0938ZM93.3906 116.297C95.5156 116.297 97.0469 118.234 97.0625 121.281C97.0469 124.352 95.5156 126.281 93.3906 126.281C91.2422 126.281 89.7109 124.352 89.7188 121.281C89.7109 118.234 91.2422 116.297 93.3906 116.297ZM91.3906 121.281C91.3828 123.453 92.2031 124.711 93.3906 124.719C94.5859 124.711 95.3828 123.453 95.3906 121.281C95.3828 119.125 94.5859 117.859 93.3906 117.859C92.2031 117.859 91.3828 119.125 91.3906 121.281ZM98.9219 129.391V115.266H100.656V118.641H102.75V120.094H100.656V122.812H102.75V124.234H100.656V129.391H98.9219ZM110.312 117.516V118.906H103.391V117.516H106.016V115.672H107.734V117.516H110.312ZM103.797 122.938C103.781 121.016 105.086 119.648 106.875 119.656C108.672 119.648 109.953 121.016 109.953 122.938C109.953 124.898 108.672 126.266 106.875 126.266C105.086 126.266 103.781 124.898 103.797 122.938ZM105.328 122.938C105.32 124.078 105.961 124.789 106.875 124.781C107.781 124.789 108.422 124.078 108.422 122.938C108.422 121.828 107.781 121.094 106.875 121.094C105.961 121.094 105.32 121.828 105.328 122.938ZM110.906 128.75V115.562H112.531V121.078H113.906V115.266H115.562V129.391H113.906V122.484H112.531V128.75H110.906Z" fill="#E4E7EC"/>
<g clip-path="url(#clip0_1545_9524)">
<path d="M119.02 49.0005C119.02 75.5258 97.5258 97.0205 71.0005 97.0205C44.4751 97.0205 22.9805 75.5258 22.9805 49.0005C22.9805 22.4751 44.4751 0.980469 71.0005 0.980469C97.5258 0.980469 119.02 22.4751 119.02 49.0005Z" fill="#E4E7EC"/>
<g clip-path="url(#clip1_1545_9524)">
<path d="M71.1171 27.3096C65.5318 27.3096 60.9803 31.8515 60.9803 37.4195V42.463H60.7973C58.1304 42.463 55.9805 44.6063 55.9805 47.2649V63.0431C55.9805 65.7017 58.1304 67.8449 60.7973 67.8449H81.4415C84.1083 67.8449 86.2583 65.7017 86.2583 63.0431V47.2649C86.2583 44.6063 84.1083 42.463 81.4415 42.463H81.2585V37.4195C81.2585 31.8515 76.7024 27.3096 71.1171 27.3096ZM71.1171 31.0079C74.7126 31.0079 77.5487 33.8352 77.5487 37.4195V42.463H64.6855V37.4195C64.6855 33.8352 67.5216 31.0079 71.1171 31.0079ZM71.1171 48.5828C73.0017 48.5828 74.5296 50.1059 74.5296 51.9847C74.5296 53.3755 73.6787 54.625 72.3842 55.1403V60.1474C72.3842 60.8451 71.8215 61.4105 71.1171 61.4105C70.4172 61.4105 69.85 60.8496 69.85 60.1474V55.1403C68.5554 54.625 67.7046 53.3755 67.7046 51.9847C67.7046 51.0817 68.066 50.2153 68.7064 49.5769C69.3422 48.943 70.2114 48.5828 71.1171 48.5828Z" fill="#F9FAFB"/>
</g>
</g>
<defs>
<clipPath id="clip0_1545_9524">
<rect width="98" height="98" fill="white" transform="translate(22)"/>
</clipPath>
<clipPath id="clip1_1545_9524">
<rect width="30.2733" height="40.5354" fill="white" transform="translate(55.9785 27.3096)"/>
</clipPath>
</defs>
</svg>
