<svg width="142" height="142" viewBox="0 0 142 142" fill="none" xmlns="http://www.w3.org/2000/svg">
<path d="M32.9297 120.719V122.141H30.8359V129.359H29.1016V115.266H30.8359V120.719H32.9297ZM20.2734 125.875V116.641H21.9922V124.438C23.875 124.406 25.875 124.242 28.0078 123.797L28.1953 125.266C25.8125 125.742 23.5547 125.867 21.4609 125.875H20.2734ZM40.7734 116.484V123.156H34.0859V116.484H40.7734ZM35.6953 129.109V124.578H37.4297V127.703H45.3047V129.109H35.6953ZM35.7891 121.781H39.0703V117.875H35.7891V121.781ZM43.0078 125.578V115.266H44.7422V119.406H46.7109V120.859H44.7422V125.578H43.0078ZM52.0078 116.25C54.25 116.242 55.8828 117.656 55.8984 119.656C55.8828 121.664 54.25 123.07 52.0078 123.078C49.7891 123.07 48.125 121.664 48.1328 119.656C48.125 117.656 49.7891 116.242 52.0078 116.25ZM47.4922 125.031C50.0391 125.031 53.5625 125 56.6172 124.562L56.7578 125.828C53.5938 126.43 50.2031 126.453 47.7109 126.453L47.4922 125.031ZM49.8516 119.656C49.8438 120.836 50.7734 121.562 52.0078 121.562C53.2578 121.562 54.1875 120.836 54.1953 119.656C54.1875 118.484 53.2656 117.75 52.0078 117.75C50.7734 117.75 49.8438 118.484 49.8516 119.656ZM57.4609 129.406V115.266H59.1953V129.406H57.4609ZM70.1328 118.328C70.125 119.883 71.2734 121.422 73.4922 122.031L72.6953 123.375C71.0859 122.93 69.9297 121.969 69.2969 120.758C68.6797 122.133 67.5156 123.219 65.8516 123.75L65.0078 122.375C67.2344 121.695 68.3984 120.047 68.3984 118.328V118.188H65.4453V116.812H68.3984V115.219H70.1484V116.812H73.0859V118.188H70.1328V118.328ZM66.7109 127.953C69.4844 127.523 71.2969 125.906 71.3047 124.328V124.062H73.1016V124.328C73.0859 125.984 74.8516 127.555 77.7109 127.953L77.0234 129.312C74.7656 128.969 73.0391 127.914 72.1875 126.461C71.3203 127.891 69.5859 128.977 67.3359 129.312L66.7109 127.953ZM72.6797 120.531V119.109H75.1484V115.266H76.8828V124.953H75.1484V120.531H72.6797ZM88.1172 116.734V121.922H84.7734V124.57C86.2266 124.555 87.6094 124.492 89.2109 124.203L89.3516 125.625C87.4531 125.977 85.8594 126.008 84.0859 126.016H83.1016V120.547H86.4453V118.125H83.0859V116.734H88.1172ZM88.7422 121.594V120.172H90.2891V115.562H91.9297V128.672H90.2891V121.594H88.7422ZM93.1797 129.391V115.266H94.8359V129.391H93.1797ZM101.852 118.656C101.836 121.25 103.203 123.844 105.492 124.828L104.461 126.219C102.836 125.469 101.648 123.977 100.992 122.133C100.344 124.117 99.125 125.742 97.4141 126.547L96.3516 125.094C98.7031 124.078 100.078 121.383 100.086 118.656V116.406H101.852V118.656ZM106.508 129.406V115.266H108.258V129.406H106.508ZM122.133 115.266V129.391H120.383V115.266H122.133ZM110.305 124.625C110.852 124.625 111.438 124.617 112.055 124.609V118.062H110.68V116.641H118.695V118.062H117.336V124.398C118.008 124.344 118.68 124.281 119.32 124.203L119.414 125.5C116.383 125.992 113.078 126.047 110.477 126.047L110.305 124.625ZM113.727 124.578C114.352 124.562 114.992 124.539 115.633 124.5V118.062H113.727V124.578Z" fill="#E4E7EC"/>
<g clip-path="url(#clip0_1864_7292)">
<path d="M119.02 49.0005C119.02 75.5258 97.5258 97.0205 71.0005 97.0205C44.4751 97.0205 22.9805 75.5258 22.9805 49.0005C22.9805 22.4751 44.4751 0.980469 71.0005 0.980469C97.5258 0.980469 119.02 22.4751 119.02 49.0005Z" fill="#E4E7EC"/>
<g clip-path="url(#clip1_1864_7292)">
<path d="M71.1171 27.3096C65.5318 27.3096 60.9803 31.8515 60.9803 37.4195V42.463H60.7973C58.1304 42.463 55.9805 44.6063 55.9805 47.2649V63.0431C55.9805 65.7017 58.1304 67.8449 60.7973 67.8449H81.4415C84.1083 67.8449 86.2583 65.7017 86.2583 63.0431V47.2649C86.2583 44.6063 84.1083 42.463 81.4415 42.463H81.2585V37.4195C81.2585 31.8515 76.7024 27.3096 71.1171 27.3096ZM71.1171 31.0079C74.7126 31.0079 77.5487 33.8352 77.5487 37.4195V42.463H64.6855V37.4195C64.6855 33.8352 67.5216 31.0079 71.1171 31.0079ZM71.1171 48.5828C73.0017 48.5828 74.5296 50.1059 74.5296 51.9847C74.5296 53.3755 73.6787 54.625 72.3842 55.1403V60.1474C72.3842 60.8451 71.8215 61.4105 71.1171 61.4105C70.4172 61.4105 69.85 60.8496 69.85 60.1474V55.1403C68.5554 54.625 67.7046 53.3755 67.7046 51.9847C67.7046 51.0817 68.066 50.2153 68.7064 49.5769C69.3422 48.943 70.2114 48.5828 71.1171 48.5828Z" fill="#F9FAFB"/>
</g>
</g>
<defs>
<clipPath id="clip0_1864_7292">
<rect width="98" height="98" fill="white" transform="translate(22)"/>
</clipPath>
<clipPath id="clip1_1864_7292">
<rect width="30.2733" height="40.5354" fill="white" transform="translate(55.9785 27.3096)"/>
</clipPath>
</defs>
</svg>
