<svg width="142" height="142" viewBox="0 0 142 142" fill="none" xmlns="http://www.w3.org/2000/svg">
<path d="M33.4219 115.266V129.406H31.6719V115.266H33.4219ZM22.125 121.281C22.1172 118.234 23.6719 116.297 25.8125 116.297C27.9297 116.297 29.4922 118.234 29.5 121.281C29.4922 124.352 27.9297 126.281 25.8125 126.281C23.6719 126.281 22.1172 124.352 22.125 121.281ZM23.7969 121.281C23.7969 123.453 24.6172 124.711 25.8125 124.719C27 124.711 27.8125 123.453 27.8125 121.281C27.8125 119.125 27 117.859 25.8125 117.859C24.6172 117.859 23.7969 119.125 23.7969 121.281ZM40.0625 117.297C40.0547 118.109 40.7109 119.125 41.9297 119.703C43.125 119.141 43.7656 118.141 43.7656 117.297V117.172H42.2031V115.766H47.4844V117.172H45.5312V117.297C45.5234 118.32 46.3594 119.391 48.0781 119.828L47.2969 121.094C45.9609 120.727 45.0781 119.961 44.6172 119.031C44.1562 119.977 43.2812 120.805 41.9219 121.188C40.5469 120.805 39.6719 119.945 39.2109 118.992C38.7422 119.914 37.8594 120.711 36.5312 121.094L35.7969 119.828C37.4766 119.359 38.3359 118.242 38.3438 117.297V117.172H36.3438V115.766H41.6406V117.172H40.0625V117.297ZM35.5 123.281V121.891H48.375V123.281H35.5ZM37.0156 129.219V124.406H46.8125V129.219H37.0156ZM38.7344 127.812H45.125V125.781H38.7344V127.812ZM57.7344 121.125V122.531H54.875V124.992C56.1094 124.945 57.3438 124.859 58.5156 124.734L58.6562 126.016C55.5469 126.477 52.2734 126.508 49.6094 126.516L49.3906 125.078C50.5547 125.086 51.8281 125.078 53.1406 125.055V122.531H50.375V116.562H57.6719V117.938H52.0938V121.125H57.7344ZM59.3594 129.406V115.266H61.0938V129.406H59.3594ZM70.4062 116.453V117.578H73.25V115.281H74.9844V125.562H73.25V122H70.4062V123.219H63.7656V116.453H70.4062ZM65.5 121.859H68.6875V117.828H65.5V121.859ZM65.6719 129.109V124.609H67.4375V127.703H75.2969V129.109H65.6719ZM70.4062 120.609H73.25V119H70.4062V120.609ZM85.8594 118.281C85.8516 119.836 87 121.32 89.2188 121.922L88.4219 123.297C86.8047 122.852 85.6562 121.898 85.0156 120.688C84.3984 122.055 83.2266 123.125 81.5625 123.641L80.7188 122.281C82.9453 121.648 84.125 120.008 84.125 118.281V118.219H81.1719V116.844H84.125V115.203H85.875V116.844H88.8125V118.219H85.8594V118.281ZM82.5469 126.75C82.5469 125.078 84.3594 124.125 87.3281 124.125C90.2734 124.125 92.0547 125.078 92.0625 126.75C92.0547 128.406 90.2734 129.359 87.3281 129.359C84.3594 129.359 82.5469 128.406 82.5469 126.75ZM84.2812 126.75C84.2812 127.594 85.3672 128.031 87.3281 128.031C89.2578 128.031 90.3438 127.594 90.3438 126.75C90.3438 125.891 89.2578 125.469 87.3281 125.469C85.3672 125.469 84.2812 125.891 84.2812 126.75ZM90.1875 123.828V115.266H91.9219V118.719H93.8906V120.141H91.9219V123.828H90.1875ZM98.5312 115.891C100.359 115.883 101.797 116.938 102.148 118.484H104.703V115.266H106.438V122.844H104.703V119.891H102.164C101.828 121.477 100.375 122.547 98.5312 122.547C96.3672 122.547 94.7969 121.156 94.7969 119.203C94.7969 117.273 96.3672 115.883 98.5312 115.891ZM96.4531 119.203C96.4531 120.336 97.3125 121.086 98.5312 121.078C99.7188 121.086 100.57 120.336 100.578 119.203C100.57 118.07 99.7188 117.336 98.5312 117.344C97.3125 117.336 96.4531 118.07 96.4531 119.203ZM97.125 129.219V123.5H98.8438V125H104.703V123.5H106.438V129.219H97.125ZM98.8438 127.812H104.703V126.344H98.8438V127.812ZM115.328 117.516V118.906H108.406V117.516H111.031V115.672H112.75V117.516H115.328ZM108.812 122.938C108.797 121.016 110.102 119.648 111.891 119.656C113.688 119.648 114.969 121.016 114.969 122.938C114.969 124.898 113.688 126.266 111.891 126.266C110.102 126.266 108.797 124.898 108.812 122.938ZM110.344 122.938C110.336 124.078 110.977 124.789 111.891 124.781C112.797 124.789 113.438 124.078 113.438 122.938C113.438 121.828 112.797 121.094 111.891 121.094C110.977 121.094 110.336 121.828 110.344 122.938ZM115.922 128.75V115.562H117.547V121.078H118.922V115.266H120.578V129.391H118.922V122.484H117.547V128.75H115.922Z" fill="#E4E7EC"/>
<g clip-path="url(#clip0_1545_9559)">
<path d="M119.02 49.0005C119.02 75.5258 97.5258 97.0205 71.0005 97.0205C44.4751 97.0205 22.9805 75.5258 22.9805 49.0005C22.9805 22.4751 44.4751 0.980469 71.0005 0.980469C97.5258 0.980469 119.02 22.4751 119.02 49.0005Z" fill="#E4E7EC"/>
<g clip-path="url(#clip1_1545_9559)">
<path d="M71.1171 27.3096C65.5318 27.3096 60.9803 31.8515 60.9803 37.4195V42.463H60.7973C58.1304 42.463 55.9805 44.6063 55.9805 47.2649V63.0431C55.9805 65.7017 58.1304 67.8449 60.7973 67.8449H81.4415C84.1083 67.8449 86.2583 65.7017 86.2583 63.0431V47.2649C86.2583 44.6063 84.1083 42.463 81.4415 42.463H81.2585V37.4195C81.2585 31.8515 76.7024 27.3096 71.1171 27.3096ZM71.1171 31.0079C74.7126 31.0079 77.5487 33.8352 77.5487 37.4195V42.463H64.6855V37.4195C64.6855 33.8352 67.5216 31.0079 71.1171 31.0079ZM71.1171 48.5828C73.0017 48.5828 74.5296 50.1059 74.5296 51.9847C74.5296 53.3755 73.6787 54.625 72.3842 55.1403V60.1474C72.3842 60.8451 71.8215 61.4105 71.1171 61.4105C70.4172 61.4105 69.85 60.8496 69.85 60.1474V55.1403C68.5554 54.625 67.7046 53.3755 67.7046 51.9847C67.7046 51.0817 68.066 50.2153 68.7064 49.5769C69.3422 48.943 70.2114 48.5828 71.1171 48.5828Z" fill="#F9FAFB"/>
</g>
</g>
<defs>
<clipPath id="clip0_1545_9559">
<rect width="98" height="98" fill="white" transform="translate(22)"/>
</clipPath>
<clipPath id="clip1_1545_9559">
<rect width="30.2733" height="40.5354" fill="white" transform="translate(55.9785 27.3096)"/>
</clipPath>
</defs>
</svg>
