<svg width="142" height="142" viewBox="0 0 142 142" fill="none" xmlns="http://www.w3.org/2000/svg">
<path d="M32.9062 116.641V118.234C32.9062 120.125 32.9062 122.07 32.3906 125.047L30.625 124.891C31.1719 122.117 31.1719 120.07 31.1719 118.234V118.047H23.0312V116.641H32.9062ZM21.6719 127.453V126.031H34.5469V127.453H21.6719ZM48.4062 126.297V127.719H35.5V126.297H48.4062ZM37 117.672V116.266H46.875V120.812H38.7656V122.656H47.2031V124.031H37.0312V119.422H45.1562V117.672H37ZM62.2344 126.297V127.719H49.3281V126.297H62.2344ZM50.8281 117.672V116.266H60.7031V120.812H52.5938V122.656H61.0312V124.031H50.8594V119.422H58.9844V117.672H50.8281ZM74.2969 115.281V118.297H76.2812V119.719H74.2969V122.734H72.5625V115.281H74.2969ZM63.1094 121.469C66.5703 120.75 68.2812 119.203 68.5078 117.328H63.8125V115.922H70.4531C70.4453 119.625 68.0625 121.945 63.7656 122.891L63.1094 121.469ZM64.4844 124.641V123.359H69.2031V126.844H66.2188V127.938C68.1484 127.938 69.0469 127.883 70.1094 127.641L70.2812 128.938C69.0312 129.219 68.0156 129.242 65.4219 129.234H64.5156V125.625H67.5156V124.641H64.4844ZM69.8125 124.703V123.359H74.2969V129.297H72.5781V124.703H69.8125ZM92.5469 115.266V129.391H90.8125V115.266H92.5469ZM80.8438 125.469C81.9688 125.461 83.2422 125.461 84.5781 125.422V124.125C82.9922 123.875 81.9531 122.906 81.9531 121.562C81.9531 119.969 83.3672 118.914 85.4219 118.906C87.5 118.914 88.9375 119.969 88.9375 121.562C88.9375 122.898 87.8984 123.859 86.3125 124.117V125.359C87.5547 125.305 88.8047 125.203 89.9844 125.047L90.1094 126.344C87.0078 126.867 83.6328 126.906 81.0938 126.906L80.8438 125.469ZM81.1406 118.266V116.891H84.5781V115.312H86.3125V116.891H89.7344V118.266H81.1406ZM83.6094 121.562C83.5938 122.375 84.3516 122.852 85.4219 122.844C86.5234 122.852 87.2734 122.375 87.2656 121.562C87.2734 120.742 86.5234 120.242 85.4219 120.234C84.3516 120.242 83.5938 120.742 83.6094 121.562ZM99.6719 117.812C99.6719 119.539 100.789 121.164 103 121.844L102.172 123.203C100.586 122.703 99.4609 121.695 98.8438 120.422C98.2188 121.906 97.0312 123.086 95.3281 123.656L94.4531 122.281C96.7266 121.539 97.9219 119.703 97.9219 117.828V117.656H94.9375V116.25H102.609V117.656H99.6719V117.812ZM96.375 126.672C96.375 124.984 98.2031 124 101.156 124C104.086 124 105.883 124.984 105.891 126.672C105.883 128.375 104.086 129.375 101.156 129.375C98.2031 129.375 96.375 128.375 96.375 126.672ZM98.1094 126.672C98.1094 127.547 99.2188 128.008 101.156 128.016C103.086 128.008 104.172 127.547 104.172 126.672C104.172 125.812 103.086 125.359 101.156 125.359C99.2188 125.359 98.1094 125.812 98.1094 126.672ZM104.016 123.688V115.266H105.75V118.656H107.719V120.078H105.75V123.688H104.016ZM120.172 115.266V123.219H118.453V115.266H120.172ZM109.266 122.406V116.094H111.016V120.938C113.227 120.922 115.125 120.758 117.125 120.328L117.344 121.766C115.094 122.227 112.969 122.391 110.469 122.406H109.266ZM110.844 129.203V123.828H120.172V129.203H110.844ZM112.547 127.828H118.484V125.188H112.547V127.828Z" fill="#E4E7EC"/>
<g clip-path="url(#clip0_1545_9556)">
<path d="M119.02 49.0005C119.02 75.5258 97.5258 97.0205 71.0005 97.0205C44.4751 97.0205 22.9805 75.5258 22.9805 49.0005C22.9805 22.4751 44.4751 0.980469 71.0005 0.980469C97.5258 0.980469 119.02 22.4751 119.02 49.0005Z" fill="#E4E7EC"/>
<g clip-path="url(#clip1_1545_9556)">
<path d="M71.1171 27.3096C65.5318 27.3096 60.9803 31.8515 60.9803 37.4195V42.463H60.7973C58.1304 42.463 55.9805 44.6063 55.9805 47.2649V63.0431C55.9805 65.7017 58.1304 67.8449 60.7973 67.8449H81.4415C84.1083 67.8449 86.2583 65.7017 86.2583 63.0431V47.2649C86.2583 44.6063 84.1083 42.463 81.4415 42.463H81.2585V37.4195C81.2585 31.8515 76.7024 27.3096 71.1171 27.3096ZM71.1171 31.0079C74.7126 31.0079 77.5487 33.8352 77.5487 37.4195V42.463H64.6855V37.4195C64.6855 33.8352 67.5216 31.0079 71.1171 31.0079ZM71.1171 48.5828C73.0017 48.5828 74.5296 50.1059 74.5296 51.9847C74.5296 53.3755 73.6787 54.625 72.3842 55.1403V60.1474C72.3842 60.8451 71.8215 61.4105 71.1171 61.4105C70.4172 61.4105 69.85 60.8496 69.85 60.1474V55.1403C68.5554 54.625 67.7046 53.3755 67.7046 51.9847C67.7046 51.0817 68.066 50.2153 68.7064 49.5769C69.3422 48.943 70.2114 48.5828 71.1171 48.5828Z" fill="#F9FAFB"/>
</g>
</g>
<defs>
<clipPath id="clip0_1545_9556">
<rect width="98" height="98" fill="white" transform="translate(22)"/>
</clipPath>
<clipPath id="clip1_1545_9556">
<rect width="30.2733" height="40.5354" fill="white" transform="translate(55.9785 27.3096)"/>
</clipPath>
</defs>
</svg>
