<svg width="142" height="142" viewBox="0 0 142 142" fill="none" xmlns="http://www.w3.org/2000/svg">
<path d="M53.7422 115.266V125.703H52.0078V122.016H50.0078V120.578H52.0078V119.234H50.0078V117.828H52.0078V115.266H53.7422ZM41.9297 122.406C42.4219 122.406 42.9609 122.406 43.5234 122.398V117.719H42.2891V116.328H49.8047V117.719H48.5547V122.234C49.0859 122.195 49.6016 122.148 50.1016 122.094L50.1797 123.359C47.5 123.789 44.3672 123.844 42.1172 123.844L41.9297 122.406ZM44.4609 129.109V124.891H46.2109V127.703H54.1016V129.109H44.4609ZM45.2109 122.375C45.7578 122.367 46.3203 122.344 46.8828 122.32V117.719H45.2109V122.375ZM61.0078 117.281C61 119.141 62.1719 120.891 64.4141 121.594L63.5547 122.969C61.9297 122.43 60.7656 121.352 60.125 119.969C59.4922 121.453 58.3047 122.633 56.6328 123.203L55.7578 121.844C58.0391 121.07 59.2188 119.195 59.2109 117.281V115.938H61.0078V117.281ZM57.8672 125.75V124.359H67.5078V129.391H65.7578V125.75H57.8672ZM65.7578 123.719V115.266H67.5078V123.719H65.7578ZM85.5391 116.156V117.391H74.0078V116.156H78.9297V115.094H80.6641V116.156H85.5391ZM73.3672 123.406V122.156H78.9297V121.391C76.4062 121.281 75.1016 120.719 75.1016 119.609C75.1016 118.383 76.7031 117.82 79.7891 117.812C82.875 117.82 84.4844 118.383 84.4922 119.609C84.4844 120.711 83.1797 121.281 80.6641 121.391V122.156H86.2422V123.406H73.3672ZM74.8828 125.312V124.094H84.6328V127.203H76.6641V128.031H85.0234V129.266H74.8984V126.047H82.8672V125.312H74.8828ZM76.9609 119.609C76.9609 120.07 77.8047 120.297 79.7891 120.297C81.7734 120.297 82.6484 120.07 82.6641 119.609C82.6484 119.148 81.7734 118.945 79.7891 118.953C77.8047 118.945 76.9609 119.148 76.9609 119.609ZM98.9609 115.281V123.922H97.2109V115.281H98.9609ZM87.9141 117.484V116.078H94.4297V120.266H89.6484V121.844C92.0625 121.836 93.7891 121.75 95.8047 121.453L96.0234 122.844C93.7969 123.203 91.8828 123.273 89.1484 123.266H87.9453V118.922H92.7109V117.484H87.9141ZM89.3203 126V124.578H98.9609V129.391H97.2109V126H89.3203Z" fill="#E4E7EC"/>
<g clip-path="url(#clip0_1545_9562)">
<path d="M119.02 49.0005C119.02 75.5258 97.5258 97.0205 71.0005 97.0205C44.4751 97.0205 22.9805 75.5258 22.9805 49.0005C22.9805 22.4751 44.4751 0.980469 71.0005 0.980469C97.5258 0.980469 119.02 22.4751 119.02 49.0005Z" fill="#E4E7EC"/>
<g clip-path="url(#clip1_1545_9562)">
<path d="M71.1171 27.3096C65.5318 27.3096 60.9803 31.8515 60.9803 37.4195V42.463H60.7973C58.1304 42.463 55.9805 44.6063 55.9805 47.2649V63.0431C55.9805 65.7017 58.1304 67.8449 60.7973 67.8449H81.4415C84.1083 67.8449 86.2583 65.7017 86.2583 63.0431V47.2649C86.2583 44.6063 84.1083 42.463 81.4415 42.463H81.2585V37.4195C81.2585 31.8515 76.7024 27.3096 71.1171 27.3096ZM71.1171 31.0079C74.7126 31.0079 77.5487 33.8352 77.5487 37.4195V42.463H64.6855V37.4195C64.6855 33.8352 67.5216 31.0079 71.1171 31.0079ZM71.1171 48.5828C73.0017 48.5828 74.5296 50.1059 74.5296 51.9847C74.5296 53.3755 73.6787 54.625 72.3842 55.1403V60.1474C72.3842 60.8451 71.8215 61.4105 71.1171 61.4105C70.4172 61.4105 69.85 60.8496 69.85 60.1474V55.1403C68.5554 54.625 67.7046 53.3755 67.7046 51.9847C67.7046 51.0817 68.066 50.2153 68.7064 49.5769C69.3422 48.943 70.2114 48.5828 71.1171 48.5828Z" fill="#F9FAFB"/>
</g>
</g>
<defs>
<clipPath id="clip0_1545_9562">
<rect width="98" height="98" fill="white" transform="translate(22)"/>
</clipPath>
<clipPath id="clip1_1545_9562">
<rect width="30.2733" height="40.5354" fill="white" transform="translate(55.9785 27.3096)"/>
</clipPath>
</defs>
</svg>
