<svg width="142" height="142" viewBox="0 0 142 142" fill="none" xmlns="http://www.w3.org/2000/svg">
<path d="M51.4062 116.156C51.3906 119.961 49.4453 122.57 44.7656 123.922L44.125 122.531C46.2812 121.938 47.6875 121.094 48.5312 120.047L44.3281 120.359L44.0625 118.984L49.25 118.789C49.3984 118.398 49.4922 117.984 49.5391 117.547H44.7812V116.156H51.4062ZM45.9688 126.625C45.9688 124.875 47.8203 123.859 50.8281 123.859C53.7578 123.859 55.625 124.875 55.625 126.625C55.625 128.367 53.7578 129.359 50.8281 129.359C47.8203 129.359 45.9688 128.367 45.9688 126.625ZM47.7188 126.625C47.7188 127.516 48.8203 128.023 50.8281 128.016C52.7734 128.023 53.8984 127.516 53.8906 126.625C53.8984 125.719 52.7734 125.227 50.8281 125.234C48.8203 125.227 47.7188 125.719 47.7188 126.625ZM53.8281 123.656V115.281H55.5781V123.656H53.8281ZM65.2344 116.156C65.2188 119.961 63.2734 122.57 58.5938 123.922L57.9531 122.531C60.1094 121.938 61.5156 121.094 62.3594 120.047L58.1562 120.359L57.8906 118.984L63.0781 118.789C63.2266 118.398 63.3203 117.984 63.3672 117.547H58.6094V116.156H65.2344ZM59.7969 126.625C59.7969 124.875 61.6484 123.859 64.6562 123.859C67.5859 123.859 69.4531 124.875 69.4531 126.625C69.4531 128.367 67.5859 129.359 64.6562 129.359C61.6484 129.359 59.7969 128.367 59.7969 126.625ZM61.5469 126.625C61.5469 127.516 62.6484 128.023 64.6562 128.016C66.6016 128.023 67.7266 127.516 67.7188 126.625C67.7266 125.719 66.6016 125.227 64.6562 125.234C62.6484 125.227 61.5469 125.719 61.5469 126.625ZM67.6562 123.656V115.281H69.4062V123.656H67.6562ZM78.7656 117.203C78.7656 119.383 80.8984 121.578 83.8594 122.094L83.0781 123.547C80.7109 123.055 78.7734 121.617 77.8516 119.719C76.9219 121.602 74.9844 123.047 72.625 123.547L71.8594 122.094C74.7734 121.562 76.9141 119.375 76.9219 117.203V116.156H78.7656V117.203ZM71.4688 127.594V126.156H84.375V127.594H71.4688ZM92.5469 116.484V117.906H87.6406V120.422H92.2969V121.797H87.6406V124.703C89.8125 124.695 91.5156 124.602 93.4844 124.281L93.6406 125.688C91.4766 126.039 89.5703 126.109 87.0469 126.109H85.875V116.484H92.5469ZM94.625 129.391V115.266H96.3594V120.734H98.5312V122.188H96.3594V129.391H94.625Z" fill="#E4E7EC"/>
<g clip-path="url(#clip0_1864_7321)">
<path d="M119.02 49.0005C119.02 75.5258 97.5258 97.0205 71.0005 97.0205C44.4751 97.0205 22.9805 75.5258 22.9805 49.0005C22.9805 22.4751 44.4751 0.980469 71.0005 0.980469C97.5258 0.980469 119.02 22.4751 119.02 49.0005Z" fill="#E4E7EC"/>
<g clip-path="url(#clip1_1864_7321)">
<path d="M71.1171 27.3096C65.5318 27.3096 60.9803 31.8515 60.9803 37.4195V42.463H60.7973C58.1304 42.463 55.9805 44.6063 55.9805 47.2649V63.0431C55.9805 65.7017 58.1304 67.8449 60.7973 67.8449H81.4415C84.1083 67.8449 86.2583 65.7017 86.2583 63.0431V47.2649C86.2583 44.6063 84.1083 42.463 81.4415 42.463H81.2585V37.4195C81.2585 31.8515 76.7024 27.3096 71.1171 27.3096ZM71.1171 31.0079C74.7126 31.0079 77.5487 33.8352 77.5487 37.4195V42.463H64.6855V37.4195C64.6855 33.8352 67.5216 31.0079 71.1171 31.0079ZM71.1171 48.5828C73.0017 48.5828 74.5296 50.1059 74.5296 51.9847C74.5296 53.3755 73.6787 54.625 72.3842 55.1403V60.1474C72.3842 60.8451 71.8215 61.4105 71.1171 61.4105C70.4172 61.4105 69.85 60.8496 69.85 60.1474V55.1403C68.5554 54.625 67.7046 53.3755 67.7046 51.9847C67.7046 51.0817 68.066 50.2153 68.7064 49.5769C69.3422 48.943 70.2114 48.5828 71.1171 48.5828Z" fill="#F9FAFB"/>
</g>
</g>
<defs>
<clipPath id="clip0_1864_7321">
<rect width="98" height="98" fill="white" transform="translate(22)"/>
</clipPath>
<clipPath id="clip1_1864_7321">
<rect width="30.2733" height="40.5354" fill="white" transform="translate(55.9785 27.3096)"/>
</clipPath>
</defs>
</svg>
