<svg width="142" height="142" viewBox="0 0 142 142" fill="none" xmlns="http://www.w3.org/2000/svg">
<path d="M28.9531 119.469V120.891H34.5625V122.297H21.6562V120.891H27.2344V119.469H28.9531ZM22.2656 119C24.8125 118.844 26.5 117.984 26.8516 116.984H22.8438V115.656H33.3906V116.984H29.3438C29.6797 117.992 31.3516 118.844 33.9375 119L33.3906 120.297C30.7734 120.094 28.8438 119.211 28.1094 117.867C27.3672 119.203 25.4375 120.094 22.8281 120.297L22.2656 119ZM22.8438 125.188V123.875H27.2188V122.734H28.9688V123.875H33.3438V125.188H22.8438ZM23.7812 127.562C23.7734 126.352 25.3281 125.703 28.0781 125.703C30.8125 125.703 32.4062 126.352 32.4062 127.562C32.4062 128.797 30.8125 129.445 28.0781 129.438C25.3281 129.445 23.7734 128.797 23.7812 127.562ZM25.5625 127.562C25.5547 128.039 26.4453 128.281 28.0781 128.281C29.7422 128.281 30.5938 128.039 30.6094 127.562C30.5938 127.078 29.7422 126.875 28.0781 126.875C26.4453 126.875 25.5547 127.078 25.5625 127.562ZM39.2969 116.297C41.4219 116.297 42.9531 118.234 42.9688 121.281C42.9531 124.352 41.4219 126.281 39.2969 126.281C37.1484 126.281 35.6172 124.352 35.625 121.281C35.6172 118.234 37.1484 116.297 39.2969 116.297ZM37.2969 121.281C37.2891 123.453 38.1094 124.711 39.2969 124.719C40.4922 124.711 41.2891 123.453 41.2969 121.281C41.2891 119.125 40.4922 117.859 39.2969 117.859C38.1094 117.859 37.2891 119.125 37.2969 121.281ZM44.8281 129.391V115.266H46.5625V120.688H48.7344V122.156H46.5625V129.391H44.8281ZM60.3906 115.266V120.891H62.5625V122.328H60.3906V129.391H58.6719V115.266H60.3906ZM49.25 118.828V117.438H52.5938V115.469H54.3281V117.438H57.5781V118.828H49.25ZM49.9062 123.078C49.8906 121.125 51.4062 119.742 53.4688 119.75C55.5 119.742 57.0078 121.125 57.0156 123.078C57.0078 125.023 55.5 126.391 53.4688 126.391C51.4062 126.391 49.8906 125.023 49.9062 123.078ZM51.5625 123.078C51.5547 124.227 52.3594 124.961 53.4688 124.953C54.5547 124.961 55.3438 124.227 55.3594 123.078C55.3438 121.93 54.5547 121.172 53.4688 121.172C52.3594 121.172 51.5547 121.93 51.5625 123.078ZM70.4062 116.453V117.578H73.25V115.281H74.9844V125.562H73.25V122H70.4062V123.219H63.7656V116.453H70.4062ZM65.5 121.859H68.6875V117.828H65.5V121.859ZM65.6719 129.109V124.609H67.4375V127.703H75.2969V129.109H65.6719ZM70.4062 120.609H73.25V119H70.4062V120.609ZM87.2031 115.406C90.4219 115.414 92.2891 116.273 92.2969 117.828C92.2891 119.406 90.4219 120.258 87.2031 120.266C83.9922 120.258 82.1094 119.406 82.1094 117.828C82.1094 116.273 83.9922 115.414 87.2031 115.406ZM80.7812 122.359V121H93.6562V122.359H88.0625V123.438H92.0469V126.891H84.0156V127.938H92.4375V129.266H82.3125V125.656H90.3438V124.719H82.2969V123.438H86.3281V122.359H80.7812ZM83.9375 117.828C83.9297 118.609 85.0547 118.969 87.2031 118.984C89.3828 118.969 90.5 118.609 90.5 117.828C90.5 117.102 89.3828 116.711 87.2031 116.703C85.0547 116.711 83.9297 117.102 83.9375 117.828ZM106.375 115.266V129.406H104.656V115.266H106.375ZM95.375 117.906V116.5H102.031V121.797H97.1719V124.641C99.3984 124.625 101.312 124.508 103.516 124.141L103.672 125.562C101.273 125.977 99.1641 126.07 96.625 126.062H95.3906V120.422H100.266V117.906H95.375ZM119.875 119.266V120.641H110.094V115.781H111.812V119.266H119.875ZM108.422 123.656V122.281H121.328V123.656H108.422ZM109.969 129.062V124.906H111.703V127.656H119.969V129.062H109.969Z" fill="#E4E7EC"/>
<g clip-path="url(#clip0_1545_9534)">
<path d="M119.02 49.0005C119.02 75.5258 97.5258 97.0205 71.0005 97.0205C44.4751 97.0205 22.9805 75.5258 22.9805 49.0005C22.9805 22.4751 44.4751 0.980469 71.0005 0.980469C97.5258 0.980469 119.02 22.4751 119.02 49.0005Z" fill="#E4E7EC"/>
<g clip-path="url(#clip1_1545_9534)">
<path d="M71.1171 27.3096C65.5318 27.3096 60.9803 31.8515 60.9803 37.4195V42.463H60.7973C58.1304 42.463 55.9805 44.6063 55.9805 47.2649V63.0431C55.9805 65.7017 58.1304 67.8449 60.7973 67.8449H81.4415C84.1083 67.8449 86.2583 65.7017 86.2583 63.0431V47.2649C86.2583 44.6063 84.1083 42.463 81.4415 42.463H81.2585V37.4195C81.2585 31.8515 76.7024 27.3096 71.1171 27.3096ZM71.1171 31.0079C74.7126 31.0079 77.5487 33.8352 77.5487 37.4195V42.463H64.6855V37.4195C64.6855 33.8352 67.5216 31.0079 71.1171 31.0079ZM71.1171 48.5828C73.0017 48.5828 74.5296 50.1059 74.5296 51.9847C74.5296 53.3755 73.6787 54.625 72.3842 55.1403V60.1474C72.3842 60.8451 71.8215 61.4105 71.1171 61.4105C70.4172 61.4105 69.85 60.8496 69.85 60.1474V55.1403C68.5554 54.625 67.7046 53.3755 67.7046 51.9847C67.7046 51.0817 68.066 50.2153 68.7064 49.5769C69.3422 48.943 70.2114 48.5828 71.1171 48.5828Z" fill="#F9FAFB"/>
</g>
</g>
<defs>
<clipPath id="clip0_1545_9534">
<rect width="98" height="98" fill="white" transform="translate(22)"/>
</clipPath>
<clipPath id="clip1_1545_9534">
<rect width="30.2733" height="40.5354" fill="white" transform="translate(55.9785 27.3096)"/>
</clipPath>
</defs>
</svg>
