<svg width="142" height="142" viewBox="0 0 142 142" fill="none" xmlns="http://www.w3.org/2000/svg">
<path d="M40.3516 115.281V125.594H38.6016V115.281H40.3516ZM28.6016 122.266C30.8906 121.461 32.0625 119.469 32.0547 117.438V116.062H33.8516V117.438C33.8438 119.406 35 121.266 37.2422 122.016L36.3516 123.391C34.7422 122.828 33.5938 121.703 32.9688 120.258C32.3438 121.805 31.1719 123.039 29.5078 123.641L28.6016 122.266ZM31.0078 129.109V124.609H32.7578V127.703H40.7422V129.109H31.0078ZM54.5703 115.266V129.391H52.9141V115.266H54.5703ZM42.1641 125.375C44.2031 124.133 45.1016 121.586 45.1016 119.125V118.188H42.6484V116.781H49.0547V118.188H46.7734V119.125C46.7734 121.508 47.625 123.898 49.6484 125.062L48.6172 126.344C47.3125 125.57 46.4453 124.227 45.9531 122.617C45.4531 124.359 44.5547 125.844 43.2266 126.672L42.1641 125.375ZM48.0234 121.594V120.188H50.0547V115.531H51.6953V128.703H50.0547V121.594H48.0234ZM69.1172 121.953V123.344H63.5234V124.703H67.5547V129.219H57.7578V124.703H61.8047V123.344H56.2422V121.953H69.1172ZM57.3984 117.078V115.688H67.9297V117.078H65.9922V119.5H67.8516V120.906H57.4766V119.5H59.3359V117.078H57.3984ZM59.4766 127.812H65.8672V126.047H59.4766V127.812ZM61.0703 119.5H64.2422V117.078H61.0703V119.5ZM77.7891 115.891C79.6172 115.883 81.0547 116.938 81.4062 118.484H83.9609V115.266H85.6953V122.844H83.9609V119.891H81.4219C81.0859 121.477 79.6328 122.547 77.7891 122.547C75.625 122.547 74.0547 121.156 74.0547 119.203C74.0547 117.273 75.625 115.883 77.7891 115.891ZM75.7109 119.203C75.7109 120.336 76.5703 121.086 77.7891 121.078C78.9766 121.086 79.8281 120.336 79.8359 119.203C79.8281 118.07 78.9766 117.336 77.7891 117.344C76.5703 117.336 75.7109 118.07 75.7109 119.203ZM76.3828 129.219V123.5H78.1016V125H83.9609V123.5H85.6953V129.219H76.3828ZM78.1016 127.812H83.9609V126.344H78.1016V127.812ZM100.602 126.312V127.75H87.6953V126.312H93.2578V124.016H89.2266V119.391H97.3516V117.641H89.1953V116.234H99.0703V120.766H90.9609V122.594H99.3984V124.016H94.9766V126.312H100.602ZM108.664 116.547V117.969H103.961V124.547C106.172 124.531 107.727 124.438 109.477 124.109L109.664 125.516C107.68 125.906 105.969 125.984 103.336 125.984H102.211V116.547H108.664ZM107.914 121.656V120.234H111.648V115.266H113.383V129.406H111.648V121.656H107.914Z" fill="#E4E7EC"/>
<g clip-path="url(#clip0_1864_7299)">
<path d="M119.02 49.0005C119.02 75.5258 97.5258 97.0205 71.0005 97.0205C44.4751 97.0205 22.9805 75.5258 22.9805 49.0005C22.9805 22.4751 44.4751 0.980469 71.0005 0.980469C97.5258 0.980469 119.02 22.4751 119.02 49.0005Z" fill="#E4E7EC"/>
<g clip-path="url(#clip1_1864_7299)">
<path d="M71.1171 27.3096C65.5318 27.3096 60.9803 31.8515 60.9803 37.4195V42.463H60.7973C58.1304 42.463 55.9805 44.6063 55.9805 47.2649V63.0431C55.9805 65.7017 58.1304 67.8449 60.7973 67.8449H81.4415C84.1083 67.8449 86.2583 65.7017 86.2583 63.0431V47.2649C86.2583 44.6063 84.1083 42.463 81.4415 42.463H81.2585V37.4195C81.2585 31.8515 76.7024 27.3096 71.1171 27.3096ZM71.1171 31.0079C74.7126 31.0079 77.5487 33.8352 77.5487 37.4195V42.463H64.6855V37.4195C64.6855 33.8352 67.5216 31.0079 71.1171 31.0079ZM71.1171 48.5828C73.0017 48.5828 74.5296 50.1059 74.5296 51.9847C74.5296 53.3755 73.6787 54.625 72.3842 55.1403V60.1474C72.3842 60.8451 71.8215 61.4105 71.1171 61.4105C70.4172 61.4105 69.85 60.8496 69.85 60.1474V55.1403C68.5554 54.625 67.7046 53.3755 67.7046 51.9847C67.7046 51.0817 68.066 50.2153 68.7064 49.5769C69.3422 48.943 70.2114 48.5828 71.1171 48.5828Z" fill="#F9FAFB"/>
</g>
</g>
<defs>
<clipPath id="clip0_1864_7299">
<rect width="98" height="98" fill="white" transform="translate(22)"/>
</clipPath>
<clipPath id="clip1_1864_7299">
<rect width="30.2733" height="40.5354" fill="white" transform="translate(55.9785 27.3096)"/>
</clipPath>
</defs>
</svg>
