<svg width="142" height="142" viewBox="0 0 142 142" fill="none" xmlns="http://www.w3.org/2000/svg">
<path d="M32.25 122.828V125.117C33.4766 125.047 34.7109 124.938 35.875 124.766L36.0156 126.047C32.8516 126.633 29.4609 126.664 26.9688 126.656L26.75 125.25C27.8516 125.242 29.1484 125.234 30.5156 125.195V122.828H32.25ZM27.0781 121.969C29.2031 121.383 30.375 119.984 30.4766 118.406H27.5V117H30.5156V115.391H32.25V117H35.2969V118.406H32.2734C32.3672 119.914 33.5625 121.266 35.6875 121.812L34.8906 123.172C33.2188 122.719 32.0234 121.742 31.3828 120.492C30.7656 121.805 29.5859 122.828 27.9062 123.281L27.0781 121.969ZM36.7188 129.406V115.266H38.4531V129.406H36.7188ZM53.4219 126.234V127.641H40.5156V126.234H46.0469V122.969H47.7656V126.234H53.4219ZM40.8906 121.875C43.8438 121.398 45.9609 119.281 45.9688 117.156V116.125H47.8125V117.156C47.8125 119.289 49.9453 121.398 52.9219 121.875L52.1719 123.312C49.7891 122.859 47.8281 121.492 46.8906 119.641C45.9609 121.484 44.0234 122.867 41.6406 123.312L40.8906 121.875ZM61.5312 115.797V117.328H67.625V115.797H69.3438V121.531H65.4375V122.828H71.0156V124.234H58.1406V122.828H63.6875V121.531H59.8125V115.797H61.5312ZM59.7344 129.109V125.141H61.4688V127.703H69.5625V129.109H59.7344ZM61.5312 120.141H67.625V118.672H61.5312V120.141ZM77.0156 118.656C77 121.18 78.2656 123.727 80.4531 124.781L79.3906 126.172C77.8594 125.398 76.7578 123.906 76.1562 122.109C75.5391 124.031 74.3828 125.625 72.7656 126.438L71.7031 125.047C73.9766 123.969 75.2734 121.266 75.2812 118.656V116.406H77.0156V118.656ZM81.2969 129.391V115.266H83.0312V120.797H85.2031V122.281H83.0312V129.391H81.2969ZM94.9531 117.719C94.9531 119.461 96.1562 121.203 98.4062 121.906L97.5156 123.25C95.9141 122.734 94.75 121.672 94.1016 120.328C93.4688 121.789 92.2656 122.953 90.5938 123.516L89.7031 122.172C91.9766 121.406 93.1875 119.57 93.2031 117.719V117.547H90.1562V116.156H97.9219V117.547H94.9531V117.719ZM91.7188 125.844V124.438H101.359V129.391H99.6094V125.844H91.7188ZM99.6094 123.781V115.266H101.359V123.781H99.6094ZM115.266 115.281V125.969H113.516V124.734H110.75V123.516H113.516V115.281H115.266ZM103.359 121.625C105.961 121.609 109.469 121.586 112.469 121.203L112.562 122.453C111.398 122.648 110.195 122.773 109 122.859V125.578H107.266V122.953C105.945 123.008 104.688 123.016 103.578 123.016L103.359 121.625ZM104.438 118.297C104.438 116.805 105.875 115.789 107.969 115.797C110.023 115.789 111.469 116.805 111.484 118.297C111.469 119.812 110.023 120.773 107.969 120.781C105.875 120.773 104.438 119.812 104.438 118.297ZM105.234 129.109V124.938H106.969V127.703H115.594V129.109H105.234ZM106.078 118.297C106.078 119.062 106.836 119.508 107.969 119.516C109.047 119.508 109.82 119.062 109.828 118.297C109.82 117.531 109.047 117.07 107.969 117.078C106.836 117.07 106.078 117.531 106.078 118.297Z" fill="#E4E7EC"/>
<g clip-path="url(#clip0_1864_7311)">
<path d="M119.02 49.0005C119.02 75.5258 97.5258 97.0205 71.0005 97.0205C44.4751 97.0205 22.9805 75.5258 22.9805 49.0005C22.9805 22.4751 44.4751 0.980469 71.0005 0.980469C97.5258 0.980469 119.02 22.4751 119.02 49.0005Z" fill="#E4E7EC"/>
<g clip-path="url(#clip1_1864_7311)">
<path d="M71.1171 27.3096C65.5318 27.3096 60.9803 31.8515 60.9803 37.4195V42.463H60.7973C58.1304 42.463 55.9805 44.6063 55.9805 47.2649V63.0431C55.9805 65.7017 58.1304 67.8449 60.7973 67.8449H81.4415C84.1083 67.8449 86.2583 65.7017 86.2583 63.0431V47.2649C86.2583 44.6063 84.1083 42.463 81.4415 42.463H81.2585V37.4195C81.2585 31.8515 76.7024 27.3096 71.1171 27.3096ZM71.1171 31.0079C74.7126 31.0079 77.5487 33.8352 77.5487 37.4195V42.463H64.6855V37.4195C64.6855 33.8352 67.5216 31.0079 71.1171 31.0079ZM71.1171 48.5828C73.0017 48.5828 74.5296 50.1059 74.5296 51.9847C74.5296 53.3755 73.6787 54.625 72.3842 55.1403V60.1474C72.3842 60.8451 71.8215 61.4105 71.1171 61.4105C70.4172 61.4105 69.85 60.8496 69.85 60.1474V55.1403C68.5554 54.625 67.7046 53.3755 67.7046 51.9847C67.7046 51.0817 68.066 50.2153 68.7064 49.5769C69.3422 48.943 70.2114 48.5828 71.1171 48.5828Z" fill="#F9FAFB"/>
</g>
</g>
<defs>
<clipPath id="clip0_1864_7311">
<rect width="98" height="98" fill="white" transform="translate(22)"/>
</clipPath>
<clipPath id="clip1_1864_7311">
<rect width="30.2733" height="40.5354" fill="white" transform="translate(55.9785 27.3096)"/>
</clipPath>
</defs>
</svg>
