<svg width="142" height="142" viewBox="0 0 142 142" fill="none" xmlns="http://www.w3.org/2000/svg">
<path d="M34.0234 116.734V121.922H30.6797V124.57C32.1328 124.555 33.5156 124.492 35.1172 124.203L35.2578 125.625C33.3594 125.977 31.7656 126.008 29.9922 126.016H29.0078V120.547H32.3516V118.125H28.9922V116.734H34.0234ZM34.6484 121.594V120.172H36.1953V115.562H37.8359V128.672H36.1953V121.594H34.6484ZM39.0859 129.391V115.266H40.7422V129.391H39.0859ZM47.7578 118.656C47.7422 121.25 49.1094 123.844 51.3984 124.828L50.3672 126.219C48.7422 125.469 47.5547 123.977 46.8984 122.133C46.25 124.117 45.0312 125.742 43.3203 126.547L42.2578 125.094C44.6094 124.078 45.9844 121.383 45.9922 118.656V116.406H47.7578V118.656ZM52.4141 129.406V115.266H54.1641V129.406H52.4141ZM68.0391 115.266V129.391H66.2891V115.266H68.0391ZM56.2109 124.625C56.7578 124.625 57.3438 124.617 57.9609 124.609V118.062H56.5859V116.641H64.6016V118.062H63.2422V124.398C63.9141 124.344 64.5859 124.281 65.2266 124.203L65.3203 125.5C62.2891 125.992 58.9844 126.047 56.3828 126.047L56.2109 124.625ZM59.6328 124.578C60.2578 124.562 60.8984 124.539 61.5391 124.5V118.062H59.6328V124.578ZM81.0547 116.641V125.891H74.3672V116.641H81.0547ZM76.0703 124.5H79.3203V118H76.0703V124.5ZM83.1953 129.391V115.266H84.9297V120.688H87.1016V122.156H84.9297V129.391H83.1953ZM99.4766 115.266V129.391H97.7578V115.266H99.4766ZM88.5078 125.844V116.641H90.2266V124.359C92.2031 124.328 94.3125 124.156 96.4922 123.719L96.7109 125.172C94.2266 125.688 91.9219 125.852 89.7266 125.844H88.5078ZM105.32 116.297C107.445 116.297 108.977 118.234 108.992 121.281C108.977 124.352 107.445 126.281 105.32 126.281C103.172 126.281 101.641 124.352 101.648 121.281C101.641 118.234 103.172 116.297 105.32 116.297ZM103.32 121.281C103.312 123.453 104.133 124.711 105.32 124.719C106.516 124.711 107.312 123.453 107.32 121.281C107.312 119.125 106.516 117.859 105.32 117.859C104.133 117.859 103.312 119.125 103.32 121.281ZM110.852 129.391V115.266H112.586V120.688H114.758V122.156H112.586V129.391H110.852Z" fill="#E4E7EC"/>
<g clip-path="url(#clip0_1864_7295)">
<path d="M119.02 49.0005C119.02 75.5258 97.5258 97.0205 71.0005 97.0205C44.4751 97.0205 22.9805 75.5258 22.9805 49.0005C22.9805 22.4751 44.4751 0.980469 71.0005 0.980469C97.5258 0.980469 119.02 22.4751 119.02 49.0005Z" fill="#E4E7EC"/>
<g clip-path="url(#clip1_1864_7295)">
<path d="M71.1171 27.3096C65.5318 27.3096 60.9803 31.8515 60.9803 37.4195V42.463H60.7973C58.1304 42.463 55.9805 44.6063 55.9805 47.2649V63.0431C55.9805 65.7017 58.1304 67.8449 60.7973 67.8449H81.4415C84.1083 67.8449 86.2583 65.7017 86.2583 63.0431V47.2649C86.2583 44.6063 84.1083 42.463 81.4415 42.463H81.2585V37.4195C81.2585 31.8515 76.7024 27.3096 71.1171 27.3096ZM71.1171 31.0079C74.7126 31.0079 77.5487 33.8352 77.5487 37.4195V42.463H64.6855V37.4195C64.6855 33.8352 67.5216 31.0079 71.1171 31.0079ZM71.1171 48.5828C73.0017 48.5828 74.5296 50.1059 74.5296 51.9847C74.5296 53.3755 73.6787 54.625 72.3842 55.1403V60.1474C72.3842 60.8451 71.8215 61.4105 71.1171 61.4105C70.4172 61.4105 69.85 60.8496 69.85 60.1474V55.1403C68.5554 54.625 67.7046 53.3755 67.7046 51.9847C67.7046 51.0817 68.066 50.2153 68.7064 49.5769C69.3422 48.943 70.2114 48.5828 71.1171 48.5828Z" fill="#F9FAFB"/>
</g>
</g>
<defs>
<clipPath id="clip0_1864_7295">
<rect width="98" height="98" fill="white" transform="translate(22)"/>
</clipPath>
<clipPath id="clip1_1864_7295">
<rect width="30.2733" height="40.5354" fill="white" transform="translate(55.9785 27.3096)"/>
</clipPath>
</defs>
</svg>
