<svg width="142" height="142" viewBox="0 0 142 142" fill="none" xmlns="http://www.w3.org/2000/svg">
<path d="M39.4531 116.609V118.016H37.5781V124.391C38.2109 124.367 38.7969 124.305 39.4531 124.156L39.6406 125.594C38.5781 125.82 37.6875 125.836 36.5312 125.828H35.8594V116.609H39.4531ZM40.1719 125.828V116.609H44.0312V118.016H41.9062V124.398C42.9062 124.383 43.6641 124.32 44.5156 124.125L44.6562 125.531C43.5 125.812 42.5391 125.836 40.9375 125.828H40.1719ZM43.4062 121.688V120.281H45.7656V115.266H47.5V129.391H45.7656V121.688H43.4062ZM55.75 116.062C58.7812 116.07 61.0234 117.578 61.0156 119.875C61.0234 121.992 59.2031 123.406 56.6094 123.664V126.25H62.2344V127.672H49.3281V126.25H54.8906V123.664C52.3281 123.406 50.5078 121.992 50.5156 119.875C50.5078 117.578 52.7422 116.07 55.75 116.062ZM52.2188 119.875C52.2109 121.398 53.6875 122.312 55.75 122.312C57.8438 122.312 59.3125 121.398 59.3125 119.875C59.3125 118.398 57.8438 117.461 55.75 117.469C53.6875 117.461 52.2109 118.398 52.2188 119.875ZM76.0625 126.297V127.719H63.1562V126.297H76.0625ZM64.6562 117.672V116.266H74.5312V120.812H66.4219V122.656H74.8594V124.031H64.6875V119.422H72.8125V117.672H64.6562ZM88.4219 119.266V120.641H78.6406V115.781H80.3594V119.266H88.4219ZM76.9688 123.656V122.281H89.875V123.656H76.9688ZM78.5156 129.062V124.906H80.25V127.656H88.5156V129.062H78.5156ZM106.438 115.266V122.562H104.703V121.031H101.859V122.109H95.25V115.891H96.9844V117.672H100.141V115.891H101.859V117.141H104.703V115.266H106.438ZM96.9844 120.734H100.141V119H96.9844V120.734ZM97.125 124.5V123.141H106.438V126.766H98.875V127.844H106.891V129.219H97.1406V125.484H104.703V124.5H97.125ZM101.859 119.703H104.703V118.453H101.859V119.703Z" fill="#E4E7EC"/>
<g clip-path="url(#clip0_1864_7318)">
<path d="M119.02 49.0005C119.02 75.5258 97.5258 97.0205 71.0005 97.0205C44.4751 97.0205 22.9805 75.5258 22.9805 49.0005C22.9805 22.4751 44.4751 0.980469 71.0005 0.980469C97.5258 0.980469 119.02 22.4751 119.02 49.0005Z" fill="#E4E7EC"/>
<g clip-path="url(#clip1_1864_7318)">
<path d="M71.1171 27.3096C65.5318 27.3096 60.9803 31.8515 60.9803 37.4195V42.463H60.7973C58.1304 42.463 55.9805 44.6063 55.9805 47.2649V63.0431C55.9805 65.7017 58.1304 67.8449 60.7973 67.8449H81.4415C84.1083 67.8449 86.2583 65.7017 86.2583 63.0431V47.2649C86.2583 44.6063 84.1083 42.463 81.4415 42.463H81.2585V37.4195C81.2585 31.8515 76.7024 27.3096 71.1171 27.3096ZM71.1171 31.0079C74.7126 31.0079 77.5487 33.8352 77.5487 37.4195V42.463H64.6855V37.4195C64.6855 33.8352 67.5216 31.0079 71.1171 31.0079ZM71.1171 48.5828C73.0017 48.5828 74.5296 50.1059 74.5296 51.9847C74.5296 53.3755 73.6787 54.625 72.3842 55.1403V60.1474C72.3842 60.8451 71.8215 61.4105 71.1171 61.4105C70.4172 61.4105 69.85 60.8496 69.85 60.1474V55.1403C68.5554 54.625 67.7046 53.3755 67.7046 51.9847C67.7046 51.0817 68.066 50.2153 68.7064 49.5769C69.3422 48.943 70.2114 48.5828 71.1171 48.5828Z" fill="#F9FAFB"/>
</g>
</g>
<defs>
<clipPath id="clip0_1864_7318">
<rect width="98" height="98" fill="white" transform="translate(22)"/>
</clipPath>
<clipPath id="clip1_1864_7318">
<rect width="30.2733" height="40.5354" fill="white" transform="translate(55.9785 27.3096)"/>
</clipPath>
</defs>
</svg>
