<svg width="142" height="142" viewBox="0 0 142 142" fill="none" xmlns="http://www.w3.org/2000/svg">
<path d="M16.3047 128V126.531L20.3047 122.672C21.4453 121.531 22.0391 120.859 22.0391 119.906C22.0391 118.852 21.2031 118.188 20.1016 118.188C18.9375 118.188 18.1875 118.914 18.1953 120.062H16.2578C16.25 117.922 17.8594 116.531 20.1172 116.531C22.4297 116.531 23.9844 117.914 23.9922 119.812C23.9844 121.086 23.375 122.117 21.1484 124.219L19.1328 126.219V126.297H24.1641V128H16.3047ZM25.4922 125.891V124.266L30.3828 116.688H32.9141V124.219H34.3984V125.891H32.9141V128H30.9766V125.891H25.4922ZM27.5703 124.219H31.0078V119H30.8828L27.5703 124.141V124.219ZM40.6484 116.156L37.0078 129.703H35.2578L38.9141 116.156H40.6484ZM42.1797 128L47.0859 118.469V118.391H41.3984V116.688H49.1953V118.422L44.2891 128H42.1797ZM65.9922 115.266V125.703H64.2578V122.016H62.2578V120.578H64.2578V119.234H62.2578V117.828H64.2578V115.266H65.9922ZM54.1797 122.406C54.6719 122.406 55.2109 122.406 55.7734 122.398V117.719H54.5391V116.328H62.0547V117.719H60.8047V122.234C61.3359 122.195 61.8516 122.148 62.3516 122.094L62.4297 123.359C59.75 123.789 56.6172 123.844 54.3672 123.844L54.1797 122.406ZM56.7109 129.109V124.891H58.4609V127.703H66.3516V129.109H56.7109ZM57.4609 122.375C58.0078 122.367 58.5703 122.344 59.1328 122.32V117.719H57.4609V122.375ZM72.5703 116.25C74.8125 116.242 76.4453 117.656 76.4609 119.656C76.4453 121.664 74.8125 123.07 72.5703 123.078C70.3516 123.07 68.6875 121.664 68.6953 119.656C68.6875 117.656 70.3516 116.242 72.5703 116.25ZM68.0547 125.031C70.6016 125.031 74.125 125 77.1797 124.562L77.3203 125.828C74.1562 126.43 70.7656 126.453 68.2734 126.453L68.0547 125.031ZM70.4141 119.656C70.4062 120.836 71.3359 121.562 72.5703 121.562C73.8203 121.562 74.75 120.836 74.7578 119.656C74.75 118.484 73.8281 117.75 72.5703 117.75C71.3359 117.75 70.4062 118.484 70.4141 119.656ZM78.0234 129.406V115.266H79.7578V129.406H78.0234ZM93.6484 115.266V123.469H91.9141V120.047H89.4766V118.625H91.9141V115.266H93.6484ZM81.7891 122.062C84.0391 121.32 85.2422 119.445 85.2422 117.578V117.469H82.3047V116.062H89.9297V117.469H87.0078V117.594C87.0078 119.289 88.1484 121.039 90.3359 121.781L89.4609 123.156C87.8828 122.617 86.7656 121.539 86.1484 120.203C85.5234 121.688 84.3516 122.867 82.6797 123.422L81.7891 122.062ZM84.2578 129.219V124.078H93.6484V129.219H84.2578ZM85.9922 127.812H91.9453V125.453H85.9922V127.812ZM111.273 115.266V129.406H109.539V121.891H107.117V120.469H109.539V115.266H111.273ZM99.9141 117.906V116.5H106.305V121.672H101.68V124.641C103.781 124.633 105.469 124.562 107.367 124.219L107.508 125.641C105.406 126.008 103.516 126.086 101.086 126.094H99.9609V120.266H104.602V117.906H99.9141ZM125.117 115.266V129.406H123.398V121.75H120.523V125.984H113.805V116.359H115.555V119.875H118.82V116.359H120.523V120.328H123.398V115.266H125.117ZM115.555 124.594H118.82V121.234H115.555V124.594Z" fill="#E4E7EC"/>
<g clip-path="url(#clip0_1545_9502)">
<path d="M119.02 49.0005C119.02 75.5258 97.5258 97.0205 71.0005 97.0205C44.4751 97.0205 22.9805 75.5258 22.9805 49.0005C22.9805 22.4751 44.4751 0.980469 71.0005 0.980469C97.5258 0.980469 119.02 22.4751 119.02 49.0005Z" fill="#E4E7EC"/>
<g clip-path="url(#clip1_1545_9502)">
<path d="M71.1171 27.3096C65.5318 27.3096 60.9803 31.8515 60.9803 37.4195V42.463H60.7973C58.1304 42.463 55.9805 44.6063 55.9805 47.2649V63.0431C55.9805 65.7017 58.1304 67.8449 60.7973 67.8449H81.4415C84.1083 67.8449 86.2583 65.7017 86.2583 63.0431V47.2649C86.2583 44.6063 84.1083 42.463 81.4415 42.463H81.2585V37.4195C81.2585 31.8515 76.7024 27.3096 71.1171 27.3096ZM71.1171 31.0079C74.7126 31.0079 77.5487 33.8352 77.5487 37.4195V42.463H64.6855V37.4195C64.6855 33.8352 67.5216 31.0079 71.1171 31.0079ZM71.1171 48.5828C73.0017 48.5828 74.5296 50.1059 74.5296 51.9847C74.5296 53.3755 73.6787 54.625 72.3842 55.1403V60.1474C72.3842 60.8451 71.8215 61.4105 71.1171 61.4105C70.4172 61.4105 69.85 60.8496 69.85 60.1474V55.1403C68.5554 54.625 67.7046 53.3755 67.7046 51.9847C67.7046 51.0817 68.066 50.2153 68.7064 49.5769C69.3422 48.943 70.2114 48.5828 71.1171 48.5828Z" fill="#F9FAFB"/>
</g>
</g>
<defs>
<clipPath id="clip0_1545_9502">
<rect width="98" height="98" fill="white" transform="translate(22)"/>
</clipPath>
<clipPath id="clip1_1545_9502">
<rect width="30.2733" height="40.5354" fill="white" transform="translate(55.9785 27.3096)"/>
</clipPath>
</defs>
</svg>
