<svg width="142" height="142" viewBox="0 0 142 142" fill="none" xmlns="http://www.w3.org/2000/svg">
<path d="M37.7266 117.578C37.7188 119.25 38.8516 120.875 41.0859 121.531L40.2578 122.875C38.6406 122.391 37.5 121.391 36.8672 120.117C36.2422 121.531 35.0547 122.641 33.3516 123.172L32.4766 121.797C34.7578 121.102 35.9609 119.391 35.9766 117.609V117.516H32.9766V116.109H40.6484V117.516H37.7266V117.578ZM34.6641 129.219V123.625H36.3984V125.078H42.0859V123.625H43.8203V129.219H34.6641ZM36.3984 127.812H42.0859V126.422H36.3984V127.812ZM42.0859 123.031V115.266H43.8203V118.359H45.7891V119.797H43.8203V123.031H42.0859ZM50.4766 116.047C52.6484 116.047 54.2734 117.43 54.2891 119.422C54.2734 121.414 52.6484 122.812 50.4766 122.812C48.2969 122.812 46.6562 121.414 46.6641 119.422C46.6562 117.43 48.2969 116.047 50.4766 116.047ZM46.9609 127.938C48.7812 127.281 49.6875 125.82 49.6953 124.422V123.812H51.3672V124.422C51.3516 125.617 51.8906 126.844 53.1016 127.648C54.3281 126.797 54.8828 125.492 54.8984 124.422V123.812H56.5859V124.422C56.5938 125.922 57.4609 127.312 59.3203 127.938L58.4609 129.219C57.1016 128.727 56.1953 127.812 55.7109 126.68C55.2578 127.805 54.4297 128.82 53.1328 129.344C51.8047 128.836 50.9688 127.867 50.5156 126.734C50.0156 127.828 49.1172 128.734 47.8203 129.219L46.9609 127.938ZM48.3672 119.422C48.3594 120.609 49.2656 121.344 50.4766 121.344C51.6797 121.344 52.5781 120.609 52.5859 119.422C52.5781 118.273 51.6797 117.5 50.4766 117.5C49.2578 117.5 48.3594 118.273 48.3672 119.422ZM55.9141 123.203V115.266H57.6484V118.438H59.6172V119.844H57.6484V123.203H55.9141ZM71.3984 115.266V120.625H73.5703V122.047H71.3984V129.406H69.6641V115.266H71.3984ZM60.9141 125.953V116.609H67.5234V118.016H62.6484V124.5C64.8438 124.492 66.5859 124.383 68.5234 124.047L68.7266 125.516C66.5312 125.891 64.6328 125.953 62.0859 125.953H60.9141ZM90.8672 126.25V127.672H77.9609V126.25H80.9453V122.68C79.8203 122.031 79.1406 121.016 79.1484 119.766C79.1406 117.516 81.3438 116.031 84.3828 116.031C87.4375 116.031 89.6562 117.516 89.6484 119.766C89.6562 121 88.9922 121.992 87.8984 122.641V126.25H90.8672ZM80.8516 119.766C80.8438 121.211 82.2734 122.133 84.3828 122.125C86.4844 122.133 87.9453 121.211 87.9453 119.766C87.9453 118.297 86.4844 117.398 84.3828 117.406C82.2734 117.398 80.8438 118.297 80.8516 119.766ZM82.6641 126.25H86.1328V123.305C85.5938 123.422 85.0078 123.484 84.3828 123.484C83.7734 123.484 83.1953 123.422 82.6641 123.312V126.25ZM103.211 118.859V120.266H99.0859V121.812H104.68V123.219H91.7891V121.812H97.3672V120.266H93.4609V115.5H95.1953V118.859H103.211ZM93.4141 129.219V124.312H103.07V129.219H93.4141ZM95.1016 127.812H101.383V125.688H95.1016V127.812ZM108.523 116.688L108.352 124.672H106.586L106.398 116.688H108.523ZM106.258 126.906C106.25 126.25 106.805 125.711 107.477 125.703C108.125 125.711 108.68 126.25 108.68 126.906C108.68 127.578 108.125 128.125 107.477 128.125C106.805 128.125 106.25 127.578 106.258 126.906Z" fill="#E4E7EC"/>
<g clip-path="url(#clip0_1864_7302)">
<path d="M119.02 49.0005C119.02 75.5258 97.5258 97.0205 71.0005 97.0205C44.4751 97.0205 22.9805 75.5258 22.9805 49.0005C22.9805 22.4751 44.4751 0.980469 71.0005 0.980469C97.5258 0.980469 119.02 22.4751 119.02 49.0005Z" fill="#E4E7EC"/>
<g clip-path="url(#clip1_1864_7302)">
<path d="M71.1171 27.3096C65.5318 27.3096 60.9803 31.8515 60.9803 37.4195V42.463H60.7973C58.1304 42.463 55.9805 44.6063 55.9805 47.2649V63.0431C55.9805 65.7017 58.1304 67.8449 60.7973 67.8449H81.4415C84.1083 67.8449 86.2583 65.7017 86.2583 63.0431V47.2649C86.2583 44.6063 84.1083 42.463 81.4415 42.463H81.2585V37.4195C81.2585 31.8515 76.7024 27.3096 71.1171 27.3096ZM71.1171 31.0079C74.7126 31.0079 77.5487 33.8352 77.5487 37.4195V42.463H64.6855V37.4195C64.6855 33.8352 67.5216 31.0079 71.1171 31.0079ZM71.1171 48.5828C73.0017 48.5828 74.5296 50.1059 74.5296 51.9847C74.5296 53.3755 73.6787 54.625 72.3842 55.1403V60.1474C72.3842 60.8451 71.8215 61.4105 71.1171 61.4105C70.4172 61.4105 69.85 60.8496 69.85 60.1474V55.1403C68.5554 54.625 67.7046 53.3755 67.7046 51.9847C67.7046 51.0817 68.066 50.2153 68.7064 49.5769C69.3422 48.943 70.2114 48.5828 71.1171 48.5828Z" fill="#F9FAFB"/>
</g>
</g>
<defs>
<clipPath id="clip0_1864_7302">
<rect width="98" height="98" fill="white" transform="translate(22)"/>
</clipPath>
<clipPath id="clip1_1864_7302">
<rect width="30.2733" height="40.5354" fill="white" transform="translate(55.9785 27.3096)"/>
</clipPath>
</defs>
</svg>
