<svg width="142" height="142" viewBox="0 0 142 142" fill="none" xmlns="http://www.w3.org/2000/svg">
<path d="M39.8203 116.641V118.234C39.8203 120.125 39.8203 122.07 39.3047 125.047L37.5391 124.891C38.0859 122.117 38.0859 120.07 38.0859 118.234V118.047H29.9453V116.641H39.8203ZM28.5859 127.453V126.031H41.4609V127.453H28.5859ZM55.3203 126.297V127.719H42.4141V126.297H55.3203ZM43.9141 117.672V116.266H53.7891V120.812H45.6797V122.656H54.1172V124.031H43.9453V119.422H52.0703V117.672H43.9141ZM69.1484 126.297V127.719H56.2422V126.297H69.1484ZM57.7422 117.672V116.266H67.6172V120.812H59.5078V122.656H67.9453V124.031H57.7734V119.422H65.8984V117.672H57.7422ZM81.2109 115.281V118.297H83.1953V119.719H81.2109V122.734H79.4766V115.281H81.2109ZM70.0234 121.469C73.4844 120.75 75.1953 119.203 75.4219 117.328H70.7266V115.922H77.3672C77.3594 119.625 74.9766 121.945 70.6797 122.891L70.0234 121.469ZM71.3984 124.641V123.359H76.1172V126.844H73.1328V127.938C75.0625 127.938 75.9609 127.883 77.0234 127.641L77.1953 128.938C75.9453 129.219 74.9297 129.242 72.3359 129.234H71.4297V125.625H74.4297V124.641H71.3984ZM76.7266 124.703V123.359H81.2109V129.297H79.4922V124.703H76.7266ZM100.602 126.234V127.688H87.6953V126.234H100.602ZM88.7578 117.969V116.578H99.4766V117.969H97.4141V122.469H99.4297V123.844H88.8047V122.469H90.7891V117.969H88.7578ZM92.5234 122.469H95.6953V117.969H92.5234V122.469ZM114.43 126.312V127.75H101.523V126.312H107.086V124.016H103.055V119.391H111.18V117.641H103.023V116.234H112.898V120.766H104.789V122.594H113.227V124.016H108.805V126.312H114.43Z" fill="#E4E7EC"/>
<g clip-path="url(#clip0_1864_7334)">
<path d="M119.02 49.0005C119.02 75.5258 97.5258 97.0205 71.0005 97.0205C44.4751 97.0205 22.9805 75.5258 22.9805 49.0005C22.9805 22.4751 44.4751 0.980469 71.0005 0.980469C97.5258 0.980469 119.02 22.4751 119.02 49.0005Z" fill="#E4E7EC"/>
<g clip-path="url(#clip1_1864_7334)">
<path d="M71.1171 27.3096C65.5318 27.3096 60.9803 31.8515 60.9803 37.4195V42.463H60.7973C58.1304 42.463 55.9805 44.6063 55.9805 47.2649V63.0431C55.9805 65.7017 58.1304 67.8449 60.7973 67.8449H81.4415C84.1083 67.8449 86.2583 65.7017 86.2583 63.0431V47.2649C86.2583 44.6063 84.1083 42.463 81.4415 42.463H81.2585V37.4195C81.2585 31.8515 76.7024 27.3096 71.1171 27.3096ZM71.1171 31.0079C74.7126 31.0079 77.5487 33.8352 77.5487 37.4195V42.463H64.6855V37.4195C64.6855 33.8352 67.5216 31.0079 71.1171 31.0079ZM71.1171 48.5828C73.0017 48.5828 74.5296 50.1059 74.5296 51.9847C74.5296 53.3755 73.6787 54.625 72.3842 55.1403V60.1474C72.3842 60.8451 71.8215 61.4105 71.1171 61.4105C70.4172 61.4105 69.85 60.8496 69.85 60.1474V55.1403C68.5554 54.625 67.7046 53.3755 67.7046 51.9847C67.7046 51.0817 68.066 50.2153 68.7064 49.5769C69.3422 48.943 70.2114 48.5828 71.1171 48.5828Z" fill="#F9FAFB"/>
</g>
</g>
<defs>
<clipPath id="clip0_1864_7334">
<rect width="98" height="98" fill="white" transform="translate(22)"/>
</clipPath>
<clipPath id="clip1_1864_7334">
<rect width="30.2733" height="40.5354" fill="white" transform="translate(55.9785 27.3096)"/>
</clipPath>
</defs>
</svg>
