<svg width="142" height="142" viewBox="0 0 142 142" fill="none" xmlns="http://www.w3.org/2000/svg">
<path d="M55.0469 116.641V118.234C55.0469 120.125 55.0469 122.07 54.5312 125.047L52.7656 124.891C53.3125 122.117 53.3125 120.07 53.3125 118.234V118.047H45.1719V116.641H55.0469ZM43.8125 127.453V126.031H56.6875V127.453H43.8125ZM70.5469 126.297V127.719H57.6406V126.297H70.5469ZM59.1406 117.672V116.266H69.0156V120.812H60.9062V122.656H69.3438V124.031H59.1719V119.422H67.2969V117.672H59.1406ZM84.375 126.297V127.719H71.4688V126.297H84.375ZM72.9688 117.672V116.266H82.8438V120.812H74.7344V122.656H83.1719V124.031H73V119.422H81.125V117.672H72.9688ZM96.4375 115.281V118.297H98.4219V119.719H96.4375V122.734H94.7031V115.281H96.4375ZM85.25 121.469C88.7109 120.75 90.4219 119.203 90.6484 117.328H85.9531V115.922H92.5938C92.5859 119.625 90.2031 121.945 85.9062 122.891L85.25 121.469ZM86.625 124.641V123.359H91.3438V126.844H88.3594V127.938C90.2891 127.938 91.1875 127.883 92.25 127.641L92.4219 128.938C91.1719 129.219 90.1562 129.242 87.5625 129.234H86.6562V125.625H89.6562V124.641H86.625ZM91.9531 124.703V123.359H96.4375V129.297H94.7188V124.703H91.9531Z" fill="#E4E7EC"/>
<g clip-path="url(#clip0_1864_7331)">
<path d="M119.02 49.0005C119.02 75.5258 97.5258 97.0205 71.0005 97.0205C44.4751 97.0205 22.9805 75.5258 22.9805 49.0005C22.9805 22.4751 44.4751 0.980469 71.0005 0.980469C97.5258 0.980469 119.02 22.4751 119.02 49.0005Z" fill="#E4E7EC"/>
<g clip-path="url(#clip1_1864_7331)">
<path d="M71.1171 27.3096C65.5318 27.3096 60.9803 31.8515 60.9803 37.4195V42.463H60.7973C58.1304 42.463 55.9805 44.6063 55.9805 47.2649V63.0431C55.9805 65.7017 58.1304 67.8449 60.7973 67.8449H81.4415C84.1083 67.8449 86.2583 65.7017 86.2583 63.0431V47.2649C86.2583 44.6063 84.1083 42.463 81.4415 42.463H81.2585V37.4195C81.2585 31.8515 76.7024 27.3096 71.1171 27.3096ZM71.1171 31.0079C74.7126 31.0079 77.5487 33.8352 77.5487 37.4195V42.463H64.6855V37.4195C64.6855 33.8352 67.5216 31.0079 71.1171 31.0079ZM71.1171 48.5828C73.0017 48.5828 74.5296 50.1059 74.5296 51.9847C74.5296 53.3755 73.6787 54.625 72.3842 55.1403V60.1474C72.3842 60.8451 71.8215 61.4105 71.1171 61.4105C70.4172 61.4105 69.85 60.8496 69.85 60.1474V55.1403C68.5554 54.625 67.7046 53.3755 67.7046 51.9847C67.7046 51.0817 68.066 50.2153 68.7064 49.5769C69.3422 48.943 70.2114 48.5828 71.1171 48.5828Z" fill="#F9FAFB"/>
</g>
</g>
<defs>
<clipPath id="clip0_1864_7331">
<rect width="98" height="98" fill="white" transform="translate(22)"/>
</clipPath>
<clipPath id="clip1_1864_7331">
<rect width="30.2733" height="40.5354" fill="white" transform="translate(55.9785 27.3096)"/>
</clipPath>
</defs>
</svg>
