<svg xmlns="http://www.w3.org/2000/svg" width="16" height="16" viewBox="0 0 16 16" fill="none">
  <path d="M8.00017 9.33333C7.83535 9.33333 7.67423 9.38221 7.53719 9.47377C7.40015 9.56534 7.29334 9.69549 7.23027 9.84776C7.16719 10 7.15069 10.1676 7.18285 10.3292C7.215 10.4909 7.29437 10.6394 7.41091 10.7559C7.52745 10.8725 7.67594 10.9518 7.83759 10.984C7.99924 11.0161 8.1668 10.9996 8.31907 10.9366C8.47134 10.8735 8.60149 10.7667 8.69306 10.6296C8.78463 10.4926 8.8335 10.3315 8.8335 10.1667C8.8335 9.94565 8.7457 9.73369 8.58942 9.57741C8.43314 9.42113 8.22118 9.33333 8.00017 9.33333ZM8.00017 8.33333C8.17698 8.33333 8.34655 8.26309 8.47157 8.13807C8.59659 8.01305 8.66683 7.84348 8.66683 7.66667V5.66667C8.66683 5.48985 8.59659 5.32029 8.47157 5.19526C8.34655 5.07024 8.17698 5 8.00017 5C7.82336 5 7.65379 5.07024 7.52876 5.19526C7.40374 5.32029 7.3335 5.48985 7.3335 5.66667V7.66667C7.3335 7.84348 7.40374 8.01305 7.52876 8.13807C7.65379 8.26309 7.82336 8.33333 8.00017 8.33333ZM8.00017 1.33333C6.68162 1.33333 5.39269 1.72433 4.29636 2.45687C3.20004 3.18941 2.34555 4.2306 1.84097 5.44878C1.33638 6.66695 1.20436 8.00739 1.4616 9.3006C1.71883 10.5938 2.35377 11.7817 3.28612 12.714C4.21847 13.6464 5.40636 14.2813 6.69956 14.5386C7.99277 14.7958 9.33322 14.6638 10.5514 14.1592C11.7696 13.6546 12.8108 12.8001 13.5433 11.7038C14.2758 10.6075 14.6668 9.31854 14.6668 8C14.6649 6.23248 13.9619 4.53792 12.7121 3.2881C11.4622 2.03828 9.76768 1.33527 8.00017 1.33333ZM8.00017 13.3333C6.94533 13.3333 5.91419 13.0205 5.03712 12.4345C4.16006 11.8485 3.47648 11.0155 3.07281 10.041C2.66914 9.06644 2.56352 7.99408 2.76931 6.95952C2.9751 5.92495 3.48305 4.97464 4.22893 4.22876C4.97481 3.48288 5.92512 2.97493 6.95968 2.76914C7.99425 2.56336 9.06661 2.66897 10.0411 3.07264C11.0157 3.47631 11.8486 4.1599 12.4347 5.03696C13.0207 5.91402 13.3335 6.94517 13.3335 8C13.3317 9.41395 12.7693 10.7695 11.7695 11.7693C10.7696 12.7691 9.41411 13.3316 8.00017 13.3333Z" fill="#F02826"/>
</svg>