<svg xmlns="http://www.w3.org/2000/svg" width="12" height="12" viewBox="0 0 12 12" fill="none">
  <path d="M10.65 5.04002C10.5095 4.87135 10.3337 4.73556 10.135 4.64226C9.93629 4.54895 9.71952 4.5004 9.5 4.50002H7.22L7.5 3.78502C7.61647 3.47196 7.65525 3.13532 7.61303 2.80398C7.57081 2.47264 7.44884 2.15649 7.25759 1.88264C7.06634 1.60879 6.81151 1.38542 6.51497 1.23169C6.21843 1.07797 5.88902 0.99847 5.555 1.00002C5.45882 1.00022 5.36474 1.02816 5.28404 1.08048C5.20333 1.13281 5.13943 1.2073 5.1 1.29502L3.675 4.50002H2.5C2.10218 4.50002 1.72064 4.65806 1.43934 4.93936C1.15804 5.22067 1 5.6022 1 6.00002V9.50002C1 9.89785 1.15804 10.2794 1.43934 10.5607C1.72064 10.842 2.10218 11 2.5 11H8.865C9.2159 10.9999 9.55566 10.8768 9.82516 10.652C10.0947 10.4273 10.2768 10.1152 10.34 9.77002L10.975 6.27002C11.0143 6.05371 11.0055 5.83141 10.9494 5.61886C10.8932 5.40631 10.791 5.2087 10.65 5.04002ZM3.5 10H2.5C2.36739 10 2.24021 9.94734 2.14645 9.85358C2.05268 9.75981 2 9.63263 2 9.50002V6.00002C2 5.86741 2.05268 5.74024 2.14645 5.64647C2.24021 5.5527 2.36739 5.50002 2.5 5.50002H3.5V10ZM10 6.09002L9.365 9.59002C9.3437 9.7065 9.28176 9.81164 9.19019 9.88672C9.09863 9.9618 8.98339 10.002 8.865 10H4.5V5.10502L5.86 2.04502C5.99999 2.08584 6.13 2.15523 6.24183 2.24881C6.35365 2.3424 6.44486 2.45816 6.5097 2.58877C6.57454 2.71938 6.61159 2.86202 6.61853 3.00767C6.62546 3.15333 6.60213 3.29884 6.55 3.43502L6.285 4.15002C6.22853 4.30115 6.20947 4.4637 6.22944 4.62379C6.2494 4.78388 6.30781 4.93676 6.39967 5.06939C6.49152 5.20202 6.61411 5.31046 6.75695 5.38544C6.8998 5.46043 7.05867 5.49974 7.22 5.50002H9.5C9.57345 5.4999 9.64604 5.51597 9.71258 5.54708C9.77912 5.57819 9.83799 5.62358 9.885 5.68002C9.93317 5.73568 9.96845 5.80129 9.98833 5.87217C10.0082 5.94304 10.0122 6.01743 10 6.09002Z" fill={color}/>
</svg>