<svg xmlns="http://www.w3.org/2000/svg" width="80" height="80" viewBox="0 0 80 80" fill="none">
  <path d="M6.66602 27.9242C6.66602 26.7564 6.66602 26.1726 6.71474 25.6808C7.18469 20.9376 10.9369 17.1854 15.6801 16.7155C16.1718 16.6667 16.7872 16.6667 18.018 16.6667C18.4922 16.6667 18.7293 16.6667 18.9306 16.6546C21.5014 16.4989 23.7525 14.8763 24.7132 12.4867C24.7884 12.2996 24.8587 12.0887 24.9993 11.6667C25.14 11.2448 25.2103 11.0339 25.2855 10.8468C26.2462 8.45716 28.4973 6.83463 31.0681 6.67894C31.2694 6.66675 31.4918 6.66675 31.9365 6.66675H48.0622C48.507 6.66675 48.7293 6.66675 48.9306 6.67894C51.5014 6.83463 53.7525 8.45716 54.7132 10.8468C54.7884 11.0339 54.8587 11.2448 54.9994 11.6667C55.14 12.0887 55.2103 12.2996 55.2855 12.4867C56.2462 14.8763 58.4973 16.4989 61.0681 16.6546C61.2694 16.6667 61.5065 16.6667 61.9807 16.6667C63.2115 16.6667 63.8269 16.6667 64.3187 16.7155C69.0618 17.1854 72.814 20.9376 73.284 25.6808C73.3327 26.1726 73.3327 26.7564 73.3327 27.9242V54.0001C73.3327 59.6006 73.3327 62.4009 72.2428 64.54C71.284 66.4216 69.7542 67.9514 67.8726 68.9101C65.7335 70.0001 62.9332 70.0001 57.3327 70.0001H22.666C17.0655 70.0001 14.2652 70.0001 12.1261 68.9101C10.2445 67.9514 8.71468 66.4216 7.75595 64.54C6.66602 62.4009 6.66602 59.6006 6.66602 54.0001V27.9242Z" stroke="#667085" stroke-width="4" stroke-linecap="round" stroke-linejoin="round"/>
  <path d="M39.9994 55.0001C47.3631 55.0001 53.3327 49.0305 53.3327 41.6667C53.3327 34.303 47.3631 28.3334 39.9994 28.3334C32.6356 28.3334 26.666 34.303 26.666 41.6667C26.666 49.0305 32.6356 55.0001 39.9994 55.0001Z" stroke="#667085" stroke-width="4" stroke-linecap="round" stroke-linejoin="round"/>
</svg>