<svg xmlns="http://www.w3.org/2000/svg" width="52" height="52" viewBox="0 0 52 52" fill="none">
  <path d="M8.95933 31.2591C8.84667 32.5909 9.423 32.9896 10.3258 33.6222C11.2184 34.2477 16.6568 29.481 18.4349 28.7559C20.213 28.0308 36.905 24.4962 36.1813 21.2693C35.4577 18.0424 30.4137 17.5658 26.5281 18.2244C22.6426 18.8831 15.2066 22.3007 13.0341 24.1452C10.8617 25.9883 8.95933 31.2591 8.95933 31.2591ZM21.4133 33.4214C21.4133 33.4214 16.2754 35.0898 16.2754 39.4231C16.2754 43.7564 17.5263 46.2004 18.1186 47.3863C18.7122 48.5708 20.5568 49.7206 23.1091 48.6156C26.0731 47.3314 22.3999 39.9431 31.7758 43.3347C36.0716 44.8874 40.5277 46.9862 44.861 45.5418C48.9719 44.171 50.555 38.9999 50.555 36.111C50.555 30.1974 46.2217 31.7777 44.7772 33.2221C43.3328 34.6666 31.7772 37.5554 30.3328 37.5554C28.8883 37.5554 21.4133 33.4214 21.4133 33.4214Z" fill="#EF9645"/>
  <path d="M27.8959 40.716C27.8959 40.716 27.7225 38.8151 25.9098 38.5941C24.4205 38.4135 22.0733 38.9104 20.8542 41.3472C19.6351 43.7854 17.4684 43.3781 17.5594 45.409C17.649 47.4399 18.2816 49.0201 19.5903 49.426C20.9004 49.8333 22.7508 49.1111 22.9761 46.9444C23.2014 44.7778 23.473 42.7917 24.8712 41.9337C26.2723 41.0771 27.8959 40.716 27.8959 40.716Z" fill="#F9CA55"/>
  <path d="M25.9991 37.5555C25.9991 37.5555 24.5546 36.1111 21.6657 36.1111C18.7768 36.1111 12.0399 39.1921 14.0824 45.3194C15.5268 49.6528 19.6348 47.6219 20.2213 43.3333C20.8092 39.039 25.9991 37.5555 25.9991 37.5555Z" fill="#EF9645"/>
  <path d="M24.5559 37.5555C24.5559 37.5555 23.1114 36.1111 20.2226 36.1111C17.3337 36.1111 13.1664 38.3211 13.0003 44.7778C12.8646 50.0586 18.8229 47.6666 18.7781 43.3333C18.7333 39 24.5559 37.5555 24.5559 37.5555Z" fill="#F9CA55"/>
  <path d="M7.22266 39.0001C7.22266 43.7624 7.88277 46.6354 10.7298 46.1457C15.4517 45.334 13.6591 39.4811 17.7917 37.8344C20.7918 36.6399 25.1598 36.9244 29.3761 39.4276C32.1538 41.0772 30.3338 34.6667 27.4449 33.2223C24.556 31.7779 15.8893 33.2223 14.4449 33.2223C13.0004 33.2223 7.22266 39.0001 7.22266 39.0001Z" fill="#EF9645"/>
  <path d="M6.99311 39.2514C4.695 43.1008 6.09322 47.0803 10.1102 46.2223C13.9972 45.3931 12.0501 40.3434 15.888 37.5556C18.0388 35.9927 22.674 35.4684 25.5629 36.9128C28.4518 38.3573 28.888 34.6667 25.9991 33.2223C23.1102 31.7778 13.6636 33.1861 12.222 33.2757C9.46456 33.4476 6.99311 39.2514 6.99311 39.2514Z" fill="#F9CA55"/>
  <path d="M13.6031 42.0535C12.6223 43.1773 10.9164 43.2943 9.79116 42.3135L9.50805 42.0665C8.38283 41.0857 8.26727 39.3813 9.24805 38.2561L41.7813 0.964838C42.7621 -0.15894 44.4679 -0.27594 45.5932 0.704838L45.8748 0.951838C47.0001 1.93262 47.1156 3.6385 46.1363 4.76228L13.6031 42.0535Z" fill="#3B88C3"/>
  <path d="M15.1529 40.2798C11.744 44.187 3.14519 51.8483 2.05608 50.8993C0.968412 49.9503 7.39041 40.391 10.7993 36.4823C14.2082 32.5737 13.1985 35.6994 14.4003 36.7496C15.6021 37.7982 18.5617 36.374 15.1529 40.2798Z" fill="#3B88C3"/>
  <path d="M9.63672 36.1487C9.63672 37.5932 13.1337 38.9149 14.5782 37.4704C16.0226 36.026 19.4041 34.2522 23.8501 36.1112C34.2558 40.459 30.3327 34.6667 25.9994 33.2223C21.6661 31.7779 14.4438 33.2223 12.9994 33.2223C11.5549 33.2223 9.63672 36.1487 9.63672 36.1487Z" fill="#EF9645"/>
  <path d="M8.94899 31.8399C8.43188 30.2322 12.1094 21.3258 13.7749 19.9463C15.8722 18.2101 23.9857 15.522 26.8745 15.522C29.7634 15.522 50.5562 26 50.5562 33.2222C50.5562 40.4444 47.6673 41.3472 43.5145 42.4753C40.1938 43.3781 33.2373 42.8249 30.1982 39.9923C27.5347 37.5108 25.6843 35.7948 23.1118 34.6666C18.3422 32.5751 15.163 35.2791 13.7185 36.7235C10.8297 39.6124 5.38699 36.4939 9.92688 31.5524C13.1754 28.015 16.0369 26.9129 18.7784 26C27.4451 23.1111 33.2229 23.1111 30.334 20.2222C29.3128 19.201 28.7567 20.722 27.3353 20.9805C24.4753 21.5005 22.1989 21.8501 18.4303 23.1068C17.1274 23.5401 10.9597 27.4733 8.94899 31.8399Z" fill="#FFDC5D"/>
  <path d="M19.061 23.5083C20.5979 22.9478 27.2973 21.7287 30.7827 20.5212C33.5979 19.5447 36.0679 21.4398 30.7249 23.4505C25.5683 25.3904 20.2108 25.2315 16.3036 26.7828C14.8259 27.3693 13.5447 25.5189 19.061 23.5083Z" fill="#EF9645"/>
  <path d="M32.481 11.5889C32.481 11.5889 23.9184 21.4039 20.2812 25.5436C23.537 24.2061 26.4505 24.4603 29.2339 22.8223C32.0174 21.1858 33.287 19.4394 37.5106 14.5962C39.0792 12.7993 32.481 11.5889 32.481 11.5889Z" fill="#3B88C3"/>
</svg>