<svg xmlns="http://www.w3.org/2000/svg" width="52" height="52" viewBox="0 0 52 52" fill="none">
  <path d="M26.0009 52C4.39487 52 1.44531 31.7778 1.44531 26H50.5564C50.5564 28.8889 47.7282 52 26.0009 52Z" fill="#CCD6DD"/>
  <path d="M50.5564 24.6363C50.5564 32.1706 39.5628 38.2777 26.0009 38.2777C12.439 38.2777 1.44531 32.1691 1.44531 24.6363C1.44531 17.1021 12.439 12.4395 26.0009 12.4395C39.5628 12.438 50.5564 17.1021 50.5564 24.6363Z" fill="#99AAB5"/>
  <path d="M28.1673 47.6668H24.5562C24.1575 47.6668 23.834 47.3432 23.834 46.9445C23.834 46.5459 24.1575 46.2223 24.5562 46.2223H27.4451V41.889H21.6673V43.3334H26.0007C26.3993 43.3334 26.7229 43.657 26.7229 44.0556C26.7229 44.4543 26.3993 44.7779 26.0007 44.7779H20.9451C20.5464 44.7779 20.2229 44.4543 20.2229 44.0556V41.1668C20.2229 40.7681 20.5464 40.4445 20.9451 40.4445H28.1673C28.566 40.4445 28.8895 40.7681 28.8895 41.1668V46.9445C28.8895 47.3432 28.566 47.6668 28.1673 47.6668ZM36.1118 46.2223C35.8258 46.2223 35.5542 46.0504 35.4415 45.7673C35.2928 45.3975 35.4719 44.9772 35.8431 44.8299L38.9862 43.5718L38.8923 40.3232L33.2229 41.7315V43.1023C34.2831 42.8048 36.0511 42.3035 37.3511 41.9193C37.7295 41.8095 38.1354 42.0233 38.2481 42.4075C38.3608 42.7903 38.1427 43.1919 37.7599 43.3045C35.7694 43.8924 32.6942 44.7519 32.6942 44.7519C32.4718 44.8125 32.2435 44.7678 32.0615 44.632C31.8839 44.4948 31.7784 44.281 31.7784 44.0556V41.1668C31.7784 40.836 32.0038 40.5456 32.3273 40.4662L39.4138 38.7054C39.6218 38.6534 39.8514 38.6996 40.0233 38.8311C40.1981 38.964 40.3021 39.1662 40.3093 39.3858L40.4451 44.034C40.4538 44.3373 40.2732 44.6132 39.9901 44.7259L36.379 46.1703C36.2923 46.205 36.2013 46.2223 36.1118 46.2223ZM42.7172 42.305C42.5554 42.305 42.4269 42.2616 42.3012 42.1923C42.073 42.0652 41.8895 41.7445 41.8895 41.4831V37.7824C41.8895 37.5152 42.0383 37.2711 42.2738 37.1454C43.126 36.6933 44.1212 36.0968 44.9286 35.6143C45.492 35.2778 45.9658 34.9932 46.2445 34.8444C46.4598 34.7317 46.7198 34.7332 46.9321 34.8488C47.1459 34.9658 47.286 35.1824 47.3048 35.4265C47.3539 36.0592 47.1415 37.6582 47.0968 37.9731C47.0664 38.1941 46.935 38.3905 46.74 38.5018L45.0023 39.4955C44.6585 39.6862 44.2151 39.5735 44.0158 39.2269C43.8179 38.8816 43.9378 38.4396 44.2844 38.2403L45.7101 37.4256C45.7361 37.2234 45.7607 37.0024 45.7852 36.7843L45.6697 36.8536C44.9619 37.2769 44.1125 37.7867 43.334 38.2143V40.5615C43.5839 40.4257 43.9219 40.2307 44.3798 39.9447L44.8694 40.4922L45.1439 41.1725C43.7731 42.0204 43.1332 42.305 42.7172 42.305ZM17.1534 46.6282C17.0798 46.6282 17.0061 46.6166 16.9339 46.595L12.2842 45.1058C11.9043 44.983 11.6949 44.5771 11.8162 44.1972C11.9375 43.8159 12.3463 43.6136 12.7233 43.7292L16.4572 44.9252L16.5511 41.5221L12.4258 40.3145L12.3882 41.3762L14.6777 42.1519C15.0547 42.2804 15.2569 42.6892 15.1298 43.0676C15.0012 43.4461 14.5924 43.644 14.214 43.5198L11.4147 42.5722C11.1128 42.4696 10.9134 42.1808 10.925 41.863L11.0145 39.3352C11.0218 39.1128 11.133 38.9048 11.3135 38.7748C11.4941 38.6433 11.7238 38.6043 11.939 38.6679L17.4914 40.2929C17.8063 40.3839 18.0187 40.6785 18.01 41.005L17.8742 45.9248C17.8684 46.1515 17.7543 46.3639 17.5694 46.4953C17.4481 46.5834 17.3008 46.6282 17.1534 46.6282ZM8.44198 42.6112C8.31054 42.6112 8.18054 42.5765 8.06354 42.5043L6.07743 41.2852C5.73798 41.0758 5.6311 40.6323 5.8391 40.2914C6.0471 39.952 6.49054 39.8422 6.83287 40.0545L7.7111 40.5933L7.69954 38.249L5.77843 37.1656V37.7795L6.85165 38.4266C7.19254 38.6332 7.30232 39.0752 7.09721 39.4175C6.89065 39.7584 6.44865 39.8668 6.10487 39.6631L4.68354 38.8051C4.46687 38.6751 4.33398 38.4396 4.33398 38.1883V35.9321C4.33398 35.675 4.46976 35.4381 4.69221 35.3081C4.91321 35.1781 5.18765 35.1752 5.41154 35.3023L8.77421 37.1974C8.99954 37.3245 9.13965 37.5629 9.1411 37.8229L9.16421 41.8846C9.16565 42.1475 9.0241 42.3902 8.79732 42.5173C8.6861 42.5809 8.56332 42.6112 8.44198 42.6112Z" fill="#EA596E"/>
  <path d="M26.0007 36.1111C37.9668 36.1111 47.6673 31.5842 47.6673 26C47.6673 20.4158 37.9668 15.8889 26.0007 15.8889C14.0345 15.8889 4.33398 20.4158 4.33398 26C4.33398 31.5842 14.0345 36.1111 26.0007 36.1111Z" fill="#FFAC33"/>
  <path d="M31.7782 34.6666C30.0738 34.6666 28.7131 34.3835 27.7323 33.823C26.6244 33.1904 25.9874 32.172 25.9874 31.0309C25.9889 28.3515 29.3689 25.9999 33.2227 25.9999C34.0214 25.9999 34.6671 26.647 34.6671 27.4444C34.6671 28.2431 34.0214 28.8888 33.2227 28.8888C30.5187 28.8888 28.8778 30.3766 28.8778 31.0309C28.8778 31.1407 29.0973 31.275 29.1652 31.314C29.4685 31.4874 30.211 31.7777 31.7782 31.7777C35.2507 31.7777 39.0004 29.5691 39.0004 25.9999C39.0004 24.9585 37.6427 24.2911 37.0605 24.0528C34.1428 22.8597 29.418 23.2165 27.0303 25.6475C24.9489 27.7665 21.553 28.4728 17.9448 27.5267C15.7232 26.946 13.1507 25.594 12.5931 23.5386C12.31 22.4914 12.6047 21.4644 13.4237 20.6439C16.7358 17.3333 22.9252 17.3333 27.4449 17.3333C28.2437 17.3333 28.8893 17.9804 28.8893 18.7777C28.8893 19.575 28.2437 20.2221 27.4449 20.2221C23.4308 20.2221 17.9318 20.2221 15.4661 22.6878C15.391 22.7644 15.3737 22.8048 15.3737 22.8063C15.4069 23.033 16.1984 23.9098 17.9838 24.5237C20.253 25.3051 23.2935 25.3311 24.9705 23.6238C28.3202 20.2135 34.3031 19.8047 38.1554 21.3791C40.5287 22.3498 41.8893 24.034 41.8893 25.9999C41.8893 31.353 36.6402 34.6666 31.7782 34.6666ZM21.6671 34.6666C10.6821 34.6666 7.22266 26.7857 7.22266 24.5555C7.22266 23.7581 7.86977 23.111 8.6671 23.111C9.46299 23.111 10.1087 23.7538 10.1115 24.5483C10.1635 25.5059 12.5685 31.7777 21.6671 31.7777C22.4644 31.7777 23.1115 32.4234 23.1115 33.2221C23.1115 34.0209 22.4644 34.6666 21.6671 34.6666Z" fill="#FFD983"/>
  <path d="M50.6892 4.40993L17.4597 5.6897C16.6653 5.76048 15.9633 5.17548 15.8925 4.37959C15.8217 3.58515 16.4067 2.88315 17.2012 2.81237L50.3021 0.0953712C51.098 0.023149 51.7985 0.609593 51.8707 1.40404C51.9401 2.19704 51.4851 4.3377 50.6892 4.40993ZM50.5563 11.5556L17.3341 10.1111C16.5367 10.1111 15.8896 9.46404 15.8896 8.6667C15.8896 7.86937 16.5367 7.22226 17.3341 7.22226H50.5563C51.3551 7.22226 52.0007 7.86937 52.0007 8.6667C52.0007 9.46404 51.3551 11.5556 50.5563 11.5556Z" fill="#AA695B"/>
  <path d="M20.2218 21.6667C19.4245 21.6667 18.7773 21.0196 18.7773 20.2222V2.88889C18.7773 2.09156 19.4245 1.44444 20.2218 1.44444C21.0191 1.44444 21.6662 2.09156 21.6662 2.88889V20.2222C21.6662 21.0196 21.0191 21.6667 20.2218 21.6667ZM25.9996 24.5556C25.2022 24.5556 24.5551 23.9084 24.5551 23.1111V1.44444C24.5551 0.647111 25.2022 0 25.9996 0C26.7969 0 27.444 0.647111 27.444 1.44444V23.1111C27.444 23.9084 26.7969 24.5556 25.9996 24.5556Z" fill="#FFD983"/>
</svg>