<svg xmlns="http://www.w3.org/2000/svg" width="98" height="20" viewBox="0 0 98 20" fill="none">
  <g clip-path="url(#clip0_1096_5446)">
    <path d="M50.3661 19.3835C50.2473 19.3835 50.1285 19.3542 50.0394 19.3248L46.4461 18.4144C44.9909 19.2367 43.3279 19.6772 41.6352 19.6772H9.8C4.39515 19.6772 0 15.3307 0 9.98558C0 4.64049 4.39515 0.293945 9.8 0.293945H23.8467C24.4406 0.293945 24.8861 0.763843 24.8861 1.32185C24.8861 1.90922 24.4109 2.34975 23.8467 2.34975H9.8C5.55333 2.37911 2.10848 5.81524 2.10848 10.0149C2.10848 14.2147 5.55333 17.6214 9.8 17.6214H41.6055C43.0606 17.6214 44.5158 17.2102 45.7333 16.4467C46.0006 16.2705 46.3273 16.2411 46.6242 16.3292L48.9703 17.0047L47.9903 14.9782C47.9012 14.6845 47.9309 14.3615 48.1091 14.0972C48.8812 12.8637 49.297 11.454 49.297 10.0149C49.297 5.81524 45.8521 2.40848 41.6055 2.40848H27.9152C27.3212 2.40848 26.8758 1.93859 26.8758 1.38058C26.8758 0.793211 27.3509 0.352682 27.9152 0.352682H41.6055C47.0103 0.352682 51.4055 4.69923 51.4055 10.0443C51.4055 11.7183 50.96 13.363 50.1285 14.802L51.3461 18.0619C51.4648 18.4437 51.3758 18.8549 51.0788 19.1192C50.9006 19.2954 50.6333 19.3835 50.3661 19.3835Z" fill="#AACE37"/>
    <path d="M95.1787 0.557617C93.6344 0.557617 92.3575 1.7911 92.3575 3.34763V9.77935C92.3575 12.4225 90.635 14.4196 88.3187 14.4196C86.0023 14.4196 84.2799 12.4519 84.2799 9.77935V3.34763C84.2799 1.7911 83.092 0.557617 81.5478 0.557617C80.0035 0.557617 78.7266 1.7911 78.7266 3.34763V9.89682C78.7266 15.5943 82.8544 19.7647 88.3187 19.7647C90.9617 19.7647 93.4266 18.7368 95.2084 16.8572C96.9902 15.007 97.9702 12.4813 97.9702 9.74998V3.34763C97.9999 1.82047 96.7229 0.557617 95.1787 0.557617Z" fill="#632B8E"/>
    <path d="M73.0834 12.3348C72.341 12.3348 71.6282 12.6285 71.0937 13.1571C70.2325 13.9794 69.1337 14.4493 67.9161 14.4493C66.7282 14.4493 65.5998 13.9794 64.7385 13.1571C63.8476 12.2761 63.3428 11.1307 63.3428 10.0147C63.3428 8.89868 63.8476 7.7533 64.7385 6.87225C65.5998 6.02056 66.6985 5.58003 67.9161 5.58003C69.104 5.58003 70.2325 6.04993 71.0937 6.87225C71.6282 7.40088 72.341 7.69457 73.0834 7.69457C73.8258 7.69457 74.5385 7.40088 75.0731 6.87225C76.1719 5.78561 76.1719 4.02349 75.0731 2.93686C73.1725 1.05727 70.6185 0 67.9161 0C65.2137 0 62.6895 1.0279 60.7591 2.93686C56.8095 6.84288 56.8095 13.1865 60.7591 17.0925C62.6598 18.9721 65.2137 20.0294 67.9161 20.0294C70.6185 20.0294 73.1725 19.0015 75.0731 17.0925C76.1719 16.0059 76.1719 14.2438 75.0731 13.1571C74.5385 12.5991 73.8258 12.3348 73.0834 12.3348Z" fill="#632B8E"/>
    <path d="M15.8293 6.25586C15.9778 6.25586 16.1263 6.28523 16.2451 6.37333C16.3639 6.46144 16.4233 6.57891 16.4233 6.75513V12.5995C16.4233 12.9225 16.3639 13.1281 16.2451 13.2456C16.1263 13.3631 15.8887 13.4218 15.5621 13.4218C15.4433 13.4218 15.3245 13.4218 15.2354 13.3924C15.1463 13.3631 15.0572 13.3337 14.9681 13.2456C14.879 13.1868 14.7899 13.0694 14.7008 12.9519C14.6118 12.8051 14.493 12.6288 14.3742 12.4233L12.4736 9.04587C12.3845 8.86966 12.2954 8.69345 12.2063 8.51724C12.1172 8.34103 12.0578 8.13545 11.9984 7.9005V12.9519C11.9984 13.1281 11.939 13.275 11.8202 13.3337C11.7015 13.4218 11.553 13.4512 11.4045 13.4512C11.256 13.4512 11.1075 13.4218 10.9887 13.3337C10.8699 13.2456 10.8105 13.1281 10.8105 12.9519V7.13692C10.8105 6.81386 10.8699 6.60828 10.9887 6.49081C11.1075 6.37333 11.3451 6.3146 11.6718 6.3146C11.7905 6.3146 11.9093 6.3146 11.9984 6.34397C12.0875 6.37333 12.1766 6.4027 12.2657 6.49081C12.3548 6.54955 12.4439 6.66702 12.533 6.78449C12.6221 6.93134 12.7408 7.10755 12.8596 7.31313L14.7602 10.6905C14.8493 10.8667 14.9384 11.0429 15.0275 11.2191C15.1166 11.3954 15.176 11.6009 15.2354 11.8359V6.78449C15.2354 6.60828 15.2948 6.46144 15.4136 6.4027C15.5324 6.3146 15.6808 6.25586 15.8293 6.25586Z" fill="#652D8D"/>
    <path d="M18.6807 5.99121C18.8886 5.99121 19.0965 6.07932 19.245 6.19679C19.3935 6.34363 19.4825 6.51985 19.4825 6.72543C19.4825 6.93101 19.3935 7.10722 19.245 7.25406C19.0965 7.4009 18.8886 7.45964 18.6807 7.45964C18.4728 7.45964 18.265 7.4009 18.1165 7.25406C17.968 7.10722 17.8789 6.93101 17.8789 6.72543C17.8789 6.51985 17.968 6.34363 18.1165 6.19679C18.265 6.04995 18.4431 5.99121 18.6807 5.99121ZM18.6807 8.04701C18.8589 8.04701 19.0074 8.07638 19.1262 8.16449C19.245 8.25259 19.3044 8.37007 19.3044 8.57565V12.9516C19.3044 13.1278 19.245 13.2746 19.1262 13.3627C19.0074 13.4508 18.8589 13.4802 18.6807 13.4802C18.5322 13.4802 18.3838 13.4508 18.2353 13.3627C18.1165 13.2746 18.0274 13.1571 18.0274 12.9516V8.57565C18.0274 8.39943 18.0868 8.25259 18.2353 8.16449C18.3541 8.10575 18.5025 8.04701 18.6807 8.04701Z" fill="#652D8D"/>
    <path d="M23.075 7.98828C23.4908 7.98828 23.8174 8.01765 24.0847 8.10576C24.352 8.19386 24.5896 8.31134 24.7974 8.42881C24.9459 8.51692 25.0053 8.63439 25.035 8.78123C25.0647 8.92808 25.0053 9.07492 24.9162 9.19239C24.8271 9.30987 24.7381 9.3686 24.6193 9.42734C24.5005 9.45671 24.352 9.45671 24.2332 9.3686C23.9065 9.16302 23.5205 9.07492 23.075 9.07492C22.6593 9.07492 22.3326 9.19239 22.1544 9.45671C21.9465 9.72103 21.8574 10.1028 21.8574 10.6021V10.8664C21.8574 11.3657 21.9762 11.7475 22.1841 12.0118C22.392 12.2761 22.7187 12.3936 23.1047 12.3936C23.5799 12.3936 23.9956 12.3055 24.3223 12.0999C24.4708 12.0411 24.5896 12.0118 24.7381 12.0411C24.8865 12.0705 24.9756 12.1586 25.0647 12.2761C25.1538 12.4229 25.1538 12.5404 25.1538 12.6873C25.1241 12.8341 25.0647 12.9516 24.9162 13.0397C24.7084 13.1865 24.4411 13.2746 24.1441 13.3627C23.7878 13.4508 23.4611 13.5096 23.075 13.5096C22.2732 13.5096 21.6496 13.304 21.2041 12.8635C20.7884 12.4229 20.5508 11.7475 20.5508 10.8664V10.6315C20.5508 9.7504 20.7587 9.07492 21.2041 8.66376C21.6496 8.22323 22.2732 7.98828 23.075 7.98828Z" fill="#652D8D"/>
    <path d="M28.4207 7.98828C28.7771 7.98828 29.1038 8.04702 29.4007 8.13512C29.6977 8.2526 29.965 8.39944 30.1728 8.60502C30.3807 8.8106 30.5589 9.04555 30.6777 9.33924C30.7965 9.63292 30.8559 9.95598 30.8559 10.3378V10.3671C30.8559 10.6902 30.7965 10.8958 30.6777 11.0132C30.5589 11.1307 30.3213 11.1895 29.9947 11.1895H27.1141V11.2188C27.1141 11.5712 27.2328 11.8649 27.4407 12.0999C27.6783 12.3348 28.005 12.4523 28.4504 12.4523C28.7474 12.4523 28.985 12.4229 29.1928 12.3936C29.4007 12.3642 29.6086 12.2761 29.8462 12.188C29.9947 12.1293 30.1135 12.1293 30.2322 12.1586C30.351 12.188 30.4401 12.3055 30.5292 12.4229C30.5886 12.5698 30.6183 12.6873 30.5589 12.8341C30.5292 12.9516 30.4401 13.069 30.3213 13.1278C30.0541 13.2453 29.7868 13.3627 29.4898 13.4215C29.1928 13.4802 28.8365 13.5096 28.4207 13.5096C27.6189 13.5096 26.9953 13.304 26.5498 12.8635C26.1044 12.4229 25.8965 11.7768 25.8965 10.8958V10.6315C25.8965 9.77976 26.1341 9.10429 26.5795 8.66376C26.9953 8.22323 27.6189 7.98828 28.4207 7.98828ZM28.391 9.04555C27.9753 9.04555 27.6486 9.16302 27.4407 9.3686C27.2328 9.57418 27.1141 9.86787 27.1141 10.2203V10.279H29.6086V10.1909C29.6086 9.86787 29.5195 9.60355 29.3116 9.3686C29.1632 9.13366 28.8365 9.04555 28.391 9.04555Z" fill="#652D8D"/>
    <path d="M35.5489 6.6377C35.7271 6.6377 35.8756 6.66706 35.9944 6.75517C36.1132 6.84328 36.1726 6.99012 36.1726 7.16633V8.10612H37.2417C37.3902 8.10612 37.5089 8.16486 37.5683 8.25297C37.6277 8.37044 37.6871 8.48792 37.6871 8.60539C37.6871 8.75223 37.6574 8.86971 37.5683 8.95781C37.5089 9.07529 37.3902 9.10466 37.2417 9.10466H36.1726V11.7478C36.1726 12.1884 36.3508 12.3939 36.6774 12.3939C36.8259 12.3939 36.9744 12.3646 37.1526 12.3058C37.2714 12.2765 37.3605 12.2765 37.4793 12.3352C37.598 12.3939 37.6574 12.482 37.7168 12.6583C37.7762 12.8051 37.7762 12.9226 37.7168 13.04C37.6871 13.1575 37.598 13.2456 37.4496 13.3044C37.3308 13.3631 37.1823 13.3925 37.0338 13.4218C36.8853 13.4512 36.7071 13.4806 36.5586 13.4806C35.9647 13.4806 35.5193 13.3337 35.2817 13.04C35.0441 12.7464 34.8956 12.3058 34.8956 11.7185V9.13402H34.3908C34.2423 9.13402 34.1235 9.07529 34.0641 8.98718C34.0047 8.86971 33.9453 8.75223 33.9453 8.63476C33.9453 8.48792 33.975 8.37044 34.0641 8.28234C34.1235 8.16486 34.2423 8.13549 34.3908 8.13549H34.8956V7.1957C34.8956 7.01949 34.955 6.87264 35.0738 6.78454C35.252 6.69643 35.4005 6.6377 35.5489 6.6377Z" fill="#652D8D"/>
    <path d="M41.043 7.98828C41.8745 7.98828 42.4982 8.22323 42.9733 8.66376C43.4188 9.10429 43.6564 9.7504 43.6564 10.6315V10.8664C43.6564 11.7181 43.4188 12.3936 42.9733 12.8341C42.5279 13.2746 41.8745 13.5096 41.043 13.5096C40.2115 13.5096 39.5879 13.2746 39.1127 12.8341C38.6673 12.3936 38.4297 11.7475 38.4297 10.8664V10.6315C38.4297 9.77976 38.6673 9.10429 39.1127 8.66376C39.5879 8.22323 40.2412 7.98828 41.043 7.98828ZM41.043 9.10429C40.5976 9.10429 40.2412 9.22176 40.0333 9.48608C39.8254 9.72103 39.7067 10.1322 39.7067 10.6608V10.8664C39.7067 11.395 39.8254 11.8062 40.0333 12.0411C40.2412 12.2761 40.5679 12.4229 41.043 12.4229C41.4885 12.4229 41.8448 12.3055 42.0527 12.0411C42.2606 11.8062 42.3794 11.395 42.3794 10.8664V10.6608C42.3794 10.1322 42.2606 9.72103 42.0527 9.48608C41.8448 9.22176 41.5182 9.10429 41.043 9.10429Z" fill="#652D8D"/>
  </g>
  <defs>
    <clipPath id="clip0_1096_5446">
      <rect width="98" height="20" fill="white"/>
    </clipPath>
  </defs>
</svg>