<svg xmlns="http://www.w3.org/2000/svg" width="92" height="18" viewBox="0 0 92 18" fill="none">
  <g clip-path="url(#clip0_1096_5428)">
    <path d="M64.2041 17.623C63.9969 17.6811 62.8721 18.0004 61.6881 18.0004C59.024 18.0004 57.6327 16.8972 57.6327 14.5166V0.261719H59.1128C60.652 0.261719 61.1552 1.13269 61.1552 2.38107V3.45527H64.2041V4.2972C64.2041 5.48752 63.3753 6.15527 62.1025 6.15527H61.1552V13.9069C61.1552 14.7488 61.4513 15.3585 62.6649 15.3585C63.4049 15.3585 64.0561 15.1553 64.1746 15.1262C64.2042 15.4166 64.2041 17.623 64.2041 17.623ZM54.9982 5.77785C55.7383 5.77785 56.5375 6.01011 56.6263 6.01011V3.45527C56.5079 3.42623 55.0574 3.13591 53.6662 3.13591C51.3277 3.13591 49.67 4.09398 49.67 6.56172V17.652H53.2222V7.22946C53.2222 6.32946 53.8142 5.77785 54.9982 5.77785ZM34.6623 7.14236C34.6623 5.71978 33.8335 3.13591 29.0973 3.13591C26.67 3.13591 25.6932 3.77462 25.338 4.00688C24.9828 3.80365 23.8579 3.13591 21.5787 3.13591C17.1977 3.13591 16.0137 5.2843 16.0137 7.05527V17.6811H19.5954V7.25849C19.5954 6.64882 19.9506 5.74882 21.5787 5.74882C22.8515 5.74882 23.5323 6.38753 23.5323 7.25849V17.652H27.1141V7.25849C27.1141 6.38753 27.7949 5.74882 29.0677 5.74882C30.459 5.74882 31.051 6.44559 31.051 7.25849V15.2714C31.051 16.8391 31.9686 17.7391 33.4487 17.7391H34.6031V7.14236H34.6623ZM42.2106 3.13591C46.6803 3.13591 48.3084 5.22623 48.3084 7.9843V12.4843C48.3084 15.6488 46.2363 18.0295 41.9738 18.0295C37.8888 18.0295 35.6392 16.1424 35.6392 13.6166C35.6392 11.5843 37.0304 10.2488 40.0793 9.43591C40.5233 9.31978 42.0034 8.8843 42.6842 8.68107C44.2235 8.24559 44.7267 7.8972 44.7267 7.25849C44.7267 6.56172 43.8682 5.80688 42.1218 5.80688C40.0497 5.80688 39.3985 7.05527 39.3689 7.9843H36.1128C36.1424 5.11011 37.8296 3.13591 42.2106 3.13591ZM41.6778 15.3585C43.0394 15.3585 44.7267 14.5166 44.7267 12.3391V10.6262C44.7267 10.6262 42.033 11.3811 41.2633 11.6133C39.9017 12.0198 39.2505 12.6875 39.2505 13.5875C39.2505 14.4585 39.9905 15.3585 41.6778 15.3585Z" fill="#595757"/>
    <path d="M7.07465 18C2.16088 18 0 15.0387 0 11.2935V7.22903C0 2.03226 3.55212 0 7.69627 0C12.6988 0 14.8893 2.67097 14.8893 5.34194C14.8893 9.26129 10.8044 10.2194 9.02832 10.7129C8.4955 10.8581 6.60103 11.4097 6.15701 11.5258C4.46976 11.9903 3.99614 12.5419 3.99614 13.1516C3.99614 14.1968 4.91377 15.0968 7.07465 15.0968C8.93951 15.0968 10.3308 14.4581 10.538 12.5419H14.4749C14.0901 15.5903 12.2252 18 7.07465 18ZM7.51866 2.90323C5.32819 2.90323 3.90734 4.32581 3.90734 6.76452V9.31935C3.90734 9.31935 6.86744 8.47742 8.08108 8.1C9.11712 7.78064 10.9524 7.14194 10.9524 5.54516C10.982 4.18064 9.82754 2.90323 7.51866 2.90323Z" fill="#F8B62D"/>
    <path d="M70.2144 6.41611V4.9645C70.2144 4.9645 70.2736 3.25159 72.3752 3.25159C74.2401 3.25159 74.8617 4.38385 74.8617 5.34192C74.8617 6.29998 74.4177 7.02579 73.3225 8.09998L67.6391 13.7903C67.1359 14.2839 66.8398 14.9806 66.8398 15.7064C66.8398 16.6645 67.6095 17.5645 68.4975 17.5645H76.9338C76.9338 17.5645 78.5915 17.5645 78.5915 14.5161H71.3984L76.9634 8.91288C77.8514 7.98385 78.2066 6.79353 78.2066 5.51611C78.2066 5.48708 78.2066 5.48708 78.2066 5.45805C78.2066 2.87417 76.401 0.319336 72.7008 0.319336C68.6751 0.319336 66.9878 3.28063 66.9878 4.67417V6.41611H70.2144Z" fill="#F8B62D"/>
    <path d="M88.9222 11.0322V1.94514C88.9222 1.07417 88.3006 0.319336 87.235 0.319336C86.1989 0.319336 85.6069 0.812884 85.2813 1.1903C85.0149 1.53869 78.4435 10.2193 78.3251 10.3645C78.2363 10.5097 77.6738 11.1774 77.6738 12.1935C77.6738 13.3548 78.5027 13.9064 79.4203 13.9064C80.1011 13.9064 85.7253 13.9355 85.7253 13.9355V18C85.7253 18 88.8926 18 88.8926 16.4032V13.9355H89.8399C90.3431 13.9355 90.8463 13.7903 91.2311 13.4709C91.6159 13.1806 91.9415 12.6871 91.9415 11.9032V11.0322H88.9222ZM85.9621 11.0903H81.4036L85.9621 4.99353V11.0903Z" fill="#F8B62D"/>
  </g>
  <defs>
    <clipPath id="clip0_1096_5428">
      <rect width="92" height="18" fill="white"/>
    </clipPath>
  </defs>
</svg>