<svg xmlns="http://www.w3.org/2000/svg" width="63" height="20" viewBox="0 0 63 20" fill="none">
  <g clip-path="url(#clip0_1096_5408)">
    <path fill-rule="evenodd" clip-rule="evenodd" d="M16.4552 17.9553V8.57388H8.41995L8.98412 12.122H12.3094V15.5498C11.5315 15.9708 10.7792 16.1684 9.72782 16.1684C6.41967 16.1684 4.75278 13.6254 4.75278 10C4.75278 6.39175 6.35984 3.93471 9.66798 3.93471C11.6426 3.93471 13.3351 4.65636 14.7798 5.58419L15.4209 1.42612C13.8993 0.558419 11.9247 0 9.55685 0C3.64152 0 0 4.04639 0 10.0258C0 15.9794 3.36798 20 9.44573 20C12.0871 20 14.455 19.2698 16.4552 17.9553Z" fill="#006FBA"/>
    <path fill-rule="evenodd" clip-rule="evenodd" d="M32.082 13.8233C32.082 10.7563 30.4152 9.30436 26.2522 7.76656C23.8587 6.84732 23.3287 6.37481 23.3287 5.38684C23.3287 4.49337 24.0211 3.89199 25.4743 3.89199C26.9446 3.89199 28.7483 4.44182 30.475 5.44697L31.2016 1.42636C29.5347 0.618795 27.9191 0.137695 25.423 0.137695C21.7559 0.137695 18.8666 2.11364 18.8666 5.83357C18.8666 9.01227 20.5335 10.2752 24.3716 11.7528C27.0728 12.7923 27.6199 13.2906 27.6199 14.3817C27.6199 15.5243 26.6796 16.1171 25.3119 16.1171C23.3971 16.1171 21.2002 15.3868 19.2256 14.3301L18.5332 18.4023C20.4822 19.2958 22.6449 19.8542 25.2264 19.8542C29.0218 19.8542 32.082 18.0157 32.082 13.8233Z" fill="#006FBA"/>
    <path d="M41.7748 12.9214C43.9888 11.4609 46.9892 9.5537 46.9892 5.93686C46.9892 1.9592 43.6383 0.146484 40.5267 0.146484C35.8851 0.146484 34.0045 3.85782 33.748 4.43343L37.3297 6.11727C37.552 5.71349 38.5521 4.11556 40.219 4.11556C41.2961 4.11556 42.3475 5.00044 42.3475 6.3836C42.3475 7.50044 41.0995 8.33377 39.5437 9.39906C37.0818 11.0829 34.013 13.1877 34.013 17.5004C34.013 18.0674 34.0729 18.6946 34.2097 19.4764H46.9892V15.6104H39.1077C39.1077 14.7685 40.3301 13.8664 41.7748 12.9214Z" fill="#2ABADA"/>
    <path d="M56.9648 9.88849C55.9476 9.88849 55.127 9.05516 55.127 8.04141C55.127 7.01908 55.9561 6.19434 56.9648 6.19434C57.9735 6.19434 58.8112 7.01908 58.8112 8.04141C58.8112 9.06375 57.982 9.88849 56.9648 9.88849Z" fill="white"/>
    <path d="M58.0928 6.02279C57.8449 5.94547 57.409 5.8252 56.973 5.8252C55.7506 5.8252 54.7591 6.82176 54.7591 8.05028C54.7591 8.88361 55.195 9.59667 55.896 9.99186C56.2037 10.1637 56.9816 10.4042 57.1953 10.5159C58.127 11.0142 58.7596 12.0022 58.7596 13.1362C58.7596 14.7771 57.4346 16.1001 55.8105 16.1001C54.2633 16.1001 52.9981 14.906 52.8699 13.3853L48.9121 14.253C49.5532 17.5348 52.434 20.009 55.8874 20.009C59.8196 20.009 62.9995 16.8046 62.9995 12.8613C62.9995 9.67399 60.9394 6.95062 58.0928 6.02279ZM56.9645 9.51935C56.1524 9.51935 55.4942 8.85784 55.4942 8.04169C55.4942 7.22554 56.1524 6.56403 56.9645 6.56403C57.7766 6.56403 58.4348 7.22554 58.4348 8.04169C58.4348 8.85784 57.7766 9.51935 56.9645 9.51935Z" fill="#2ABADA"/>
    <path d="M50.1431 0.412109L49.3652 9.33823H53.3401L53.8445 4.2695H58.4177C61.119 4.2695 62.102 2.07018 62.102 0.412109H50.1431Z" fill="#2ABADA"/>
  </g>
  <defs>
    <clipPath id="clip0_1096_5408">
      <rect width="63" height="20" fill="white"/>
    </clipPath>
  </defs>
</svg>