<svg xmlns="http://www.w3.org/2000/svg" width="140" height="18" viewBox="0 0 140 18" fill="none">
  <g clip-path="url(#clip0_1096_5415)">
    <path d="M8.5092 4.3013H0V0.418945H15.2457H15.3638C15.3638 0.418945 11.1329 2.00718 8.62739 4.32336H8.5092V4.3013Z" fill="#F08300"/>
    <path d="M17.7978 0.110352V4.478C17.7978 4.478 13.2832 5.58094 12.6922 8.71329C12.6922 8.71329 11.7468 12.5074 11.9831 17.4265H5.2467C5.2467 17.4265 5.01033 10.853 7.04308 7.12506C7.06672 7.103 9.02856 2.75741 17.7978 0.110352Z" fill="#E60012"/>
    <path d="M26.6156 7.23535H18.4609V10.3236H26.6156V7.23535Z" fill="#00903B"/>
    <path d="M31.0117 0.352539V17.3599H44.3901V13.9849H38.5518V10.0364H44.3901V7.23489H38.5518V3.41872H44.3901V0.352539H31.0117Z" fill="#00903B"/>
    <path d="M62.1875 0.352539V17.3599H75.5659V13.9849H69.7276V10.0364H75.5659V7.23489H69.7276V3.41872H75.5659V0.352539H62.1875Z" fill="#00903B"/>
    <path d="M98.2578 0.352539V17.3599H111.636V13.9849H105.798V10.0364H111.66V7.23489H105.798V3.41872H111.66V0.352539H98.2578Z" fill="#00903B"/>
    <path d="M47.3203 0.352539V17.3599H60.2732V13.9849H54.6477V0.352539H47.3203Z" fill="#00903B"/>
    <path d="M77.4336 0.352539L80.7664 17.3599H91.6629L96.2484 0.352539H90.5047L87.2192 12.5511L84.5482 0.352539H77.4336Z" fill="#00903B"/>
    <path d="M133.264 17.3603V4.25733C133.264 4.25733 134.28 -0.308848 126.977 0.0220345C126.977 0.0220345 123.526 0.573505 121.493 1.89703V0.352917H114.449V17.3603H121.564V6.39703C121.564 6.39703 121.493 4.3235 123.526 4.14703C125.582 3.99262 126.031 4.6985 125.96 5.69115V17.3603H133.264Z" fill="#00903B"/>
    <path d="M137.519 13.3896C136.148 13.3896 135.037 14.4264 135.037 15.7058C135.037 16.3235 135.297 16.897 135.77 17.3382C136.243 17.7794 136.857 18.022 137.519 18.022C138.181 18.022 138.795 17.7794 139.268 17.3382C139.717 16.897 139.977 16.3235 139.977 15.7058C139.977 15.0882 139.717 14.5146 139.268 14.0955C138.795 13.6323 138.181 13.3896 137.519 13.3896ZM139.67 15.6838C139.67 16.7867 138.701 17.6911 137.543 17.6911C136.975 17.6911 136.432 17.4926 136.03 17.0955C135.628 16.7205 135.415 16.2132 135.415 15.6838C135.415 15.1544 135.628 14.647 136.03 14.272C136.432 13.897 136.975 13.6985 137.543 13.6985C138.11 13.6985 138.654 13.9191 139.055 14.272C139.434 14.647 139.67 15.1544 139.67 15.6838Z" fill="#00903B"/>
    <path d="M138.605 16.8533L137.967 15.7283C138.109 15.6622 138.203 15.5519 138.298 15.4636C138.392 15.3313 138.463 15.1989 138.463 15.0225C138.463 14.8901 138.44 14.7798 138.369 14.6916C138.321 14.5813 138.227 14.471 138.132 14.4048C138.038 14.3607 137.943 14.3166 137.849 14.3166C137.73 14.2945 137.541 14.2725 137.305 14.2725H136.572V14.5592L136.596 15.7283V16.8975C136.596 16.9857 136.667 17.0519 136.738 17.0519C136.832 17.0519 136.903 16.9857 136.903 16.8975V15.7283H136.927H137.66L138.321 16.9636C138.369 17.0298 138.463 17.0739 138.534 17.0298C138.605 17.0298 138.629 16.9416 138.605 16.8533ZM136.927 15.4857V14.6033H137.447C137.66 14.6033 137.825 14.6475 137.92 14.7136C138.038 14.7798 138.085 14.8901 138.085 15.0445C138.085 15.1769 138.038 15.2872 137.92 15.3754C137.801 15.4416 137.636 15.4857 137.423 15.4857H136.927Z" fill="#00903B"/>
  </g>
  <defs>
    <clipPath id="clip0_1096_5415">
      <rect width="140" height="18" fill="white"/>
    </clipPath>
  </defs>
</svg>