<svg width="32" height="32" viewBox="0 0 32 32" fill="none" xmlns="http://www.w3.org/2000/svg">
<path d="M11.5007 12.2399C10.8049 12.2399 10.457 12.2399 10.2754 12.0966C10.1174 11.972 10.0242 11.7827 10.0217 11.5814C10.0189 11.3501 10.231 11.0744 10.6552 10.5229L15.1556 4.67236C15.4433 4.29837 15.5871 4.11137 15.7625 4.04417C15.9161 3.98528 16.0861 3.98528 16.2397 4.04417C16.415 4.11137 16.5588 4.29837 16.8465 4.67236L21.3469 10.5229C21.7712 11.0744 21.9833 11.3501 21.9804 11.5814C21.978 11.7827 21.8847 11.972 21.7267 12.0967C21.5451 12.2399 21.1973 12.2399 20.5015 12.2399L11.5007 12.2399Z" fill="white"/>
<path d="M20.4993 19.7601C21.1951 19.7601 21.543 19.7601 21.7246 19.9034C21.8826 20.028 21.9758 20.2173 21.9783 20.4186C21.9811 20.6499 21.769 20.9256 21.3448 21.4771L16.8444 27.3276C16.5567 27.7016 16.4129 27.8886 16.2375 27.9558C16.0839 28.0147 15.9139 28.0147 15.7603 27.9558C15.585 27.8886 15.4412 27.7016 15.1535 27.3276L10.6531 21.4771C10.2288 20.9256 10.0167 20.6499 10.0196 20.4186C10.022 20.2173 10.1153 20.028 10.2733 19.9033C10.4549 19.7601 10.8027 19.7601 11.4985 19.7601L20.4993 19.7601Z" fill="white"/>
</svg>
