<svg xmlns="http://www.w3.org/2000/svg" width="80" height="80" viewBox="0 0 80 80" fill="none">
  <path d="M6.66675 27.9242C6.66675 26.7564 6.66675 26.1726 6.71547 25.6808C7.18542 20.9376 10.9376 17.1854 15.6808 16.7155C16.1726 16.6667 16.7879 16.6667 18.0187 16.6667C18.4929 16.6667 18.73 16.6667 18.9314 16.6546C21.5021 16.4989 23.7533 14.8763 24.7139 12.4867C24.7891 12.2996 24.8594 12.0887 25.0001 11.6667C25.1407 11.2448 25.211 11.0339 25.2863 10.8468C26.2469 8.45716 28.498 6.83463 31.0688 6.67894C31.2701 6.66675 31.4925 6.66675 31.9372 6.66675H48.063C48.5077 6.66675 48.73 6.66675 48.9314 6.67894C51.5021 6.83463 53.7533 8.45716 54.7139 10.8468C54.7891 11.0339 54.8594 11.2448 55.0001 11.6667C55.1407 12.0887 55.211 12.2996 55.2863 12.4867C56.2469 14.8763 58.498 16.4989 61.0688 16.6546C61.2701 16.6667 61.5072 16.6667 61.9815 16.6667C63.2122 16.6667 63.8276 16.6667 64.3194 16.7155C69.0625 17.1854 72.8147 20.9376 73.2847 25.6808C73.3334 26.1726 73.3334 26.7564 73.3334 27.9242V54.0001C73.3334 59.6006 73.3334 62.4009 72.2435 64.54C71.2847 66.4216 69.7549 67.9514 67.8733 68.9101C65.7342 70.0001 62.9339 70.0001 57.3334 70.0001H22.6667C17.0662 70.0001 14.266 70.0001 12.1268 68.9101C10.2452 67.9514 8.71542 66.4216 7.75668 64.54C6.66675 62.4009 6.66675 59.6006 6.66675 54.0001V27.9242Z" stroke="#98A2B3" stroke-width="4" stroke-linecap="round" stroke-linejoin="round"/>
  <path d="M40.0001 55.0001C47.3639 55.0001 53.3334 49.0305 53.3334 41.6667C53.3334 34.303 47.3639 28.3334 40.0001 28.3334C32.6363 28.3334 26.6667 34.303 26.6667 41.6667C26.6667 49.0305 32.6363 55.0001 40.0001 55.0001Z" stroke="#98A2B3" stroke-width="4" stroke-linecap="round" stroke-linejoin="round"/>
</svg>