<svg width="128" height="36" viewBox="0 0 128 36" fill="none" xmlns="http://www.w3.org/2000/svg">
<path d="M9.33203 15.5847C9.33203 15.3512 9.33203 15.2344 9.34178 15.1361C9.43577 14.1874 10.1862 13.437 11.1348 13.343C11.2332 13.3333 11.3563 13.3333 11.6024 13.3333C11.6973 13.3333 11.7447 13.3333 11.785 13.3308C12.2991 13.2997 12.7493 12.9752 12.9415 12.4973C12.9565 12.4598 12.9706 12.4176 12.9987 12.3333C13.0268 12.2489 13.0409 12.2067 13.0559 12.1693C13.2481 11.6913 13.6983 11.3668 14.2124 11.3357C14.2527 11.3333 14.2972 11.3333 14.3861 11.3333H17.6113C17.7002 11.3333 17.7447 11.3333 17.785 11.3357C18.2991 11.3668 18.7493 11.6913 18.9415 12.1693C18.9565 12.2067 18.9706 12.2489 18.9987 12.3333C19.0268 12.4176 19.0409 12.4598 19.0559 12.4973C19.2481 12.9752 19.6983 13.2997 20.2124 13.3308C20.2527 13.3333 20.3001 13.3333 20.395 13.3333C20.6411 13.3333 20.7642 13.3333 20.8626 13.343C21.8112 13.437 22.5616 14.1874 22.6556 15.1361C22.6654 15.2344 22.6654 15.3512 22.6654 15.5847V20.7999C22.6654 21.92 22.6654 22.4801 22.4474 22.9079C22.2556 23.2842 21.9497 23.5902 21.5733 23.7819C21.1455 23.9999 20.5855 23.9999 19.4654 23.9999H12.532C11.4119 23.9999 10.8519 23.9999 10.4241 23.7819C10.0477 23.5902 9.74176 23.2842 9.55002 22.9079C9.33203 22.4801 9.33203 21.92 9.33203 20.7999V15.5847Z" stroke="#98A2B3" stroke-linecap="round" stroke-linejoin="round"/>
<path d="M15.9987 20.9999C17.4715 20.9999 18.6654 19.806 18.6654 18.3333C18.6654 16.8605 17.4715 15.6666 15.9987 15.6666C14.5259 15.6666 13.332 16.8605 13.332 18.3333C13.332 19.806 14.5259 20.9999 15.9987 20.9999Z" stroke="#98A2B3" stroke-linecap="round" stroke-linejoin="round"/>
<path d="M32.5664 15.2207C32.5664 17.3604 33.9814 19.5684 35.7109 20.416L35.0547 21.2773C33.7148 20.5801 32.5938 19.1377 32.0537 17.4492C31.5137 19.2402 30.3652 20.7783 28.998 21.5098L28.3145 20.6484C30.0918 19.7734 31.5 17.4424 31.5137 15.2207V13.0059H32.5664V15.2207ZM36.832 24.1074V11.9531H37.8984V16.8887H39.9355V17.8184H37.8984V24.1074H36.832ZM44.9668 14.5645C44.9736 16.2051 46.2656 17.6816 48.084 18.2559L47.5371 19.1172C46.1221 18.6318 45.001 17.6338 44.4473 16.3555C43.9209 17.7363 42.7793 18.8301 41.3301 19.3633L40.7695 18.502C42.5947 17.8662 43.8799 16.2871 43.8867 14.5645V13.8535H41.043V12.9785H47.7695V13.8535H44.9668V14.5645ZM42.7793 23.8477V20.0332H43.8457V22.9453H51.0098V23.8477H42.7793ZM49.5605 20.8809V11.9668H50.627V20.8809H49.5605ZM65.6113 11.9531V16.7656H67.6484V17.668H65.6113V24.1348H64.5449V11.9531H65.6113ZM56.7383 21.0859V13.1426H62.4121V14.0312H57.8047V20.1836C60.0059 20.1768 61.5576 20.0811 63.3691 19.7461L63.5059 20.6758C61.5986 21.0176 60.0059 21.0859 57.6953 21.0859H56.7383ZM72.625 15.2207C72.6182 17.4424 74.1289 19.6709 75.9199 20.4844L75.2637 21.332C73.876 20.6621 72.6797 19.2197 72.0986 17.4902C71.5381 19.3223 70.3418 20.8604 68.9199 21.5781L68.2363 20.6758C70.0479 19.8486 71.5449 17.5244 71.5586 15.2207V13.0059H72.625V15.2207ZM77.2461 24.1348V11.9531H78.3262V24.1348H77.2461ZM93.666 13.1836V14.4004C93.6523 15.8906 93.6523 17.5586 93.2148 20.0059L92.1211 19.8828C92.5791 17.5586 92.5791 15.8564 92.5859 14.4004V14.0723H85.0938V13.1836H93.666ZM83.918 22.3848V21.4961H88.2656V17.1484H89.3184V21.4961H94.9922V22.3848H83.918ZM107.146 21.6738V22.5762H96.0176V21.6738H107.146ZM97.3848 13.7715V12.8828H105.738V16.5605H98.4785V18.5566H106.025V19.418H97.4121V15.6855H104.686V13.7715H97.3848ZM118.166 11.9531V24.1074H117.086V11.9531H118.166ZM108.268 20.9492C111.556 19.3906 113.237 17.0596 113.477 14.1543H108.828V13.2793H114.57C114.557 16.7725 112.93 19.8691 108.855 21.8242L108.268 20.9492Z" fill="#98A2B3"/>
</svg>
