<svg xmlns="http://www.w3.org/2000/svg" width="10" height="10" viewBox="0 0 10 10" fill="none">
  <g clip-path="url(#clip0_2476_2783)">
    <path d="M1.42211 4.47687C1.17405 4.3804 1.05002 4.33216 1.01381 4.26266C0.982417 4.20241 0.982374 4.13064 1.01369 4.07036C1.04982 4.00081 1.1738 3.95243 1.42174 3.85567L8.45831 1.1097C8.68213 1.02235 8.79404 0.978678 8.86555 1.00257C8.92766 1.02331 8.97639 1.07205 8.99714 1.13416C9.02103 1.20567 8.97736 1.31758 8.89001 1.5414L6.14404 8.57796C6.04728 8.82591 5.9989 8.94989 5.92935 8.98602C5.86907 9.01733 5.7973 9.01729 5.73705 8.9859C5.66755 8.94969 5.61931 8.82566 5.52284 8.5776L4.4278 5.76177C4.40821 5.71141 4.39842 5.68624 4.3833 5.66503C4.3699 5.64624 4.35347 5.62981 4.33467 5.61641C4.31347 5.60129 4.2883 5.59149 4.23794 5.57191L1.42211 4.47687Z" stroke="white" stroke-linecap="round" stroke-linejoin="round"/>
  </g>
  <defs>
    <clipPath id="clip0_2476_2783">
      <rect width="10" height="10" fill="white"/>
    </clipPath>
  </defs>
</svg>