<svg xmlns="http://www.w3.org/2000/svg" width="20" height="20" viewBox="0 0 20 20" fill="none">
  <g clip-path="url(#clip0_767_1201)">
    <path d="M15.1165 1.95585L2.74212 6.08064C2.25452 6.24417 1.82921 6.5541 1.52418 6.96818C1.21916 7.38227 1.04927 7.88035 1.03767 8.39452C1.02607 8.90869 1.17333 9.41392 1.45938 9.84134C1.74542 10.2688 2.15632 10.5975 2.63606 10.7829L7.21458 12.533C7.32317 12.5774 7.42182 12.643 7.50479 12.726C7.58775 12.8089 7.65335 12.9076 7.69776 13.0162L9.44785 17.5947C9.59718 17.9836 9.84133 18.329 10.1581 18.5996C10.4749 18.8702 10.8543 19.0573 11.2618 19.1439C11.6692 19.2306 12.0919 19.214 12.4914 19.0958C12.8908 18.9775 13.2544 18.7613 13.5491 18.4668C13.8222 18.1881 14.0296 17.8519 14.156 17.4827L18.2808 5.10837C18.4262 4.66854 18.4466 4.19696 18.3396 3.74624C18.2326 3.29551 18.0025 2.88338 17.6749 2.55582C17.3474 2.22826 16.9352 1.99815 16.4845 1.89117C16.0338 1.78419 15.5622 1.80454 15.1224 1.94995L15.1165 1.95585ZM16.6957 4.58393L12.5709 16.9583C12.5146 17.1186 12.4106 17.2579 12.2729 17.3575C12.1352 17.4571 11.9703 17.5121 11.8004 17.5153C11.6305 17.5185 11.4636 17.4697 11.3223 17.3754C11.1809 17.2811 11.0717 17.1459 11.0094 16.9878L9.2534 12.4151C9.22938 12.3547 9.20183 12.2956 9.1709 12.2384L13.2309 8.17839C13.3872 8.02211 13.475 7.81015 13.475 7.58913C13.475 7.36812 13.3872 7.15616 13.2309 6.99988C13.0746 6.8436 12.8626 6.7558 12.6416 6.7558C12.4206 6.7558 12.2086 6.8436 12.0524 6.99988L7.99239 11.0598C7.93513 11.0289 7.8761 11.0014 7.81562 10.9774L3.24299 9.22137C3.08489 9.15905 2.94962 9.04988 2.85532 8.9085C2.76102 8.76712 2.7122 8.60029 2.71541 8.43037C2.71861 8.26046 2.77369 8.09559 2.87326 7.95787C2.97282 7.82015 3.11211 7.71616 3.27245 7.65984L15.6468 3.53505C15.7928 3.48798 15.9489 3.48211 16.098 3.51807C16.2471 3.55404 16.3834 3.63046 16.4918 3.73891C16.6003 3.84736 16.6767 3.98364 16.7127 4.13273C16.7486 4.28183 16.7428 4.43796 16.6957 4.58393Z" fill="#242424"/>
  </g>
  <defs>
    <clipPath id="clip0_767_1201">
      <rect width="20" height="20" fill="white"/>
    </clipPath>
  </defs>
</svg>