<svg xmlns="http://www.w3.org/2000/svg" width="20" height="20" viewBox="0 0 20 20" fill="none">
<g clip-path="url(#clip0_874_7166)">
<path d="M2.84422 8.95373C2.3481 8.7608 2.10004 8.66433 2.02761 8.52533C1.96483 8.40483 1.96475 8.26129 2.02739 8.14071C2.09965 8.00163 2.34759 7.90486 2.84349 7.71134L16.9166 2.21939C17.3643 2.0447 17.5881 1.95736 17.7311 2.00514C17.8553 2.04663 17.9528 2.1441 17.9943 2.26831C18.0421 2.41133 17.9547 2.63516 17.78 3.08281L12.2881 17.1559C12.0946 17.6518 11.9978 17.8998 11.8587 17.972C11.7381 18.0347 11.5946 18.0346 11.4741 17.9718C11.3351 17.8994 11.2386 17.6513 11.0457 17.1552L8.85559 11.5235C8.81643 11.4228 8.79685 11.3725 8.7666 11.3301C8.7398 11.2925 8.70693 11.2596 8.66935 11.2328C8.62695 11.2026 8.5766 11.183 8.47589 11.1438L2.84422 8.95373Z" stroke="#242424" stroke-width="2" stroke-linecap="round" stroke-linejoin="round"/>
</g>
<defs>
<clipPath id="clip0_874_7166">
<rect width="20" height="20" fill="white"/>
</clipPath>
</defs>
</svg>