<svg xmlns="http://www.w3.org/2000/svg" width="24" height="24" viewBox="0 0 24 24" fill="none">
  <path d="M20.1603 4.99998C19.1002 3.93719 17.6951 3.28852 16.1986 3.17115C14.7021 3.05378 13.213 3.47545 12.0003 4.35998C10.7279 3.41362 9.14427 2.98449 7.5682 3.15902C5.99212 3.33355 4.54072 4.09876 3.50625 5.30057C2.47178 6.50237 1.9311 8.0515 1.99308 9.636C2.05506 11.2205 2.71509 12.7227 3.84028 13.84L10.0503 20.06C10.5703 20.5718 11.2707 20.8586 12.0003 20.8586C12.7299 20.8586 13.4303 20.5718 13.9503 20.06L20.1603 13.84C21.3279 12.6652 21.9832 11.0763 21.9832 9.41998C21.9832 7.76371 21.3279 6.17472 20.1603 4.99998ZM18.7503 12.46L12.5403 18.67C12.4696 18.7413 12.3855 18.798 12.2928 18.8366C12.2001 18.8753 12.1007 18.8952 12.0003 18.8952C11.8999 18.8952 11.8004 18.8753 11.7077 18.8366C11.615 18.798 11.5309 18.7413 11.4603 18.67L5.25028 12.43C4.46603 11.6283 4.02689 10.5514 4.02689 9.42998C4.02689 8.30852 4.46603 7.23164 5.25028 6.42998C6.04943 5.64097 7.12725 5.19855 8.25028 5.19855C9.3733 5.19855 10.4511 5.64097 11.2503 6.42998C11.3432 6.52371 11.4538 6.59811 11.5757 6.64887C11.6976 6.69964 11.8283 6.72578 11.9603 6.72578C12.0923 6.72578 12.223 6.69964 12.3449 6.64887C12.4667 6.59811 12.5773 6.52371 12.6703 6.42998C13.4694 5.64097 14.5472 5.19855 15.6703 5.19855C16.7933 5.19855 17.8711 5.64097 18.6703 6.42998C19.4653 7.22113 19.9189 8.29217 19.9338 9.41367C19.9488 10.5352 19.5239 11.6179 18.7503 12.43V12.46Z" fill="#667085"/>
</svg>