<svg width="142" height="142" viewBox="0 0 142 142" fill="none" xmlns="http://www.w3.org/2000/svg">
<path d="M38.4375 115.266V129.406H36.6875V115.266H38.4375ZM27.1406 121.281C27.1328 118.234 28.6875 116.297 30.8281 116.297C32.9453 116.297 34.5078 118.234 34.5156 121.281C34.5078 124.352 32.9453 126.281 30.8281 126.281C28.6875 126.281 27.1328 124.352 27.1406 121.281ZM28.8125 121.281C28.8125 123.453 29.6328 124.711 30.8281 124.719C32.0156 124.711 32.8281 123.453 32.8281 121.281C32.8281 119.125 32.0156 117.859 30.8281 117.859C29.6328 117.859 28.8125 119.125 28.8125 121.281ZM52.3438 115.281V125.641H50.6094V120.891H47.8906V119.453H50.6094V115.281H52.3438ZM40.7031 122.766C43.7422 121.805 45.75 120 46.0859 117.766H41.4375V116.344H47.9844C47.9844 120.07 45.5234 122.852 41.4375 124.156L40.7031 122.766ZM43.1406 129.109V124.594H44.9062V127.703H52.7031V129.109H43.1406ZM69.6719 115.859V116.656C69.6719 117.594 69.6719 118.984 69.25 120.812L67.5469 120.609C67.8906 119.172 67.9609 118.094 67.9766 117.25H64.7031V115.859H69.6719ZM58.1719 123.188V121.781H63.9844V119.188H65.6875V121.781H70.9844V123.188H58.1719ZM59.2188 117.25V115.859H63.5938V116.422C63.5859 117.312 63.5859 118.82 62.875 120.828L61.2188 120.594C61.6953 119.133 61.8359 118.047 61.875 117.25H59.2188ZM59.5469 125.844V124.438H69.4062V129.297H67.6406V125.844H59.5469ZM80.8125 118.656C80.7969 121.18 82.0625 123.727 84.25 124.781L83.1875 126.172C81.6562 125.398 80.5547 123.906 79.9531 122.109C79.3359 124.031 78.1797 125.625 76.5625 126.438L75.5 125.047C77.7734 123.969 79.0703 121.266 79.0781 118.656V116.406H80.8125V118.656ZM85.0938 129.391V115.266H86.8281V120.797H89V122.281H86.8281V129.391H85.0938ZM93.3906 116.297C95.5156 116.297 97.0469 118.234 97.0625 121.281C97.0469 124.352 95.5156 126.281 93.3906 126.281C91.2422 126.281 89.7109 124.352 89.7188 121.281C89.7109 118.234 91.2422 116.297 93.3906 116.297ZM91.3906 121.281C91.3828 123.453 92.2031 124.711 93.3906 124.719C94.5859 124.711 95.3828 123.453 95.3906 121.281C95.3828 119.125 94.5859 117.859 93.3906 117.859C92.2031 117.859 91.3828 119.125 91.3906 121.281ZM98.9219 129.391V115.266H100.656V118.641H102.75V120.094H100.656V122.812H102.75V124.234H100.656V129.391H98.9219ZM110.312 117.516V118.906H103.391V117.516H106.016V115.672H107.734V117.516H110.312ZM103.797 122.938C103.781 121.016 105.086 119.648 106.875 119.656C108.672 119.648 109.953 121.016 109.953 122.938C109.953 124.898 108.672 126.266 106.875 126.266C105.086 126.266 103.781 124.898 103.797 122.938ZM105.328 122.938C105.32 124.078 105.961 124.789 106.875 124.781C107.781 124.789 108.422 124.078 108.422 122.938C108.422 121.828 107.781 121.094 106.875 121.094C105.961 121.094 105.32 121.828 105.328 122.938ZM110.906 128.75V115.562H112.531V121.078H113.906V115.266H115.562V129.391H113.906V122.484H112.531V128.75H110.906Z" fill="#242424"/>
<g clip-path="url(#clip0_1275_5281)">
<path d="M119.02 49.0005C119.02 75.5258 97.5258 97.0205 71.0005 97.0205C44.4751 97.0205 22.9805 75.5258 22.9805 49.0005C22.9805 22.4751 44.4751 0.980469 71.0005 0.980469C97.5258 0.980469 119.02 22.4751 119.02 49.0005Z" fill="url(#paint0_linear_1275_5281)"/>
<g filter="url(#filter0_i_1275_5281)">
<path fill-rule="evenodd" clip-rule="evenodd" d="M69.0412 16.8655L67.6503 19.4927C67.5988 19.5957 67.5216 19.6473 67.3928 19.673L64.4565 20.1882C63.658 20.3169 62.9883 20.9094 62.7307 21.6821C62.4732 22.4548 62.6792 23.3048 63.2459 23.8972L65.3064 26.035C65.3837 26.1123 65.4095 26.2153 65.4095 26.3184L64.9974 29.2547C64.8686 30.0531 65.2292 30.8774 65.8731 31.3667C66.5428 31.8561 67.4185 31.9334 68.1397 31.5728L70.8185 30.2592C70.9215 30.2077 71.0245 30.2077 71.1276 30.2592L73.8063 31.5728C74.5532 31.9334 75.4032 31.8561 76.0729 31.3667C76.7426 30.8774 77.0774 30.0789 76.9487 29.2547L76.5365 26.3184C76.5108 26.2153 76.5623 26.1123 76.6396 26.035L78.7001 23.8972C79.2668 23.3048 79.4729 22.4548 79.2153 21.6821C78.9577 20.9094 78.288 20.3169 77.4896 20.1882L74.5532 19.673C74.4502 19.6473 74.3472 19.5957 74.2957 19.4927L72.9048 16.8655C72.5184 16.1443 71.7715 15.6807 70.9473 15.6807C70.1745 15.6807 69.4276 16.1185 69.0412 16.8655Z" fill="#C8A262"/>
</g>
<g filter="url(#filter1_i_1275_5281)">
<path fill-rule="evenodd" clip-rule="evenodd" d="M93.7971 58.9264C93.7971 60.7809 92.535 62.146 91.4017 63.3309C90.7835 63.9748 90.1654 64.6445 90.0108 65.1339C89.8463 65.6508 89.9391 66.468 90.0349 67.3115V67.3115L90.0516 67.4589L90.0623 67.555C90.2684 69.152 90.4745 70.9807 89.4442 72.4231C88.3701 73.8808 86.6105 74.2213 85.0225 74.5286L84.9882 74.5352C84.8881 74.5558 84.7873 74.5761 84.6867 74.5963L84.6856 74.5965L84.6855 74.5965C83.9061 74.7533 83.135 74.9085 82.7473 75.2049C82.3303 75.4993 81.9133 76.2609 81.4963 77.0225L81.4337 77.1367C80.6868 78.5791 79.7853 80.2018 78.0595 80.7684C77.6732 80.8972 77.2611 80.9487 76.8747 80.9487C75.6697 80.9487 74.5117 80.4087 73.4455 79.9115L73.2945 79.8412C72.4702 79.429 71.5945 79.0169 71.0021 79.0169C70.4097 79.0169 69.5597 79.429 68.7097 79.8412C67.2673 80.5366 65.6188 81.3093 63.9446 80.7684C62.2189 80.2018 61.3432 78.5791 60.5704 77.1367L60.5079 77.0225C60.0909 76.2609 59.6739 75.4992 59.2568 75.2049C58.819 74.87 57.9175 74.6897 57.016 74.5352L56.9636 74.5251C55.3797 74.2187 53.6045 73.8752 52.56 72.4231C51.5039 70.9807 51.7358 69.152 51.9418 67.555L51.9669 67.332C52.0635 66.4778 52.1592 65.6314 51.9933 65.1339C51.851 64.6832 51.2936 64.0796 50.7437 63.484L50.6024 63.3309L50.5802 63.3071C49.4777 62.1278 48.207 60.7685 48.207 58.9264C48.207 57.0719 49.4691 55.7068 50.6024 54.5219L50.7437 54.3688C51.2937 53.7732 51.851 53.1696 51.9933 52.7189C52.1578 52.2019 52.065 51.3848 51.9693 50.5413C51.9601 50.4603 51.9508 50.379 51.9418 50.2978C51.7358 48.7008 51.5297 46.8721 52.56 45.4297C53.634 43.972 55.3936 43.6315 56.9817 43.3242L57.016 43.3176C57.1164 43.2969 57.2175 43.2766 57.3185 43.2563L57.3186 43.2562C58.098 43.0994 58.8692 42.9443 59.2568 42.6479C59.6739 42.3535 60.0909 41.5919 60.5079 40.8303L60.5704 40.7161C61.3174 39.2737 62.2189 37.651 63.9446 37.0844C65.5664 36.5354 67.1399 37.2675 68.5479 37.9226L68.6839 37.9859C69.5082 38.398 70.3839 38.8101 70.9763 38.8101C71.5653 38.8101 72.4345 38.4027 73.2545 38.0182L73.2687 38.0116C74.7111 37.3162 76.3596 36.5435 78.0338 37.0844C79.7853 37.651 80.661 39.2737 81.4337 40.7161L81.4963 40.8303C81.9133 41.5919 82.3303 42.3535 82.7473 42.6479C83.1852 42.9827 84.0867 43.163 84.9882 43.3176L85.0406 43.3277C86.6244 43.6341 88.3997 43.9775 89.4442 45.4297C90.5002 46.8721 90.2684 48.7008 90.0623 50.2978L90.0373 50.5207C89.9407 51.375 89.845 52.2213 90.0108 52.7189C90.1531 53.1696 90.7105 53.7732 91.2604 54.3687L91.2604 54.3687L91.4017 54.5219L91.424 54.5457C92.5264 55.725 93.7971 57.0843 93.7971 58.9264ZM74.4534 55.1393C74.4534 56.015 73.758 56.7105 72.8822 56.7105L69.8944 56.6847V57.3286H70.9762C71.8519 57.3286 72.5474 58.0241 72.5474 58.8998C72.5474 59.7756 71.8519 60.471 70.9762 60.471H69.8944V61.1149H72.8822C73.758 61.1149 74.4534 61.8104 74.4534 62.6861C74.4534 63.5618 73.758 64.2573 72.8822 64.2573H68.349C67.4732 64.2573 66.7778 63.5618 66.7778 62.6861V55.1393C66.7778 54.2635 67.4732 53.5681 68.349 53.5681H72.8822C73.758 53.5681 74.4534 54.2635 74.4534 55.1393ZM63.8162 53.5939C62.9405 53.5939 62.2451 54.2893 62.2451 55.1651V57.0711L60.6224 54.3666C60.2618 53.7742 59.5406 53.4651 58.8709 53.6712C58.2012 53.8515 57.7118 54.4696 57.7118 55.1908V62.7377C57.7118 63.6134 58.4072 64.3089 59.283 64.3089C60.1587 64.3089 60.8542 63.6134 60.8542 62.7377V60.8316L62.4769 63.5361C62.7602 64.0255 63.2753 64.3089 63.8162 64.3089C63.945 64.3089 64.0996 64.2831 64.2284 64.2573C64.898 64.077 65.3874 63.4589 65.3874 62.7377V55.1908C65.3874 54.2893 64.692 53.5939 63.8162 53.5939ZM81.151 55.1651C81.151 54.2893 81.8465 53.5939 82.7222 53.5939C83.598 53.5939 84.2934 54.2893 84.2419 55.1651V62.7119C84.2419 63.3816 83.8298 63.9998 83.1859 64.2058C83.0313 64.2573 82.851 64.2831 82.6965 64.2831C82.2328 64.2831 81.7692 64.0513 81.4601 63.6649L79.6829 61.321L77.9056 63.6649C77.4935 64.2058 76.7981 64.4376 76.1542 64.2058C75.536 63.974 75.0981 63.3816 75.0981 62.7119V55.1651C75.0981 54.2893 75.7936 53.5939 76.6693 53.5939C77.545 53.5939 78.2405 54.2893 78.2405 55.1651V58.0756L78.4465 57.7923C79.039 57.0196 80.3526 57.0196 80.945 57.7923L81.151 58.0756V55.1651Z" fill="#C8A262"/>
</g>
<g filter="url(#filter2_i_1275_5281)">
<path d="M113.49 49.0009C113.49 72.4678 94.4668 91.4914 70.9999 91.4914C47.533 91.4914 28.5093 72.4678 28.5093 49.0009C28.5093 25.534 47.533 6.5103 70.9999 6.5103C94.4668 6.5103 113.49 25.534 113.49 49.0009Z" stroke="#C8A262" stroke-width="2.56553"/>
</g>
</g>
<defs>
<filter id="filter0_i_1275_5281" x="62.6211" y="15.6807" width="16.7031" height="17.1424" filterUnits="userSpaceOnUse" color-interpolation-filters="sRGB">
<feFlood flood-opacity="0" result="BackgroundImageFix"/>
<feBlend mode="normal" in="SourceGraphic" in2="BackgroundImageFix" result="shape"/>
<feColorMatrix in="SourceAlpha" type="matrix" values="0 0 0 0 0 0 0 0 0 0 0 0 0 0 0 0 0 0 127 0" result="hardAlpha"/>
<feOffset dy="1.02621"/>
<feGaussianBlur stdDeviation="0.513106"/>
<feComposite in2="hardAlpha" operator="arithmetic" k2="-1" k3="1"/>
<feColorMatrix type="matrix" values="0 0 0 0 0 0 0 0 0 0 0 0 0 0 0 0 0 0 0.25 0"/>
<feBlend mode="normal" in2="shape" result="effect1_innerShadow_1275_5281"/>
</filter>
<filter id="filter1_i_1275_5281" x="48.207" y="36.8916" width="45.5898" height="45.0848" filterUnits="userSpaceOnUse" color-interpolation-filters="sRGB">
<feFlood flood-opacity="0" result="BackgroundImageFix"/>
<feBlend mode="normal" in="SourceGraphic" in2="BackgroundImageFix" result="shape"/>
<feColorMatrix in="SourceAlpha" type="matrix" values="0 0 0 0 0 0 0 0 0 0 0 0 0 0 0 0 0 0 127 0" result="hardAlpha"/>
<feOffset dy="1.02621"/>
<feGaussianBlur stdDeviation="0.513106"/>
<feComposite in2="hardAlpha" operator="arithmetic" k2="-1" k3="1"/>
<feColorMatrix type="matrix" values="0 0 0 0 0 0 0 0 0 0 0 0 0 0 0 0 0 0 0.25 0"/>
<feBlend mode="normal" in2="shape" result="effect1_innerShadow_1275_5281"/>
</filter>
<filter id="filter2_i_1275_5281" x="27.2266" y="5.22754" width="87.5469" height="88.5731" filterUnits="userSpaceOnUse" color-interpolation-filters="sRGB">
<feFlood flood-opacity="0" result="BackgroundImageFix"/>
<feBlend mode="normal" in="SourceGraphic" in2="BackgroundImageFix" result="shape"/>
<feColorMatrix in="SourceAlpha" type="matrix" values="0 0 0 0 0 0 0 0 0 0 0 0 0 0 0 0 0 0 127 0" result="hardAlpha"/>
<feOffset dy="1.02621"/>
<feGaussianBlur stdDeviation="0.513106"/>
<feComposite in2="hardAlpha" operator="arithmetic" k2="-1" k3="1"/>
<feColorMatrix type="matrix" values="0 0 0 0 0 0 0 0 0 0 0 0 0 0 0 0 0 0 0.15 0"/>
<feBlend mode="normal" in2="shape" result="effect1_innerShadow_1275_5281"/>
</filter>
<linearGradient id="paint0_linear_1275_5281" x1="37.6805" y1="11.4338" x2="107.75" y2="79.3805" gradientUnits="userSpaceOnUse">
<stop stop-color="#D2B589"/>
<stop offset="0.71136" stop-color="white"/>
<stop offset="1" stop-color="#D1B088"/>
</linearGradient>
<clipPath id="clip0_1275_5281">
<rect width="98" height="98" fill="white" transform="translate(22)"/>
</clipPath>
</defs>
</svg>
