<svg width="142" height="142" viewBox="0 0 142 142" fill="none" xmlns="http://www.w3.org/2000/svg">
<path d="M33.4219 115.266V129.406H31.6719V115.266H33.4219ZM22.125 121.281C22.1172 118.234 23.6719 116.297 25.8125 116.297C27.9297 116.297 29.4922 118.234 29.5 121.281C29.4922 124.352 27.9297 126.281 25.8125 126.281C23.6719 126.281 22.1172 124.352 22.125 121.281ZM23.7969 121.281C23.7969 123.453 24.6172 124.711 25.8125 124.719C27 124.711 27.8125 123.453 27.8125 121.281C27.8125 119.125 27 117.859 25.8125 117.859C24.6172 117.859 23.7969 119.125 23.7969 121.281ZM40.0625 117.297C40.0547 118.109 40.7109 119.125 41.9297 119.703C43.125 119.141 43.7656 118.141 43.7656 117.297V117.172H42.2031V115.766H47.4844V117.172H45.5312V117.297C45.5234 118.32 46.3594 119.391 48.0781 119.828L47.2969 121.094C45.9609 120.727 45.0781 119.961 44.6172 119.031C44.1562 119.977 43.2812 120.805 41.9219 121.188C40.5469 120.805 39.6719 119.945 39.2109 118.992C38.7422 119.914 37.8594 120.711 36.5312 121.094L35.7969 119.828C37.4766 119.359 38.3359 118.242 38.3438 117.297V117.172H36.3438V115.766H41.6406V117.172H40.0625V117.297ZM35.5 123.281V121.891H48.375V123.281H35.5ZM37.0156 129.219V124.406H46.8125V129.219H37.0156ZM38.7344 127.812H45.125V125.781H38.7344V127.812ZM57.7344 121.125V122.531H54.875V124.992C56.1094 124.945 57.3438 124.859 58.5156 124.734L58.6562 126.016C55.5469 126.477 52.2734 126.508 49.6094 126.516L49.3906 125.078C50.5547 125.086 51.8281 125.078 53.1406 125.055V122.531H50.375V116.562H57.6719V117.938H52.0938V121.125H57.7344ZM59.3594 129.406V115.266H61.0938V129.406H59.3594ZM70.4062 116.453V117.578H73.25V115.281H74.9844V125.562H73.25V122H70.4062V123.219H63.7656V116.453H70.4062ZM65.5 121.859H68.6875V117.828H65.5V121.859ZM65.6719 129.109V124.609H67.4375V127.703H75.2969V129.109H65.6719ZM70.4062 120.609H73.25V119H70.4062V120.609ZM85.8594 118.281C85.8516 119.836 87 121.32 89.2188 121.922L88.4219 123.297C86.8047 122.852 85.6562 121.898 85.0156 120.688C84.3984 122.055 83.2266 123.125 81.5625 123.641L80.7188 122.281C82.9453 121.648 84.125 120.008 84.125 118.281V118.219H81.1719V116.844H84.125V115.203H85.875V116.844H88.8125V118.219H85.8594V118.281ZM82.5469 126.75C82.5469 125.078 84.3594 124.125 87.3281 124.125C90.2734 124.125 92.0547 125.078 92.0625 126.75C92.0547 128.406 90.2734 129.359 87.3281 129.359C84.3594 129.359 82.5469 128.406 82.5469 126.75ZM84.2812 126.75C84.2812 127.594 85.3672 128.031 87.3281 128.031C89.2578 128.031 90.3438 127.594 90.3438 126.75C90.3438 125.891 89.2578 125.469 87.3281 125.469C85.3672 125.469 84.2812 125.891 84.2812 126.75ZM90.1875 123.828V115.266H91.9219V118.719H93.8906V120.141H91.9219V123.828H90.1875ZM98.5312 115.891C100.359 115.883 101.797 116.938 102.148 118.484H104.703V115.266H106.438V122.844H104.703V119.891H102.164C101.828 121.477 100.375 122.547 98.5312 122.547C96.3672 122.547 94.7969 121.156 94.7969 119.203C94.7969 117.273 96.3672 115.883 98.5312 115.891ZM96.4531 119.203C96.4531 120.336 97.3125 121.086 98.5312 121.078C99.7188 121.086 100.57 120.336 100.578 119.203C100.57 118.07 99.7188 117.336 98.5312 117.344C97.3125 117.336 96.4531 118.07 96.4531 119.203ZM97.125 129.219V123.5H98.8438V125H104.703V123.5H106.438V129.219H97.125ZM98.8438 127.812H104.703V126.344H98.8438V127.812ZM115.328 117.516V118.906H108.406V117.516H111.031V115.672H112.75V117.516H115.328ZM108.812 122.938C108.797 121.016 110.102 119.648 111.891 119.656C113.688 119.648 114.969 121.016 114.969 122.938C114.969 124.898 113.688 126.266 111.891 126.266C110.102 126.266 108.797 124.898 108.812 122.938ZM110.344 122.938C110.336 124.078 110.977 124.789 111.891 124.781C112.797 124.789 113.438 124.078 113.438 122.938C113.438 121.828 112.797 121.094 111.891 121.094C110.977 121.094 110.336 121.828 110.344 122.938ZM115.922 128.75V115.562H117.547V121.078H118.922V115.266H120.578V129.391H118.922V122.484H117.547V128.75H115.922Z" fill="#242424"/>
<g clip-path="url(#clip0_1275_5307)">
<path d="M119.019 49.0005C119.019 75.5258 97.5238 97.0205 70.9985 97.0205C44.4732 97.0205 22.9785 75.5258 22.9785 49.0005C22.9785 22.4751 44.4732 0.980469 70.9985 0.980469C97.5238 0.980469 119.019 22.4751 119.019 49.0005Z" fill="url(#paint0_linear_1275_5307)"/>
<g filter="url(#filter0_i_1275_5307)">
<path d="M86.0619 44.0204C85.1204 43.6256 84.2701 43.0486 83.5108 42.3197C83.359 42.1679 83.2375 42.0464 83.116 41.8945C82.9945 42.0464 82.8427 42.1982 82.7212 42.3197C81.9923 43.0486 81.142 43.6256 80.1701 44.0204C79.1983 44.4456 78.1353 44.6582 77.0724 44.6582C76.0094 44.6582 74.9465 44.4456 73.9747 44.0204C73.0332 43.6256 72.1828 43.0486 71.4236 42.3197C71.2717 42.1679 71.1503 42.0464 71.0288 41.8945C70.9073 42.0464 70.7554 42.1982 70.634 42.3197C69.9051 43.0486 69.0547 43.6256 68.0829 44.0204C67.1111 44.4456 66.0481 44.6582 64.9852 44.6582C63.9222 44.6582 62.8593 44.4456 61.8874 44.0204C60.946 43.6256 60.0956 43.0486 59.3364 42.3197C59.1845 42.1679 59.063 42.0464 58.9415 41.8945C58.8201 42.0464 58.6682 42.1982 58.5467 42.3197C57.8179 43.0486 56.9675 43.6256 55.9957 44.0204C55.0238 44.4456 53.9609 44.6582 52.8979 44.6582C51.8957 44.6582 50.9239 44.476 49.9824 44.1115V72.2341C49.9824 72.7807 50.4076 73.2059 50.9543 73.2059H75.402C75.9487 73.2059 76.3739 72.7807 76.3739 72.2341V51.4307C76.3739 50.884 76.7991 50.4588 77.3457 50.4588H86.0619C86.6085 50.4588 87.0337 50.884 87.0337 51.4307V72.2341C87.0337 72.7807 87.4589 73.2059 88.0056 73.2059H91.164C91.7107 73.2059 92.1359 72.7807 92.1359 72.2341V44.1115C91.2248 44.476 90.2226 44.6582 89.2203 44.6582C88.0967 44.6582 87.0641 44.4456 86.0619 44.0204ZM69.571 64.0038C69.571 64.5505 69.1458 64.9757 68.5992 64.9757H56.026C55.4794 64.9757 55.0542 64.5505 55.0542 64.0038V51.4307C55.0542 50.884 55.4794 50.4588 56.026 50.4588H68.5992C69.1458 50.4588 69.571 50.884 69.571 51.4307V64.0038Z" fill="#FFC25D"/>
<path d="M90.5265 30.7797L85.7888 24.8271H56.2693L51.5316 30.7797L46.8242 36.6714C46.8242 38.9492 48.0998 40.9536 49.9827 41.9861C50.833 42.4721 51.8353 42.715 52.8982 42.715C56.2389 42.715 58.9418 40.0121 58.9418 36.6714C58.9418 40.0121 61.6447 42.715 64.9854 42.715C68.3261 42.715 71.029 40.0121 71.029 36.6714C71.029 40.0121 73.732 42.715 77.0726 42.715C80.4133 42.715 83.1163 40.0121 83.1163 36.6714C83.1163 40.0121 85.8192 42.715 89.1599 42.715C90.2228 42.715 91.1947 42.4417 92.0754 41.9861C93.9583 40.9536 95.2339 38.9795 95.2339 36.6714L90.5265 30.7797Z" fill="#FFC25D"/>
</g>
<g filter="url(#filter1_i_1275_5307)">
<path d="M113.49 48.9999C113.49 72.4668 94.4668 91.4905 70.9999 91.4905C47.533 91.4905 28.5093 72.4668 28.5093 48.9999C28.5093 25.533 47.533 6.50933 70.9999 6.50933C94.4668 6.50933 113.49 25.533 113.49 48.9999Z" stroke="#FFC25D" stroke-width="2.56553"/>
</g>
</g>
<defs>
<filter id="filter0_i_1275_5307" x="46.8242" y="24.8271" width="48.4102" height="49.4051" filterUnits="userSpaceOnUse" color-interpolation-filters="sRGB">
<feFlood flood-opacity="0" result="BackgroundImageFix"/>
<feBlend mode="normal" in="SourceGraphic" in2="BackgroundImageFix" result="shape"/>
<feColorMatrix in="SourceAlpha" type="matrix" values="0 0 0 0 0 0 0 0 0 0 0 0 0 0 0 0 0 0 127 0" result="hardAlpha"/>
<feOffset dy="1.02621"/>
<feGaussianBlur stdDeviation="0.513106"/>
<feComposite in2="hardAlpha" operator="arithmetic" k2="-1" k3="1"/>
<feColorMatrix type="matrix" values="0 0 0 0 0 0 0 0 0 0 0 0 0 0 0 0 0 0 0.25 0"/>
<feBlend mode="normal" in2="shape" result="effect1_innerShadow_1275_5307"/>
</filter>
<filter id="filter1_i_1275_5307" x="27.2266" y="5.22656" width="87.5469" height="88.5731" filterUnits="userSpaceOnUse" color-interpolation-filters="sRGB">
<feFlood flood-opacity="0" result="BackgroundImageFix"/>
<feBlend mode="normal" in="SourceGraphic" in2="BackgroundImageFix" result="shape"/>
<feColorMatrix in="SourceAlpha" type="matrix" values="0 0 0 0 0 0 0 0 0 0 0 0 0 0 0 0 0 0 127 0" result="hardAlpha"/>
<feOffset dy="1.02621"/>
<feGaussianBlur stdDeviation="0.513106"/>
<feComposite in2="hardAlpha" operator="arithmetic" k2="-1" k3="1"/>
<feColorMatrix type="matrix" values="0 0 0 0 0 0 0 0 0 0 0 0 0 0 0 0 0 0 0.15 0"/>
<feBlend mode="normal" in2="shape" result="effect1_innerShadow_1275_5307"/>
</filter>
<linearGradient id="paint0_linear_1275_5307" x1="37.6785" y1="11.4338" x2="107.749" y2="79.3805" gradientUnits="userSpaceOnUse">
<stop stop-color="#FFE973"/>
<stop offset="0.71136" stop-color="white"/>
<stop offset="1" stop-color="#FFDD2C"/>
</linearGradient>
<clipPath id="clip0_1275_5307">
<rect width="98" height="98" fill="white" transform="translate(22)"/>
</clipPath>
</defs>
</svg>
