<svg width="142" height="142" viewBox="0 0 142 142" fill="none" xmlns="http://www.w3.org/2000/svg">
<path d="M32.9062 116.641V118.234C32.9062 120.125 32.9062 122.07 32.3906 125.047L30.625 124.891C31.1719 122.117 31.1719 120.07 31.1719 118.234V118.047H23.0312V116.641H32.9062ZM21.6719 127.453V126.031H34.5469V127.453H21.6719ZM48.4062 126.297V127.719H35.5V126.297H48.4062ZM37 117.672V116.266H46.875V120.812H38.7656V122.656H47.2031V124.031H37.0312V119.422H45.1562V117.672H37ZM62.2344 126.297V127.719H49.3281V126.297H62.2344ZM50.8281 117.672V116.266H60.7031V120.812H52.5938V122.656H61.0312V124.031H50.8594V119.422H58.9844V117.672H50.8281ZM74.2969 115.281V118.297H76.2812V119.719H74.2969V122.734H72.5625V115.281H74.2969ZM63.1094 121.469C66.5703 120.75 68.2812 119.203 68.5078 117.328H63.8125V115.922H70.4531C70.4453 119.625 68.0625 121.945 63.7656 122.891L63.1094 121.469ZM64.4844 124.641V123.359H69.2031V126.844H66.2188V127.938C68.1484 127.938 69.0469 127.883 70.1094 127.641L70.2812 128.938C69.0312 129.219 68.0156 129.242 65.4219 129.234H64.5156V125.625H67.5156V124.641H64.4844ZM69.8125 124.703V123.359H74.2969V129.297H72.5781V124.703H69.8125ZM92.5469 115.266V129.391H90.8125V115.266H92.5469ZM80.8438 125.469C81.9688 125.461 83.2422 125.461 84.5781 125.422V124.125C82.9922 123.875 81.9531 122.906 81.9531 121.562C81.9531 119.969 83.3672 118.914 85.4219 118.906C87.5 118.914 88.9375 119.969 88.9375 121.562C88.9375 122.898 87.8984 123.859 86.3125 124.117V125.359C87.5547 125.305 88.8047 125.203 89.9844 125.047L90.1094 126.344C87.0078 126.867 83.6328 126.906 81.0938 126.906L80.8438 125.469ZM81.1406 118.266V116.891H84.5781V115.312H86.3125V116.891H89.7344V118.266H81.1406ZM83.6094 121.562C83.5938 122.375 84.3516 122.852 85.4219 122.844C86.5234 122.852 87.2734 122.375 87.2656 121.562C87.2734 120.742 86.5234 120.242 85.4219 120.234C84.3516 120.242 83.5938 120.742 83.6094 121.562ZM99.6719 117.812C99.6719 119.539 100.789 121.164 103 121.844L102.172 123.203C100.586 122.703 99.4609 121.695 98.8438 120.422C98.2188 121.906 97.0312 123.086 95.3281 123.656L94.4531 122.281C96.7266 121.539 97.9219 119.703 97.9219 117.828V117.656H94.9375V116.25H102.609V117.656H99.6719V117.812ZM96.375 126.672C96.375 124.984 98.2031 124 101.156 124C104.086 124 105.883 124.984 105.891 126.672C105.883 128.375 104.086 129.375 101.156 129.375C98.2031 129.375 96.375 128.375 96.375 126.672ZM98.1094 126.672C98.1094 127.547 99.2188 128.008 101.156 128.016C103.086 128.008 104.172 127.547 104.172 126.672C104.172 125.812 103.086 125.359 101.156 125.359C99.2188 125.359 98.1094 125.812 98.1094 126.672ZM104.016 123.688V115.266H105.75V118.656H107.719V120.078H105.75V123.688H104.016ZM120.172 115.266V123.219H118.453V115.266H120.172ZM109.266 122.406V116.094H111.016V120.938C113.227 120.922 115.125 120.758 117.125 120.328L117.344 121.766C115.094 122.227 112.969 122.391 110.469 122.406H109.266ZM110.844 129.203V123.828H120.172V129.203H110.844ZM112.547 127.828H118.484V125.188H112.547V127.828Z" fill="#242424"/>
<g clip-path="url(#clip0_1275_5305)">
<path d="M119.02 49.0005C119.02 75.5258 97.5258 97.0205 71.0005 97.0205C44.4751 97.0205 22.9805 75.5258 22.9805 49.0005C22.9805 22.4751 44.4751 0.980469 71.0005 0.980469C97.5258 0.980469 119.02 22.4751 119.02 49.0005Z" fill="url(#paint0_linear_1275_5305)"/>
<g filter="url(#filter0_i_1275_5305)">
<circle cx="70.9999" cy="48.9999" r="42.4906" stroke="#FFC25D" stroke-width="2.56553"/>
</g>
<g filter="url(#filter1_i_1275_5305)">
<path fill-rule="evenodd" clip-rule="evenodd" d="M93.1539 31.8698C93.1719 31.9617 93.1878 32.0427 93.211 32.1007C93.2566 32.2146 92.8894 35.621 92.4494 39.7029C91.821 45.5332 91.044 52.7415 91.109 53.7013C91.109 55.0842 90.2793 70.6277 90.0027 75.5508C89.9474 76.3805 89.256 77.0443 88.4263 77.0443H88.0667C87.1817 77.0443 86.4902 76.3252 86.4902 75.4678C86.4902 71.5404 86.4349 61.4178 85.8541 57.9606C85.3563 55.1118 84.001 54.4204 82.2863 54.3651L81.4289 69.0236C81.3736 69.8533 80.6821 70.5171 79.8524 70.5171C79.0227 70.5171 78.3312 69.881 78.2759 69.0513L77.3355 54.697C76.0554 54.7815 75.3079 54.8819 74.6141 54.975C73.7189 55.0952 72.913 55.2034 71.1679 55.2501H71.1126C69.2713 55.2008 68.4073 55.0928 67.3993 54.9669C66.7116 54.881 65.9569 54.7867 64.779 54.697L63.8386 69.0513C63.7833 69.881 63.0919 70.5171 62.2621 70.5171C61.4324 70.5171 60.741 69.8533 60.6857 69.0236L59.8283 54.3651C58.1135 54.448 56.7583 55.1118 56.2604 57.9606C55.652 61.4178 55.6243 71.5404 55.6243 75.4678C55.6243 76.3529 54.9052 77.0443 54.0478 77.0443H53.6883C52.8586 77.0443 52.1671 76.3805 52.1118 75.5508C52.0384 74.0981 51.9119 71.7205 51.7702 69.0549C51.4315 62.6874 51.0055 54.6761 51.0055 53.7013C51.0055 52.8364 50.3529 46.8983 49.7559 41.4664C49.2265 36.6495 48.7409 32.2307 48.7929 32.1007C48.8161 32.0427 48.832 31.9617 48.85 31.8698C48.918 31.5232 49.0163 31.022 49.6503 31.022H52.1395C52.1395 31.022 53.0522 30.3859 54.7669 25.5735C56.4182 20.9126 62.5835 20.9452 64.2479 20.954C64.3119 20.9544 64.3693 20.9547 64.4194 20.9547H77.7781C77.8284 20.9547 77.8858 20.9544 77.9495 20.954C79.6018 20.9452 85.5859 20.9133 87.237 25.5735C88.9517 30.3859 89.8644 31.022 89.8644 31.022H92.3536C92.9876 31.022 93.0859 31.5232 93.1539 31.8698ZM62.0685 46.8422L63.2578 27.8967C63.3685 26.4585 62.6494 25.1033 60.7133 25.8501C59.4837 26.3244 58.8342 27.8251 58.1484 29.4098C57.7544 30.3202 57.3484 31.2583 56.8136 32.0454C55.7073 33.7878 55.5413 33.8431 54.7116 33.9814C52.4437 34.0367 52.7756 35.8068 52.7756 35.8068C53.9372 48.0591 58.4731 47.4783 58.4731 47.4783H60.8793C62.0962 47.506 62.0685 46.8422 62.0685 46.8422ZM68.8447 39.9831C69.0659 39.9831 69.2319 39.8172 69.2319 39.5959V29.086C69.2319 28.8648 69.0659 28.6988 68.8447 28.6988C68.6234 28.6988 68.4575 28.8648 68.4575 29.086V39.5959C68.4575 39.8172 68.6234 39.9831 68.8447 39.9831ZM73.3805 39.9831C73.6018 39.9831 73.7677 39.8172 73.7677 39.5959V29.086C73.7677 28.8648 73.6018 28.6988 73.3805 28.6988C73.1593 28.6988 72.9933 28.8648 72.9933 29.086V39.5959C72.9933 39.8172 73.1593 39.9831 73.3805 39.9831ZM83.5309 47.4783C83.5309 47.4783 88.0944 48.0315 89.2283 35.8068C89.2283 35.8068 89.5602 34.0367 87.2923 33.9814C86.4626 33.8431 86.2966 33.7878 85.1903 32.0454C84.5831 31.1517 84.2796 30.0634 83.9948 29.042C83.5921 27.5978 83.2267 26.2875 82.0927 25.8501C80.1566 25.1033 79.4099 26.4862 79.5205 27.8967L80.7098 46.8422C80.7098 46.8422 80.6821 47.506 81.8991 47.4783H83.5309ZM71.0852 47.5059C76.7827 47.5059 77.2805 47.3952 77.2805 47.2569C77.2805 47.1187 76.8104 47.008 71.0852 47.008C65.3878 47.008 64.6963 47.1187 64.6963 47.2569C64.6963 47.3952 65.3878 47.5059 71.0852 47.5059Z" fill="#FFC25D"/>
</g>
</g>
<defs>
<filter id="filter0_i_1275_5305" x="27.2266" y="5.22656" width="87.5469" height="88.5731" filterUnits="userSpaceOnUse" color-interpolation-filters="sRGB">
<feFlood flood-opacity="0" result="BackgroundImageFix"/>
<feBlend mode="normal" in="SourceGraphic" in2="BackgroundImageFix" result="shape"/>
<feColorMatrix in="SourceAlpha" type="matrix" values="0 0 0 0 0 0 0 0 0 0 0 0 0 0 0 0 0 0 127 0" result="hardAlpha"/>
<feOffset dy="1.02621"/>
<feGaussianBlur stdDeviation="0.513106"/>
<feComposite in2="hardAlpha" operator="arithmetic" k2="-1" k3="1"/>
<feColorMatrix type="matrix" values="0 0 0 0 0 0 0 0 0 0 0 0 0 0 0 0 0 0 0.15 0"/>
<feBlend mode="normal" in2="shape" result="effect1_innerShadow_1275_5305"/>
</filter>
<filter id="filter1_i_1275_5305" x="48.7891" y="20.9531" width="44.4258" height="57.117" filterUnits="userSpaceOnUse" color-interpolation-filters="sRGB">
<feFlood flood-opacity="0" result="BackgroundImageFix"/>
<feBlend mode="normal" in="SourceGraphic" in2="BackgroundImageFix" result="shape"/>
<feColorMatrix in="SourceAlpha" type="matrix" values="0 0 0 0 0 0 0 0 0 0 0 0 0 0 0 0 0 0 127 0" result="hardAlpha"/>
<feOffset dy="1.02621"/>
<feGaussianBlur stdDeviation="0.513106"/>
<feComposite in2="hardAlpha" operator="arithmetic" k2="-1" k3="1"/>
<feColorMatrix type="matrix" values="0 0 0 0 0 0 0 0 0 0 0 0 0 0 0 0 0 0 0.25 0"/>
<feBlend mode="normal" in2="shape" result="effect1_innerShadow_1275_5305"/>
</filter>
<linearGradient id="paint0_linear_1275_5305" x1="37.6805" y1="11.4338" x2="107.75" y2="79.3805" gradientUnits="userSpaceOnUse">
<stop stop-color="#FFE973"/>
<stop offset="0.71136" stop-color="white"/>
<stop offset="1" stop-color="#FFDD2C"/>
</linearGradient>
<clipPath id="clip0_1275_5305">
<rect width="98" height="98" fill="white" transform="translate(22)"/>
</clipPath>
</defs>
</svg>
