<svg width="142" height="142" viewBox="0 0 142 142" fill="none" xmlns="http://www.w3.org/2000/svg">
<path d="M53.7422 115.266V125.703H52.0078V122.016H50.0078V120.578H52.0078V119.234H50.0078V117.828H52.0078V115.266H53.7422ZM41.9297 122.406C42.4219 122.406 42.9609 122.406 43.5234 122.398V117.719H42.2891V116.328H49.8047V117.719H48.5547V122.234C49.0859 122.195 49.6016 122.148 50.1016 122.094L50.1797 123.359C47.5 123.789 44.3672 123.844 42.1172 123.844L41.9297 122.406ZM44.4609 129.109V124.891H46.2109V127.703H54.1016V129.109H44.4609ZM45.2109 122.375C45.7578 122.367 46.3203 122.344 46.8828 122.32V117.719H45.2109V122.375ZM61.0078 117.281C61 119.141 62.1719 120.891 64.4141 121.594L63.5547 122.969C61.9297 122.43 60.7656 121.352 60.125 119.969C59.4922 121.453 58.3047 122.633 56.6328 123.203L55.7578 121.844C58.0391 121.07 59.2188 119.195 59.2109 117.281V115.938H61.0078V117.281ZM57.8672 125.75V124.359H67.5078V129.391H65.7578V125.75H57.8672ZM65.7578 123.719V115.266H67.5078V123.719H65.7578ZM85.5391 116.156V117.391H74.0078V116.156H78.9297V115.094H80.6641V116.156H85.5391ZM73.3672 123.406V122.156H78.9297V121.391C76.4062 121.281 75.1016 120.719 75.1016 119.609C75.1016 118.383 76.7031 117.82 79.7891 117.812C82.875 117.82 84.4844 118.383 84.4922 119.609C84.4844 120.711 83.1797 121.281 80.6641 121.391V122.156H86.2422V123.406H73.3672ZM74.8828 125.312V124.094H84.6328V127.203H76.6641V128.031H85.0234V129.266H74.8984V126.047H82.8672V125.312H74.8828ZM76.9609 119.609C76.9609 120.07 77.8047 120.297 79.7891 120.297C81.7734 120.297 82.6484 120.07 82.6641 119.609C82.6484 119.148 81.7734 118.945 79.7891 118.953C77.8047 118.945 76.9609 119.148 76.9609 119.609ZM98.9609 115.281V123.922H97.2109V115.281H98.9609ZM87.9141 117.484V116.078H94.4297V120.266H89.6484V121.844C92.0625 121.836 93.7891 121.75 95.8047 121.453L96.0234 122.844C93.7969 123.203 91.8828 123.273 89.1484 123.266H87.9453V118.922H92.7109V117.484H87.9141ZM89.3203 126V124.578H98.9609V129.391H97.2109V126H89.3203Z" fill="#242424"/>
<g clip-path="url(#clip0_1275_5309)">
<path d="M119.02 49.0005C119.02 75.5258 97.5258 97.0205 71.0005 97.0205C44.4751 97.0205 22.9805 75.5258 22.9805 49.0005C22.9805 22.4751 44.4751 0.980469 71.0005 0.980469C97.5258 0.980469 119.02 22.4751 119.02 49.0005Z" fill="url(#paint0_linear_1275_5309)"/>
<g filter="url(#filter0_i_1275_5309)">
<path d="M113.49 49.0009C113.49 72.4678 94.4668 91.4914 70.9999 91.4914C47.533 91.4914 28.5093 72.4678 28.5093 49.0009C28.5093 25.534 47.533 6.5103 70.9999 6.5103C94.4668 6.5103 113.49 25.534 113.49 49.0009Z" stroke="white" stroke-width="2.56553"/>
</g>
<g filter="url(#filter1_i_1275_5309)">
<path fill-rule="evenodd" clip-rule="evenodd" d="M74.315 30.707V35.959L98.9225 30.707V60.6845L94.4967 61.5992V67.2937L88.6842 62.8679L67.8829 67.2937V62.0417L43.2754 67.2937V37.3162L74.315 30.707ZM55.697 44.6333L50.504 53.3669H60.8899L55.697 44.6333ZM67.6175 53.6327C70.1758 53.6327 72.2498 51.5587 72.2498 49.0003C72.2498 46.4419 70.1758 44.368 67.6175 44.368C65.0591 44.368 62.9851 46.4419 62.9851 49.0003C62.9851 51.5587 65.0591 53.6327 67.6175 53.6327ZM82.8431 44.5744H91.6947V53.426H82.8431V44.5744ZM76.8794 48.7727L73.3086 52.3435L74.5187 53.5536L78.128 49.9442L77.433 49.2493L81.0038 45.6784L79.7937 44.4684L76.1844 48.0777L76.8794 48.7727ZM76.8794 48.7727L77.3945 49.2878L77.433 49.2493L76.9179 48.7342L76.8794 48.7727Z" fill="url(#paint1_linear_1275_5309)"/>
</g>
</g>
<defs>
<filter id="filter0_i_1275_5309" x="27.2266" y="5.22754" width="87.5469" height="88.5731" filterUnits="userSpaceOnUse" color-interpolation-filters="sRGB">
<feFlood flood-opacity="0" result="BackgroundImageFix"/>
<feBlend mode="normal" in="SourceGraphic" in2="BackgroundImageFix" result="shape"/>
<feColorMatrix in="SourceAlpha" type="matrix" values="0 0 0 0 0 0 0 0 0 0 0 0 0 0 0 0 0 0 127 0" result="hardAlpha"/>
<feOffset dy="1.02621"/>
<feGaussianBlur stdDeviation="0.513106"/>
<feComposite in2="hardAlpha" operator="arithmetic" k2="-1" k3="1"/>
<feColorMatrix type="matrix" values="0 0 0 0 0 0 0 0 0 0 0 0 0 0 0 0 0 0 0.15 0"/>
<feBlend mode="normal" in2="shape" result="effect1_innerShadow_1275_5309"/>
</filter>
<filter id="filter1_i_1275_5309" x="43.2754" y="30.707" width="55.6465" height="37.6131" filterUnits="userSpaceOnUse" color-interpolation-filters="sRGB">
<feFlood flood-opacity="0" result="BackgroundImageFix"/>
<feBlend mode="normal" in="SourceGraphic" in2="BackgroundImageFix" result="shape"/>
<feColorMatrix in="SourceAlpha" type="matrix" values="0 0 0 0 0 0 0 0 0 0 0 0 0 0 0 0 0 0 127 0" result="hardAlpha"/>
<feOffset dy="1.02621"/>
<feGaussianBlur stdDeviation="0.513106"/>
<feComposite in2="hardAlpha" operator="arithmetic" k2="-1" k3="1"/>
<feColorMatrix type="matrix" values="0 0 0 0 0 0 0 0 0 0 0 0 0 0 0 0 0 0 0.25 0"/>
<feBlend mode="normal" in2="shape" result="effect1_innerShadow_1275_5309"/>
</filter>
<linearGradient id="paint0_linear_1275_5309" x1="37.6805" y1="11.4338" x2="107.75" y2="79.3805" gradientUnits="userSpaceOnUse">
<stop stop-color="#E12E28"/>
<stop offset="1" stop-color="#F9AF31"/>
</linearGradient>
<linearGradient id="paint1_linear_1275_5309" x1="63.7083" y1="26.1337" x2="122.719" y2="40.8052" gradientUnits="userSpaceOnUse">
<stop stop-color="white"/>
<stop offset="1" stop-color="white"/>
</linearGradient>
<clipPath id="clip0_1275_5309">
<rect width="98" height="98" fill="white" transform="translate(22)"/>
</clipPath>
</defs>
</svg>
