<svg width="142" height="142" viewBox="0 0 142 142" fill="none" xmlns="http://www.w3.org/2000/svg">
<path d="M40.3516 115.281V125.594H38.6016V115.281H40.3516ZM28.6016 122.266C30.8906 121.461 32.0625 119.469 32.0547 117.438V116.062H33.8516V117.438C33.8438 119.406 35 121.266 37.2422 122.016L36.3516 123.391C34.7422 122.828 33.5938 121.703 32.9688 120.258C32.3438 121.805 31.1719 123.039 29.5078 123.641L28.6016 122.266ZM31.0078 129.109V124.609H32.7578V127.703H40.7422V129.109H31.0078ZM54.5703 115.266V129.391H52.9141V115.266H54.5703ZM42.1641 125.375C44.2031 124.133 45.1016 121.586 45.1016 119.125V118.188H42.6484V116.781H49.0547V118.188H46.7734V119.125C46.7734 121.508 47.625 123.898 49.6484 125.062L48.6172 126.344C47.3125 125.57 46.4453 124.227 45.9531 122.617C45.4531 124.359 44.5547 125.844 43.2266 126.672L42.1641 125.375ZM48.0234 121.594V120.188H50.0547V115.531H51.6953V128.703H50.0547V121.594H48.0234ZM69.1172 121.953V123.344H63.5234V124.703H67.5547V129.219H57.7578V124.703H61.8047V123.344H56.2422V121.953H69.1172ZM57.3984 117.078V115.688H67.9297V117.078H65.9922V119.5H67.8516V120.906H57.4766V119.5H59.3359V117.078H57.3984ZM59.4766 127.812H65.8672V126.047H59.4766V127.812ZM61.0703 119.5H64.2422V117.078H61.0703V119.5ZM77.7891 115.891C79.6172 115.883 81.0547 116.938 81.4062 118.484H83.9609V115.266H85.6953V122.844H83.9609V119.891H81.4219C81.0859 121.477 79.6328 122.547 77.7891 122.547C75.625 122.547 74.0547 121.156 74.0547 119.203C74.0547 117.273 75.625 115.883 77.7891 115.891ZM75.7109 119.203C75.7109 120.336 76.5703 121.086 77.7891 121.078C78.9766 121.086 79.8281 120.336 79.8359 119.203C79.8281 118.07 78.9766 117.336 77.7891 117.344C76.5703 117.336 75.7109 118.07 75.7109 119.203ZM76.3828 129.219V123.5H78.1016V125H83.9609V123.5H85.6953V129.219H76.3828ZM78.1016 127.812H83.9609V126.344H78.1016V127.812ZM100.602 126.312V127.75H87.6953V126.312H93.2578V124.016H89.2266V119.391H97.3516V117.641H89.1953V116.234H99.0703V120.766H90.9609V122.594H99.3984V124.016H94.9766V126.312H100.602ZM108.664 116.547V117.969H103.961V124.547C106.172 124.531 107.727 124.438 109.477 124.109L109.664 125.516C107.68 125.906 105.969 125.984 103.336 125.984H102.211V116.547H108.664ZM107.914 121.656V120.234H111.648V115.266H113.383V129.406H111.648V121.656H107.914Z" fill="#242424"/>
<g clip-path="url(#clip0_1275_5276)">
<path d="M119.022 49.0005C119.022 75.5258 97.5277 97.0205 71.0024 97.0205C44.4771 97.0205 22.9824 75.5258 22.9824 49.0005C22.9824 22.4751 44.4771 0.980469 71.0024 0.980469C97.5277 0.980469 119.022 22.4751 119.022 49.0005Z" fill="url(#paint0_linear_1275_5276)"/>
<g filter="url(#filter0_i_1275_5276)">
<path fill-rule="evenodd" clip-rule="evenodd" d="M96.2522 54.4235L96.2285 54.4488C95.4646 55.2604 94.7007 56.0959 94.5098 56.6927C94.2949 57.3611 94.4381 58.5547 94.5814 59.6767L94.5889 59.739C94.8259 61.705 95.0931 63.9208 93.8175 65.6924C92.5537 67.4711 90.3722 67.896 88.4425 68.2719L88.3269 68.2945L88.2298 68.3135C87.1619 68.5221 86.0668 68.7361 85.5339 69.13C84.9876 69.51 84.4413 70.5281 83.9185 71.5024L83.9106 71.5172C82.9558 73.2837 81.8576 75.3128 79.7092 76.0051C79.2079 76.1722 78.7065 76.2438 78.2291 76.2438C76.6841 76.2438 75.2309 75.5552 73.8921 74.9207L73.8128 74.8831L73.6137 74.7903C72.6491 74.3401 71.6643 73.8805 70.972 73.8805C70.2559 73.8805 69.1578 74.3818 68.1313 74.8831L68.0724 74.911C66.3197 75.7402 64.3126 76.6897 62.2588 76.0051C60.1103 75.3128 59.0122 73.2837 58.0573 71.5172L57.9363 71.3009C57.4277 70.391 56.9206 69.4839 56.434 69.13C55.9025 68.7602 54.8115 68.547 53.746 68.3389L53.641 68.3183C51.6835 67.9603 49.4634 67.5306 48.1505 65.7163C46.8614 63.9259 47.124 61.682 47.3866 59.7006C47.5298 58.5786 47.673 57.4089 47.4582 56.7166C47.2686 56.1004 46.4909 55.2725 45.7555 54.4898L45.7394 54.4726L45.7158 54.4474C44.337 52.9736 42.7793 51.3085 42.7793 49.0298C42.7793 46.7755 44.327 45.1217 45.6954 43.6595L45.7633 43.587C45.8386 43.5045 45.9144 43.4219 45.99 43.3395C46.6574 42.6122 47.3105 41.9006 47.4821 41.3431C47.6969 40.6747 47.5537 39.4811 47.4105 38.3591L47.4029 38.2968C47.1659 36.3308 46.8988 34.115 48.1744 32.3434C49.4381 30.5647 51.6196 30.1398 53.5493 29.7639L53.6649 29.7413L53.762 29.7223C54.8299 29.5137 55.925 29.2997 56.4579 28.9058C57.0042 28.5258 57.5505 27.5077 58.0733 26.5334L58.0812 26.5186C59.0361 24.7521 60.1342 22.723 62.2827 22.0307C64.3365 21.3461 66.3436 22.2956 68.0963 23.1248L68.1552 23.1527L68.3543 23.2455C69.3189 23.6957 70.3036 24.1553 70.9959 24.1553C71.6882 24.1553 72.673 23.6957 73.6375 23.2455L73.8367 23.1527C75.6032 22.3172 77.6323 21.3623 79.7092 22.0307C81.8576 22.723 82.9558 24.7282 83.9106 26.5186L84.0317 26.7349C84.5403 27.6448 85.0473 28.5519 85.5339 28.9058C86.0655 29.2756 87.1565 29.4887 88.2219 29.6969L88.3269 29.7174C90.2844 30.0755 92.5045 30.5052 93.8175 32.3195C95.1066 34.1099 94.844 36.3538 94.5814 38.3352C94.4381 39.4572 94.2949 40.6269 94.5098 41.3192C94.6994 41.9354 95.4771 42.7633 96.2124 43.546L96.2285 43.5632L96.2521 43.5884C97.631 45.0622 99.1887 46.7273 99.1887 49.006C99.1887 51.2846 97.631 52.9497 96.2522 54.4235ZM75.2682 44.3269C75.2682 45.4011 74.4088 46.2605 73.3345 46.2605L69.6582 46.3083V47.0961H70.9951C72.0693 47.0961 72.9287 47.9554 72.9287 49.0297C72.9287 50.1039 72.0693 50.9633 70.9951 50.9633H69.6582V51.7511H73.3345C74.4088 51.7511 75.2682 52.6105 75.2682 53.6847C75.2682 54.7589 74.4088 55.6183 73.3345 55.6183H67.7246C66.6504 55.6183 65.791 54.7589 65.791 53.6847V44.3269C65.791 43.2527 66.6504 42.3933 67.7246 42.3933H73.3345C74.4088 42.3933 75.2682 43.2527 75.2682 44.3269ZM62.1144 42.3933C61.0401 42.3933 60.1807 43.2526 60.1807 44.3269V46.6902L58.1516 43.3243C57.698 42.5842 56.8148 42.2262 55.9793 42.4649C55.1438 42.7036 54.547 43.4675 54.547 44.3269V53.6847C54.547 54.7589 55.4063 55.6183 56.4806 55.6183C57.5548 55.6183 58.4142 54.7589 58.4142 53.6847V51.3214L60.4433 54.6873C60.8014 55.2841 61.4459 55.6422 62.1144 55.6422C62.2815 55.6422 62.4486 55.6183 62.6395 55.5706C63.4751 55.3318 64.0719 54.5679 64.0719 53.7086V44.3508C64.048 43.2526 63.1886 42.3933 62.1144 42.3933ZM83.5746 44.3269C83.5746 43.2527 84.4339 42.3933 85.5082 42.3933C86.5824 42.3933 87.4418 43.2527 87.4418 44.3269V53.6847C87.4418 54.5202 86.9166 55.2603 86.1288 55.5228C85.9379 55.5706 85.723 55.6183 85.5082 55.6183C84.9114 55.6183 84.3385 55.3319 83.9565 54.8544L81.7603 51.9659L79.5641 54.8544C79.0628 55.5228 78.2034 55.7854 77.4156 55.5228C76.6278 55.2603 76.1026 54.5202 76.1026 53.6847V44.3269C76.1026 43.2527 76.962 42.3933 78.0363 42.3933C79.1105 42.3933 79.9699 43.2527 79.9699 44.3269V47.9316L80.2325 47.5974C80.9725 46.6425 82.5719 46.6425 83.312 47.5974L83.5746 47.9316V44.3269Z" fill="#98A2B3"/>
</g>
<g filter="url(#filter1_i_1275_5276)">
<circle cx="71.0018" cy="49.0009" r="42.4906" stroke="#98A2B3" stroke-width="2.56553"/>
</g>
</g>
<defs>
<filter id="filter0_i_1275_5276" x="42.7793" y="21.7959" width="56.4102" height="55.3979" filterUnits="userSpaceOnUse" color-interpolation-filters="sRGB">
<feFlood flood-opacity="0" result="BackgroundImageFix"/>
<feBlend mode="normal" in="SourceGraphic" in2="BackgroundImageFix" result="shape"/>
<feColorMatrix in="SourceAlpha" type="matrix" values="0 0 0 0 0 0 0 0 0 0 0 0 0 0 0 0 0 0 127 0" result="hardAlpha"/>
<feOffset dy="0.949641"/>
<feGaussianBlur stdDeviation="0.474821"/>
<feComposite in2="hardAlpha" operator="arithmetic" k2="-1" k3="1"/>
<feColorMatrix type="matrix" values="0 0 0 0 0 0 0 0 0 0 0 0 0 0 0 0 0 0 0.25 0"/>
<feBlend mode="normal" in2="shape" result="effect1_innerShadow_1275_5276"/>
</filter>
<filter id="filter1_i_1275_5276" x="27.2285" y="5.22754" width="87.5469" height="88.5731" filterUnits="userSpaceOnUse" color-interpolation-filters="sRGB">
<feFlood flood-opacity="0" result="BackgroundImageFix"/>
<feBlend mode="normal" in="SourceGraphic" in2="BackgroundImageFix" result="shape"/>
<feColorMatrix in="SourceAlpha" type="matrix" values="0 0 0 0 0 0 0 0 0 0 0 0 0 0 0 0 0 0 127 0" result="hardAlpha"/>
<feOffset dy="1.02621"/>
<feGaussianBlur stdDeviation="0.513106"/>
<feComposite in2="hardAlpha" operator="arithmetic" k2="-1" k3="1"/>
<feColorMatrix type="matrix" values="0 0 0 0 0 0 0 0 0 0 0 0 0 0 0 0 0 0 0.15 0"/>
<feBlend mode="normal" in2="shape" result="effect1_innerShadow_1275_5276"/>
</filter>
<linearGradient id="paint0_linear_1275_5276" x1="37.6824" y1="11.4338" x2="107.752" y2="79.3805" gradientUnits="userSpaceOnUse">
<stop stop-color="#CFD2D9"/>
<stop offset="0.71136" stop-color="white"/>
<stop offset="1" stop-color="#BAC1CB"/>
</linearGradient>
<clipPath id="clip0_1275_5276">
<rect width="98" height="98" fill="white" transform="translate(22)"/>
</clipPath>
</defs>
</svg>
