<svg width="274" height="50" viewBox="0 0 274 50" fill="none" xmlns="http://www.w3.org/2000/svg">
<path d="M99.4297 34V17.0312H102.945V31.0938H110.258V34H99.4297ZM122.68 21.2734L118.203 34H114.312L109.859 21.2734H113.516L116.188 30.4141H116.328L119 21.2734H122.68ZM125.609 34.2109C124.508 34.2109 123.617 33.332 123.641 32.2422C123.617 31.1641 124.508 30.2852 125.609 30.2969C126.652 30.2852 127.555 31.1641 127.555 32.2422C127.555 33.332 126.652 34.2109 125.609 34.2109ZM151.297 14.8281V18.9531H154.18V21.4141H151.297V25.4922H148.297V14.8281H151.297ZM134.516 20.2891C134.504 17.4414 136.977 15.4727 140.258 15.4609C143.527 15.4727 145.977 17.4414 145.977 20.2891C145.977 23.1016 143.527 25.1172 140.258 25.1172C136.977 25.1172 134.504 23.1016 134.516 20.2891ZM137.141 28.6328V26.3359H151.297V32.1484H140.117V33.5781H151.906V35.9219H137.188V29.9922H148.32V28.6328H137.141ZM137.445 20.2891C137.422 21.8008 138.617 22.75 140.258 22.75C141.887 22.75 143.07 21.8008 143.07 20.2891C143.07 18.8008 141.887 17.8984 140.258 17.8984C138.617 17.8984 137.422 18.8008 137.445 20.2891ZM171.945 14.8281V22.7969H175.086V25.3047H171.945V36.1562H168.945V14.8281H171.945ZM155.797 31.2109V16.5156H158.773V21.7188H163.203V16.5156H166.18V31.2109H155.797ZM158.773 28.7969H163.203V24.0391H158.773V28.7969Z" fill="#242424"/>
<rect x="1" y="1" width="272" height="48" rx="9" stroke="url(#paint0_linear_1275_5654)" stroke-width="2"/>
<defs>
<linearGradient id="paint0_linear_1275_5654" x1="241.891" y1="50" x2="104.889" y2="-59.1232" gradientUnits="userSpaceOnUse">
<stop stop-color="#FFB334"/>
<stop offset="1" stop-color="#D9D9D9"/>
</linearGradient>
</defs>
</svg>
