<svg width="142" height="142" viewBox="0 0 142 142" fill="none" xmlns="http://www.w3.org/2000/svg">
<path d="M32.25 122.828V125.117C33.4766 125.047 34.7109 124.938 35.875 124.766L36.0156 126.047C32.8516 126.633 29.4609 126.664 26.9688 126.656L26.75 125.25C27.8516 125.242 29.1484 125.234 30.5156 125.195V122.828H32.25ZM27.0781 121.969C29.2031 121.383 30.375 119.984 30.4766 118.406H27.5V117H30.5156V115.391H32.25V117H35.2969V118.406H32.2734C32.3672 119.914 33.5625 121.266 35.6875 121.812L34.8906 123.172C33.2188 122.719 32.0234 121.742 31.3828 120.492C30.7656 121.805 29.5859 122.828 27.9062 123.281L27.0781 121.969ZM36.7188 129.406V115.266H38.4531V129.406H36.7188ZM53.4219 126.234V127.641H40.5156V126.234H46.0469V122.969H47.7656V126.234H53.4219ZM40.8906 121.875C43.8438 121.398 45.9609 119.281 45.9688 117.156V116.125H47.8125V117.156C47.8125 119.289 49.9453 121.398 52.9219 121.875L52.1719 123.312C49.7891 122.859 47.8281 121.492 46.8906 119.641C45.9609 121.484 44.0234 122.867 41.6406 123.312L40.8906 121.875ZM61.5312 115.797V117.328H67.625V115.797H69.3438V121.531H65.4375V122.828H71.0156V124.234H58.1406V122.828H63.6875V121.531H59.8125V115.797H61.5312ZM59.7344 129.109V125.141H61.4688V127.703H69.5625V129.109H59.7344ZM61.5312 120.141H67.625V118.672H61.5312V120.141ZM77.0156 118.656C77 121.18 78.2656 123.727 80.4531 124.781L79.3906 126.172C77.8594 125.398 76.7578 123.906 76.1562 122.109C75.5391 124.031 74.3828 125.625 72.7656 126.438L71.7031 125.047C73.9766 123.969 75.2734 121.266 75.2812 118.656V116.406H77.0156V118.656ZM81.2969 129.391V115.266H83.0312V120.797H85.2031V122.281H83.0312V129.391H81.2969ZM94.9531 117.719C94.9531 119.461 96.1562 121.203 98.4062 121.906L97.5156 123.25C95.9141 122.734 94.75 121.672 94.1016 120.328C93.4688 121.789 92.2656 122.953 90.5938 123.516L89.7031 122.172C91.9766 121.406 93.1875 119.57 93.2031 117.719V117.547H90.1562V116.156H97.9219V117.547H94.9531V117.719ZM91.7188 125.844V124.438H101.359V129.391H99.6094V125.844H91.7188ZM99.6094 123.781V115.266H101.359V123.781H99.6094ZM115.266 115.281V125.969H113.516V124.734H110.75V123.516H113.516V115.281H115.266ZM103.359 121.625C105.961 121.609 109.469 121.586 112.469 121.203L112.562 122.453C111.398 122.648 110.195 122.773 109 122.859V125.578H107.266V122.953C105.945 123.008 104.688 123.016 103.578 123.016L103.359 121.625ZM104.438 118.297C104.438 116.805 105.875 115.789 107.969 115.797C110.023 115.789 111.469 116.805 111.484 118.297C111.469 119.812 110.023 120.773 107.969 120.781C105.875 120.773 104.438 119.812 104.438 118.297ZM105.234 129.109V124.938H106.969V127.703H115.594V129.109H105.234ZM106.078 118.297C106.078 119.062 106.836 119.508 107.969 119.516C109.047 119.508 109.82 119.062 109.828 118.297C109.82 117.531 109.047 117.07 107.969 117.078C106.836 117.07 106.078 117.531 106.078 118.297Z" fill="#242424"/>
<g clip-path="url(#clip0_1275_5285)">
<path d="M119.02 48.9995C119.02 75.5248 97.5258 97.0195 71.0005 97.0195C44.4751 97.0195 22.9805 75.5248 22.9805 48.9995C22.9805 22.4742 44.4751 0.979492 71.0005 0.979492C97.5258 0.979492 119.02 22.4742 119.02 48.9995Z" fill="url(#paint0_linear_1275_5285)"/>
<g filter="url(#filter0_i_1275_5285)">
<circle cx="70.9999" cy="48.9999" r="42.4906" stroke="#FFC25D" stroke-width="2.56553"/>
</g>
<g filter="url(#filter1_i_1275_5285)">
<path fill-rule="evenodd" clip-rule="evenodd" d="M69.0432 16.8655L67.6523 19.4927C67.6008 19.5957 67.5235 19.6473 67.3947 19.673L64.4584 20.1882C63.6599 20.3169 62.9903 20.9094 62.7327 21.6821C62.4751 22.4548 62.6812 23.3048 63.2478 23.8972L65.3084 26.035C65.3857 26.1123 65.4114 26.2153 65.4114 26.3184L64.9993 29.2547C64.8705 30.0531 65.2311 30.8774 65.8751 31.3667C66.5447 31.8561 67.4205 31.9334 68.1417 31.5728L70.8204 30.2592C70.9234 30.2077 71.0265 30.2077 71.1295 30.2592L73.8082 31.5728C74.5552 31.9334 75.4052 31.8561 76.0749 31.3667C76.7446 30.8774 77.0794 30.0789 76.9506 29.2547L76.5385 26.3184C76.5127 26.2153 76.5643 26.1123 76.6415 26.035L78.7021 23.8972C79.2687 23.3048 79.4748 22.4548 79.2172 21.6821C78.9597 20.9094 78.29 20.3169 77.4915 20.1882L74.5552 19.673C74.4522 19.6473 74.3491 19.5957 74.2976 19.4927L72.9067 16.8655C72.5204 16.1443 71.7734 15.6807 70.9492 15.6807C70.1765 15.6807 69.4295 16.1185 69.0432 16.8655Z" fill="#FFC25D"/>
<path fill-rule="evenodd" clip-rule="evenodd" d="M93.9758 25.572L91.1425 26.4477C91.0394 26.4735 90.9364 26.4735 90.8334 26.3962L88.4122 24.6705C87.7425 24.2068 86.8668 24.1296 86.1456 24.5159C85.4244 24.8765 84.9608 25.6235 84.935 26.4477L84.8835 29.4098C84.8835 29.5128 84.832 29.6158 84.7547 29.6674L82.3851 31.4446C81.7411 31.934 81.4063 32.7582 81.5351 33.5567C81.6639 34.3551 82.2305 35.0248 83.0032 35.3082L85.8108 36.2612C85.9138 36.2869 85.9911 36.3642 86.0168 36.4672L86.9698 39.3263C87.2274 40.099 87.8971 40.6656 88.7213 40.7944C89.5198 40.9232 90.344 40.5884 90.8334 39.9444L92.6106 37.5748C92.6621 37.4975 92.7652 37.446 92.8682 37.446L95.8303 37.3945C96.6545 37.3945 97.4015 36.9309 97.7621 36.1839C98.1227 35.4627 98.0711 34.587 97.6075 33.9173L95.9075 31.4961C95.856 31.4188 95.8303 31.2901 95.856 31.187L96.7318 28.3537C96.9636 27.581 96.7575 26.731 96.1909 26.1386C95.6242 25.5462 94.7742 25.3144 93.9758 25.572Z" fill="#FFC25D"/>
<path fill-rule="evenodd" clip-rule="evenodd" d="M45.2679 28.327L46.1436 31.1603C46.1694 31.2633 46.1694 31.3664 46.0921 31.4694L44.3922 33.8906C43.9285 34.5602 43.8513 35.436 44.2376 36.1572C44.5982 36.8784 45.3452 37.342 46.1694 37.3678L49.1315 37.4193C49.2345 37.4193 49.3375 37.4708 49.389 37.5481L51.1663 39.9177C51.6557 40.5616 52.4799 40.8965 53.2784 40.7677C54.0768 40.6389 54.7465 40.0723 55.0298 39.2995L55.9829 36.492C56.0086 36.389 56.0859 36.3117 56.1889 36.286L58.9964 35.3329C59.7691 35.0754 60.3358 34.4057 60.4646 33.5815C60.5934 32.783 60.2585 31.9588 59.6146 31.4694L57.245 29.6921C57.1677 29.6406 57.1162 29.5376 57.1162 29.4346L57.0647 26.4467C57.0647 25.6225 56.601 24.8756 55.8541 24.515C55.1329 24.1544 54.2571 24.2059 53.5874 24.6695L51.1663 26.3952C51.089 26.4467 50.9602 26.4725 50.8572 26.4467L48.0239 25.571C47.2512 25.3392 46.4012 25.5452 45.8088 26.1119C45.2164 26.7043 45.0103 27.5543 45.2679 28.327Z" fill="#FFC25D"/>
</g>
<g filter="url(#filter2_i_1275_5285)">
<path fill-rule="evenodd" clip-rule="evenodd" d="M93.7932 58.9264C93.7932 60.7809 92.5311 62.146 91.3978 63.3309C90.7796 63.9748 90.1615 64.6445 90.0069 65.1339C89.8424 65.6508 89.9352 66.468 90.031 67.3114V67.3115C90.0402 67.3925 90.0494 67.4738 90.0584 67.555C90.2645 69.152 90.4706 70.9807 89.4403 72.4231C88.3662 73.8808 86.6066 74.2213 85.0186 74.5286L84.9843 74.5352C84.8838 74.5559 84.7827 74.5762 84.6817 74.5965L84.6816 74.5965C83.9022 74.7533 83.131 74.9085 82.7434 75.2049C82.3264 75.4993 81.9094 76.2609 81.4923 77.0225L81.4298 77.1367C80.6828 78.5791 79.7813 80.2018 78.0556 80.7684C77.6693 80.8972 77.2571 80.9487 76.8708 80.9487C75.6658 80.9487 74.5078 80.4087 73.4416 79.9115L73.2906 79.8412C72.4663 79.429 71.5906 79.0169 70.9982 79.0169C70.4058 79.0169 69.5558 79.429 68.7058 79.8412C67.2634 80.5366 65.6149 81.3093 63.9407 80.7684C62.215 80.2018 61.3393 78.5791 60.5665 77.1367L60.504 77.0225C60.087 76.2609 59.6699 75.4992 59.2529 75.2049C58.8151 74.87 57.9136 74.6897 57.0121 74.5352L56.9597 74.5251C55.3758 74.2187 53.6006 73.8752 52.5561 72.4231C51.5 70.9807 51.7318 69.152 51.9379 67.555L51.963 67.332C52.0596 66.4778 52.1553 65.6314 51.9894 65.1339C51.8471 64.6832 51.2897 64.0796 50.7398 63.484L50.5985 63.3309L50.5763 63.3071C49.4738 62.1278 48.2031 60.7685 48.2031 58.9264C48.2031 57.0719 49.4652 55.7068 50.5985 54.5219L50.7398 54.3688C51.2897 53.7732 51.8471 53.1696 51.9894 52.7189C52.1539 52.2019 52.0611 51.3848 51.9654 50.5413C51.9562 50.4603 51.9469 50.379 51.9379 50.2978C51.7318 48.7008 51.5258 46.8721 52.5561 45.4297C53.6301 43.972 55.3897 43.6315 56.9778 43.3242L57.0121 43.3176C57.1123 43.2969 57.2132 43.2767 57.3139 43.2564L57.3144 43.2563L57.3147 43.2562C58.0941 43.0994 58.8653 42.9443 59.2529 42.6479C59.6699 42.3535 60.087 41.5919 60.504 40.8303L60.5665 40.7161C61.3135 39.2737 62.215 37.651 63.9407 37.0844C65.5625 36.5354 67.136 37.2675 68.544 37.9226L68.68 37.9859C69.5043 38.398 70.38 38.8101 70.9724 38.8101C71.5614 38.8101 72.4306 38.4027 73.2507 38.0182L73.2648 38.0116C74.7072 37.3162 76.3556 36.5435 78.0299 37.0844C79.7813 37.651 80.6571 39.2737 81.4298 40.7161L81.4923 40.8303C81.9094 41.5919 82.3264 42.3535 82.7434 42.6479C83.1813 42.9827 84.0828 43.163 84.9843 43.3176L85.0367 43.3277C86.6205 43.6341 88.3958 43.9775 89.4403 45.4297C90.4963 46.8721 90.2645 48.7008 90.0584 50.2978L90.0334 50.5207C89.9368 51.375 89.8411 52.2213 90.0069 52.7189C90.1492 53.1696 90.7066 53.7732 91.2566 54.3688L91.3978 54.5219L91.42 54.5457C92.5225 55.725 93.7932 57.0843 93.7932 58.9264ZM74.449 55.1405C74.449 56.0162 73.7536 56.7117 72.8778 56.7117L69.89 56.6859V57.3299H70.9718C71.8475 57.3299 72.543 58.0253 72.543 58.901C72.543 59.7768 71.8475 60.4722 70.9718 60.4722H69.89V61.1162H72.8778C73.7536 61.1162 74.449 61.8116 74.449 62.6873C74.449 63.5631 73.7536 64.2585 72.8778 64.2585H68.3446C67.4688 64.2585 66.7734 63.5631 66.7734 62.6873V55.1405C66.7734 54.2648 67.4688 53.5693 68.3446 53.5693H72.8778C73.7536 53.5693 74.449 54.2648 74.449 55.1405ZM63.8118 53.5951C62.9361 53.5951 62.2406 54.2906 62.2406 55.1663V57.0723L60.6179 54.3678C60.2573 53.7754 59.5362 53.4663 58.8665 53.6724C58.1968 53.8527 57.7074 54.4709 57.7074 55.1921V62.7389C57.7074 63.6146 58.4028 64.3101 59.2786 64.3101C60.1543 64.3101 60.8498 63.6146 60.8498 62.7389V60.8329L62.4725 63.5374C62.7558 64.0267 63.2709 64.3101 63.8118 64.3101C63.9406 64.3101 64.0952 64.2843 64.2239 64.2586C64.8936 64.0783 65.383 63.4601 65.383 62.7389V55.1921C65.383 54.2906 64.6876 53.5951 63.8118 53.5951ZM81.1466 55.1663C81.1466 54.2906 81.8421 53.5951 82.7178 53.5951C83.5936 53.5951 84.289 54.2906 84.2375 55.1663V62.7131C84.2375 63.3828 83.8254 64.001 83.1814 64.2071C83.0269 64.2586 82.8466 64.2843 82.6921 64.2843C82.2284 64.2843 81.7648 64.0525 81.4557 63.6662L79.6785 61.3223L77.9012 63.6662C77.4891 64.2071 76.7937 64.4389 76.1498 64.2071C75.5316 63.9752 75.0937 63.3828 75.0937 62.7131V55.1663C75.0937 54.2906 75.7892 53.5951 76.6649 53.5951C77.5406 53.5951 78.2361 54.2906 78.2361 55.1663V58.0769L78.4421 57.7935C79.0345 57.0208 80.3482 57.0208 80.9406 57.7935L81.1466 58.0769V55.1663Z" fill="#FFC25D"/>
</g>
</g>
<defs>
<filter id="filter0_i_1275_5285" x="27.2266" y="5.22656" width="87.5469" height="88.5731" filterUnits="userSpaceOnUse" color-interpolation-filters="sRGB">
<feFlood flood-opacity="0" result="BackgroundImageFix"/>
<feBlend mode="normal" in="SourceGraphic" in2="BackgroundImageFix" result="shape"/>
<feColorMatrix in="SourceAlpha" type="matrix" values="0 0 0 0 0 0 0 0 0 0 0 0 0 0 0 0 0 0 127 0" result="hardAlpha"/>
<feOffset dy="1.02621"/>
<feGaussianBlur stdDeviation="0.513106"/>
<feComposite in2="hardAlpha" operator="arithmetic" k2="-1" k3="1"/>
<feColorMatrix type="matrix" values="0 0 0 0 0 0 0 0 0 0 0 0 0 0 0 0 0 0 0.15 0"/>
<feBlend mode="normal" in2="shape" result="effect1_innerShadow_1275_5285"/>
</filter>
<filter id="filter1_i_1275_5285" x="43.9902" y="15.6807" width="54.0078" height="26.1668" filterUnits="userSpaceOnUse" color-interpolation-filters="sRGB">
<feFlood flood-opacity="0" result="BackgroundImageFix"/>
<feBlend mode="normal" in="SourceGraphic" in2="BackgroundImageFix" result="shape"/>
<feColorMatrix in="SourceAlpha" type="matrix" values="0 0 0 0 0 0 0 0 0 0 0 0 0 0 0 0 0 0 127 0" result="hardAlpha"/>
<feOffset dy="1.02621"/>
<feGaussianBlur stdDeviation="0.513106"/>
<feComposite in2="hardAlpha" operator="arithmetic" k2="-1" k3="1"/>
<feColorMatrix type="matrix" values="0 0 0 0 0 0 0 0 0 0 0 0 0 0 0 0 0 0 0.25 0"/>
<feBlend mode="normal" in2="shape" result="effect1_innerShadow_1275_5285"/>
</filter>
<filter id="filter2_i_1275_5285" x="48.2031" y="36.8916" width="45.5898" height="45.0848" filterUnits="userSpaceOnUse" color-interpolation-filters="sRGB">
<feFlood flood-opacity="0" result="BackgroundImageFix"/>
<feBlend mode="normal" in="SourceGraphic" in2="BackgroundImageFix" result="shape"/>
<feColorMatrix in="SourceAlpha" type="matrix" values="0 0 0 0 0 0 0 0 0 0 0 0 0 0 0 0 0 0 127 0" result="hardAlpha"/>
<feOffset dy="1.02621"/>
<feGaussianBlur stdDeviation="0.513106"/>
<feComposite in2="hardAlpha" operator="arithmetic" k2="-1" k3="1"/>
<feColorMatrix type="matrix" values="0 0 0 0 0 0 0 0 0 0 0 0 0 0 0 0 0 0 0.25 0"/>
<feBlend mode="normal" in2="shape" result="effect1_innerShadow_1275_5285"/>
</filter>
<linearGradient id="paint0_linear_1275_5285" x1="37.6805" y1="11.4328" x2="107.75" y2="79.3795" gradientUnits="userSpaceOnUse">
<stop stop-color="#FFE973"/>
<stop offset="0.71136" stop-color="white"/>
<stop offset="1" stop-color="#FFDD2C"/>
</linearGradient>
<clipPath id="clip0_1275_5285">
<rect width="98" height="98" fill="white" transform="translate(22)"/>
</clipPath>
</defs>
</svg>
