<svg xmlns="http://www.w3.org/2000/svg" width="17" height="17" viewBox="0 0 17 17" fill="none">
  <g clip-path="url(#clip0_1386_7823)">
    <path d="M16.2852 8.79785C16.2852 13.2161 12.7034 16.7979 8.28516 16.7979C3.86693 16.7979 0.285156 13.2161 0.285156 8.79785C0.285156 4.37963 3.86693 0.797852 8.28516 0.797852C12.7034 0.797852 16.2852 4.37963 16.2852 8.79785Z" fill="#FFCC4D"/>
    <path d="M13.1746 5.24217C10.7062 5.24217 9.70709 3.30128 9.66576 3.21861C9.55598 2.99905 9.64487 2.73194 9.86443 2.62217C10.0835 2.51283 10.3498 2.60083 10.46 2.81905C10.4933 2.88394 11.2693 4.35328 13.1746 4.35328C13.4204 4.35328 13.6191 4.55239 13.6191 4.79772C13.6191 5.04306 13.4204 5.24217 13.1746 5.24217ZM3.39687 5.24217C3.15154 5.24217 2.95243 5.04306 2.95243 4.79772C2.95243 4.55239 3.15154 4.35328 3.39687 4.35328C5.65598 4.35328 6.06176 2.96661 6.0782 2.9075C6.14265 2.67283 6.38576 2.53061 6.61998 2.59239C6.85554 2.65417 6.9982 2.8915 6.93909 3.12794C6.91731 3.21417 6.37643 5.24217 3.39687 5.24217ZM2.95287 11.0199C2.81776 11.0199 2.68443 10.9586 2.59687 10.8422C2.44931 10.6462 2.48931 10.3675 2.68576 10.2204C2.74931 10.1728 3.99731 9.25017 5.73287 8.91683C4.63287 8.36528 3.41198 8.35328 3.39643 8.35328C3.15109 8.35283 2.95243 8.15328 2.95287 7.90794C2.95287 7.66305 3.15154 7.46439 3.39687 7.46439C3.49509 7.46439 5.81998 7.48128 7.26665 8.92794C7.39376 9.05505 7.43198 9.24617 7.36309 9.41239C7.2942 9.57861 7.13198 9.68661 6.95243 9.68661C4.9022 9.68661 3.23554 10.9186 3.21909 10.9311C3.13909 10.9911 3.04531 11.0199 2.95287 11.0199ZM13.6186 11.0195C13.5262 11.0195 13.4329 10.9911 13.3529 10.9315C13.336 10.9186 11.6591 9.68661 9.61909 9.68661C9.43954 9.68661 9.27687 9.57861 9.20843 9.41239C9.13954 9.24617 9.17776 9.05505 9.30487 8.92794C10.752 7.48128 13.0764 7.46439 13.1746 7.46439C13.42 7.46439 13.6182 7.66305 13.6186 7.90794C13.6191 8.15328 13.4204 8.35239 13.1755 8.35328C13.1595 8.35328 11.9386 8.36528 10.8386 8.91683C12.5742 9.25017 13.8222 10.1724 13.8853 10.2204C14.0813 10.3675 14.1213 10.6453 13.9746 10.8417C13.8875 10.9577 13.7542 11.0195 13.6186 11.0195ZM11.5986 14.4826C11.5462 14.3684 10.2929 11.6866 8.3942 11.6866C6.50576 11.6866 5.04043 14.3564 4.97909 14.4697C4.92887 14.5626 4.95109 14.6782 5.03198 14.7457C5.07331 14.7804 5.12398 14.7977 5.17465 14.7977C5.22354 14.7977 5.27243 14.7817 5.31287 14.7493C5.32665 14.7386 6.71865 13.6475 8.3942 13.6475C10.0578 13.6475 11.2333 14.7275 11.2449 14.7382C11.3226 14.8102 11.4413 14.8182 11.5266 14.7559C11.6129 14.6937 11.6431 14.5795 11.5986 14.4826Z" fill="#664500"/>
  </g>
  <defs>
    <clipPath id="clip0_1386_7823">
      <rect width="16" height="16" fill="white" transform="translate(0.285156 0.797852)"/>
    </clipPath>
  </defs>
</svg>