<svg xmlns="http://www.w3.org/2000/svg" width="20" height="26" viewBox="0 0 20 26" fill="none">
  <path d="M18.75 0.5C18.4185 0.5 18.1005 0.631696 17.8661 0.866116C17.6317 1.10054 17.5 1.41848 17.5 1.75V8.575L16.25 9.4125V1.75C16.25 1.41848 16.1183 1.10054 15.8839 0.866116C15.6495 0.631696 15.3315 0.5 15 0.5C14.6685 0.5 14.3505 0.631696 14.1161 0.866116C13.8817 1.10054 13.75 1.41848 13.75 1.75V9.4125L12.5 8.575V1.75C12.5 1.41848 12.3683 1.10054 12.1339 0.866116C11.8995 0.631696 11.5815 0.5 11.25 0.5C10.9185 0.5 10.6005 0.631696 10.3661 0.866116C10.1317 1.10054 10 1.41848 10 1.75V9.25C10.0011 9.45588 10.053 9.65832 10.1511 9.83931C10.2492 10.0203 10.3905 10.1743 10.5625 10.2875L13.75 12.425V24.25C13.75 24.5815 13.8817 24.8995 14.1161 25.1339C14.3505 25.3683 14.6685 25.5 15 25.5C15.3315 25.5 15.6495 25.3683 15.8839 25.1339C16.1183 24.8995 16.25 24.5815 16.25 24.25V12.425L19.4375 10.2875C19.6094 10.1743 19.7508 10.0203 19.8489 9.83931C19.947 9.65832 19.9989 9.45588 20 9.25V1.75C20 1.41848 19.8683 1.10054 19.6339 0.866116C19.3995 0.631696 19.0815 0.5 18.75 0.5ZM6.25 0.5C4.5924 0.5 3.00269 1.15848 1.83058 2.33058C0.65848 3.50269 0 5.0924 0 6.75V14.25C0 14.5815 0.131696 14.8995 0.366117 15.1339C0.600537 15.3683 0.918479 15.5 1.25 15.5H5V24.25C5 24.5815 5.1317 24.8995 5.36612 25.1339C5.60054 25.3683 5.91848 25.5 6.25 25.5C6.58152 25.5 6.89946 25.3683 7.13388 25.1339C7.3683 24.8995 7.5 24.5815 7.5 24.25V1.75C7.5 1.41848 7.3683 1.10054 7.13388 0.866116C6.89946 0.631696 6.58152 0.5 6.25 0.5ZM5 13H2.5V6.75C2.49959 5.97418 2.73982 5.21734 3.18757 4.58377C3.63532 3.95021 4.26855 3.47111 5 3.2125V13Z" fill="#242424"/>
</svg>