<svg xmlns="http://www.w3.org/2000/svg" width="40" height="40" viewBox="0 0 40 40" fill="none">
  <path d="M32.1696 20.3314C32.1696 19.4199 32.0942 18.7548 31.9308 18.0651H21.3105V22.1789H27.5444C27.4188 23.2013 26.7401 24.7409 25.2319 25.7755L25.2107 25.9132L28.5687 28.4625L28.8013 28.4853C30.9379 26.5515 32.1696 23.7062 32.1696 20.3314Z" fill="#4285F4"/>
  <path d="M21.3101 31.1707C24.3641 31.1707 26.9281 30.1853 28.8008 28.4856L25.2314 25.7757C24.2762 26.4285 22.9942 26.8843 21.3101 26.8843C18.3188 26.8843 15.78 24.9505 14.875 22.2777L14.7424 22.2887L11.2507 24.9369L11.2051 25.0613C13.0652 28.6826 16.886 31.1707 21.3101 31.1707Z" fill="#34A853"/>
  <path d="M14.8765 22.2777C14.6377 21.5879 14.4995 20.8488 14.4995 20.0852C14.4995 19.3215 14.6377 18.5825 14.8639 17.8928L14.8576 17.7459L11.3222 15.0552L11.2065 15.1091C10.4399 16.6118 10 18.2993 10 20.0852C10 21.8712 10.4399 23.5586 11.2065 25.0613L14.8765 22.2777Z" fill="#FBBC05"/>
  <path d="M21.3101 13.2863C23.4342 13.2863 24.8669 14.1854 25.6839 14.9368L28.8763 11.8822C26.9157 10.0962 24.3642 9 21.3101 9C16.886 9 13.0652 11.488 11.2051 15.1092L14.8625 17.8929C15.7801 15.2201 18.3189 13.2863 21.3101 13.2863Z" fill="#EB4335"/>
</svg>