<svg xmlns="http://www.w3.org/2000/svg" width="30" height="30" viewBox="0 0 30 30" fill="none">
  <path d="M6.25 22.4999H11.55C11.7145 22.5009 11.8776 22.4693 12.0299 22.4071C12.1822 22.3449 12.3207 22.2533 12.4375 22.1374L21.0875 13.4749L24.6375 9.99992C24.7547 9.88372 24.8477 9.74547 24.9111 9.59314C24.9746 9.44082 25.0072 9.27744 25.0072 9.11242C25.0072 8.94741 24.9746 8.78403 24.9111 8.6317C24.8477 8.47938 24.7547 8.34113 24.6375 8.22492L19.3375 2.86242C19.2213 2.74526 19.083 2.65227 18.9307 2.58881C18.7784 2.52535 18.615 2.49268 18.45 2.49268C18.285 2.49268 18.1216 2.52535 17.9693 2.58881C17.817 2.65227 17.6787 2.74526 17.5625 2.86242L14.0375 6.39992L5.3625 15.0624C5.24665 15.1792 5.15499 15.3177 5.09279 15.47C5.03058 15.6223 4.99905 15.7854 5 15.9499V21.2499C5 21.5814 5.1317 21.8994 5.36612 22.1338C5.60054 22.3682 5.91848 22.4999 6.25 22.4999ZM18.45 5.51242L21.9875 9.04992L20.2125 10.8249L16.675 7.28742L18.45 5.51242ZM7.5 16.4624L14.9125 9.04992L18.45 12.5874L11.0375 19.9999H7.5V16.4624ZM26.25 24.9999H3.75C3.41848 24.9999 3.10054 25.1316 2.86612 25.366C2.6317 25.6005 2.5 25.9184 2.5 26.2499C2.5 26.5814 2.6317 26.8994 2.86612 27.1338C3.10054 27.3682 3.41848 27.4999 3.75 27.4999H26.25C26.5815 27.4999 26.8995 27.3682 27.1339 27.1338C27.3683 26.8994 27.5 26.5814 27.5 26.2499C27.5 25.9184 27.3683 25.6005 27.1339 25.366C26.8995 25.1316 26.5815 24.9999 26.25 24.9999Z" fill="#242424"/>
</svg>