<svg xmlns="http://www.w3.org/2000/svg" width="43" height="22" viewBox="0 0 43 22" fill="none">
  <path d="M14.328 12.5702L13.5862 9.94422C12.9014 10.1677 12.0455 10.3912 11.0754 10.5029C11.1895 10.1677 11.3036 9.83248 11.3607 9.49725C11.5319 8.77091 11.589 7.9887 11.646 7.03887V4.46875H8.33631V10.7264C7.7086 10.7823 7.02384 10.7823 6.22494 10.7823V4.46875H2.91521V7.03887L3.20054 10.8382C2.68696 10.8382 2.11632 10.8382 1.54567 10.8382H0.917969L1.14623 13.6318H4.62714C6.85264 13.5759 8.79282 13.52 10.3336 13.3524C11.9314 13.2966 13.2438 13.0172 14.328 12.5702Z" fill="#030303"/>
  <path d="M13.2432 0.893066H1.25977V3.74255H13.2432V0.893066Z" fill="#030303"/>
  <path d="M8.45119 14.8052L5.02734 15.5315V21.9009H20.5488V18.9956H8.45119V14.8052Z" fill="#030303"/>
  <path d="M17.1236 15.1404H20.5474V0.0549316L17.1236 0.78127V2.79267H14.1562V5.47453H17.1236V7.70942H14.1562V10.3354H17.1236V15.1404Z" fill="#030303"/>
  <path d="M39.5508 10.0561V12.682H42.9746V0.0549316L39.5508 0.78127V10.0561Z" fill="#030303"/>
  <path d="M30.648 8.10041C30.705 8.15628 30.705 8.26802 30.7621 8.3239C31.3327 9.38547 32.1316 10.2236 33.0447 10.7823C33.8436 11.2851 34.8136 11.5086 35.8408 11.5645C36.868 11.5645 37.7239 11.341 38.3516 10.8381L37.3815 8.15628C36.9821 8.43564 36.5256 8.49151 36.012 8.49151C35.4414 8.43564 34.9848 8.26802 34.4713 7.98866C33.8436 7.59756 33.33 6.98296 33.0447 6.14488C32.7023 5.3068 32.5311 3.96587 32.5311 2.23383V1.00464L29.1072 1.73098V2.17795C29.1072 3.40714 28.936 4.52459 28.5366 5.41854C28.1942 6.36837 27.5665 7.20645 26.7105 7.93279C25.8546 8.65913 24.7704 9.3296 23.3438 9.88832L24.9415 12.5143C26.254 12.0673 27.3953 11.4527 28.4795 10.5588C29.3355 9.83245 30.0773 9.05024 30.648 8.10041Z" fill="#030303"/>
  <path d="M27.7949 16.8166H39.5501V22.0127L42.974 21.3422V14.0229H27.7949V16.8166Z" fill="#030303"/>
</svg>