<svg xmlns="http://www.w3.org/2000/svg" width="12" height="12" viewBox="0 0 12 12" fill="none">
  <path d="M10.65 6.95998C10.5095 7.12865 10.3337 7.26444 10.135 7.35774C9.93629 7.45105 9.71952 7.4996 9.5 7.49998L7.22 7.49998L7.5 8.21498C7.61647 8.52804 7.65525 8.86467 7.61303 9.19602C7.57081 9.52736 7.44884 9.84351 7.25759 10.1174C7.06634 10.3912 6.81151 10.6146 6.51497 10.7683C6.21843 10.922 5.88902 11.0015 5.555 11C5.45882 10.9998 5.36474 10.9718 5.28404 10.9195C5.20333 10.8672 5.13943 10.7927 5.1 10.705L3.675 7.49998L2.5 7.49998C2.10217 7.49998 1.72064 7.34194 1.43934 7.06064C1.15803 6.77933 1 6.3978 1 5.99998L0.999999 2.49998C0.999999 2.10215 1.15803 1.72062 1.43934 1.43932C1.72064 1.15801 2.10217 0.999978 2.5 0.999978L8.865 0.999977C9.2159 1.00009 9.55566 1.12323 9.82516 1.34797C10.0947 1.5727 10.2768 1.8848 10.34 2.22998L10.975 5.72998C11.0143 5.94629 11.0055 6.16859 10.9494 6.38114C10.8932 6.59369 10.791 6.7913 10.65 6.95998ZM3.5 1.99998L2.5 1.99998C2.36739 1.99998 2.24021 2.05266 2.14645 2.14642C2.05268 2.24019 2 2.36737 2 2.49998L2 5.99998C2 6.13259 2.05268 6.25976 2.14645 6.35353C2.24021 6.4473 2.36739 6.49998 2.5 6.49998L3.5 6.49998L3.5 1.99998ZM10 5.90998L9.365 2.40998C9.3437 2.2935 9.28176 2.18836 9.19019 2.11328C9.09863 2.03819 8.98339 1.99805 8.865 1.99998L4.5 1.99998L4.5 6.89498L5.86 9.95498C5.99999 9.91416 6.13 9.84477 6.24183 9.75119C6.35365 9.6576 6.44486 9.54184 6.5097 9.41123C6.57454 9.28062 6.61159 9.13798 6.61853 8.99233C6.62546 8.84667 6.60213 8.70116 6.55 8.56498L6.285 7.84998C6.22853 7.69885 6.20947 7.5363 6.22944 7.37621C6.2494 7.21612 6.30781 7.06324 6.39967 6.93061C6.49152 6.79798 6.61411 6.68954 6.75695 6.61456C6.8998 6.53957 7.05867 6.50026 7.22 6.49998L9.5 6.49998C9.57345 6.5001 9.64603 6.48403 9.71258 6.45292C9.77912 6.42181 9.83799 6.37642 9.885 6.31998C9.93317 6.26431 9.96845 6.1987 9.98833 6.12783C10.0082 6.05696 10.0122 5.98257 10 5.90998Z" fill="#242424"/>
</svg>