<svg xmlns="http://www.w3.org/2000/svg" width="50" height="32" viewBox="0 0 50 32" fill="none">
  <path d="M27.7452 5.12974V0.651367L0 6.26969V31.5928L21.99 27.1959V31.5928L40.544 27.8473L45.7838 31.5928V26.7888L49.6493 26.056V0.651367L27.7452 5.12974Z" fill="url(#paint0_linear_1281_514)"/>
  <path d="M6.44336 19.8677L11.0819 12.458L15.7204 19.8677H6.44336Z" fill="white"/>
  <path d="M21.7325 20.0305C24.0096 20.0305 25.8556 18.2807 25.8556 16.1221C25.8556 13.9636 24.0096 12.2137 21.7325 12.2137C19.4554 12.2137 17.6094 13.9636 17.6094 16.1221C17.6094 18.2807 19.4554 20.0305 21.7325 20.0305Z" fill="white"/>
  <path d="M43.2073 12.3766H35.3047V19.8677H43.2073V12.3766Z" fill="white"/>
  <path d="M30.0746 15.9168L26.8555 18.9683L27.9488 20.0046L31.1679 16.9531L30.0746 15.9168Z" fill="white"/>
  <path d="M32.6254 12.2616L29.4062 15.3131L30.4995 16.3495L33.7187 13.298L32.6254 12.2616Z" fill="white"/>
  <defs>
    <linearGradient id="paint0_linear_1281_514" x1="46.2773" y1="37.9279" x2="22.9607" y2="11.5478" gradientUnits="userSpaceOnUse">
      <stop stop-color="#FFB334"/>
      <stop offset="0.9825" stop-color="#F02826"/>
    </linearGradient>
  </defs>
</svg>