<svg xmlns="http://www.w3.org/2000/svg" width="24" height="24" viewBox="0 0 24 24" fill="none">
  <path d="M14.0621 22.5C14.4555 22.4982 14.8324 22.342 15.1116 22.065L15.1131 22.0636L19.7423 17.4343C19.7425 17.4341 19.7428 17.4338 19.7431 17.4336C19.8846 17.2924 19.9966 17.1244 20.0723 16.9393L20.073 16.9375C20.219 16.5767 20.219 16.1733 20.073 15.8125L20.0697 15.8041L20.066 15.7959C19.9888 15.6233 19.8831 15.4648 19.7535 15.3272L19.7536 15.3271L19.7446 15.318L15.1146 10.648L15.1002 10.6335L15.0848 10.6202C14.7978 10.3745 14.4287 10.2461 14.0512 10.2607C13.6737 10.2752 13.3156 10.4317 13.0484 10.6989C12.7813 10.966 12.6248 11.3241 12.6102 11.7016C12.5956 12.0792 12.724 12.4483 12.9698 12.7352L12.9823 12.7499L12.996 12.7636L15.0624 14.83H9.26953C8.60649 14.83 7.97061 14.5666 7.50176 14.0978C7.03292 13.6289 6.76953 12.993 6.76953 12.33V3C6.76953 2.60218 6.6115 2.22064 6.33019 1.93934C6.04889 1.65804 5.66736 1.5 5.26953 1.5C4.87171 1.5 4.49018 1.65804 4.20887 1.93934C3.92757 2.22064 3.76953 2.60218 3.76953 3V12.37C3.76953 13.8287 4.34899 15.2276 5.38044 16.2591C6.41189 17.2905 7.81084 17.87 9.26953 17.87H15.0624L12.9974 19.935C12.9972 19.9353 12.9969 19.9355 12.9967 19.9358C12.8564 20.0751 12.7451 20.2407 12.6691 20.4231C12.5929 20.6059 12.5537 20.802 12.5537 21C12.5537 21.198 12.5929 21.3941 12.6691 21.5769C12.7452 21.7597 12.8568 21.9256 12.9974 22.065C13.1376 22.204 13.3038 22.314 13.4866 22.3886C13.6692 22.4633 13.8648 22.5011 14.0621 22.5ZM14.0621 22.5C14.062 22.5 14.0618 22.5 14.0616 22.5L14.0595 22L14.0624 22.5C14.0623 22.5 14.0622 22.5 14.0621 22.5Z" fill="#D9D9D9" stroke="white"/>
</svg>