<svg xmlns="http://www.w3.org/2000/svg" width="17" height="16" viewBox="0 0 17 16" fill="none">
<path d="M14.5 7.99968L6.5 7.99967M14.5 3.99968L6.5 3.99967M14.5 11.9997L6.5 11.9997M3.83333 7.99967C3.83333 8.36786 3.53486 8.66634 3.16667 8.66634C2.79848 8.66634 2.5 8.36786 2.5 7.99967C2.5 7.63148 2.79848 7.33301 3.16667 7.33301C3.53486 7.33301 3.83333 7.63148 3.83333 7.99967ZM3.83333 3.99967C3.83333 4.36786 3.53486 4.66634 3.16667 4.66634C2.79848 4.66634 2.5 4.36786 2.5 3.99967C2.5 3.63148 2.79848 3.33301 3.16667 3.33301C3.53486 3.33301 3.83333 3.63148 3.83333 3.99967ZM3.83333 11.9997C3.83333 12.3679 3.53486 12.6663 3.16667 12.6663C2.79848 12.6663 2.5 12.3679 2.5 11.9997C2.5 11.6315 2.79848 11.333 3.16667 11.333C3.53486 11.333 3.83333 11.6315 3.83333 11.9997Z" stroke="#667085" stroke-width="2" stroke-linecap="round" stroke-linejoin="round"/>
</svg>