<svg xmlns="http://www.w3.org/2000/svg" width="14" height="14" viewBox="0 0 14 14" fill="none">
  <path d="M12.057 7.36816L7.89036 11.5348C7.81752 11.6076 7.72473 11.6572 7.62371 11.6773C7.5227 11.6974 7.41799 11.6871 7.32284 11.6477C7.22768 11.6083 7.14634 11.5415 7.08911 11.4559C7.03188 11.3703 7.00132 11.2696 7.0013 11.1666L7.0013 9.32024C5.57854 9.18858 4.25611 8.53073 3.29281 7.47543C2.32951 6.42014 1.79467 5.04335 1.79297 3.61451L1.79297 2.83326C1.79305 2.72515 1.82678 2.61974 1.88947 2.53165C1.95216 2.44357 2.0407 2.37718 2.14283 2.34169C2.24495 2.3062 2.35559 2.30336 2.45939 2.33359C2.5632 2.36381 2.65502 2.42558 2.72214 2.51034C3.2324 3.11714 3.85847 3.61616 4.56377 3.97825C5.26908 4.34034 6.03948 4.55823 6.82995 4.6192C6.85599 4.62232 6.92109 4.62753 7.0013 4.63274L7.0013 2.83326C7.00133 2.73027 7.03188 2.62959 7.08911 2.54396C7.14635 2.45833 7.22768 2.39159 7.32284 2.35218C7.41799 2.31277 7.5227 2.30245 7.62372 2.32254C7.72473 2.34263 7.81753 2.39222 7.89037 2.46503L12.057 6.6317C12.1547 6.72937 12.2095 6.86182 12.2095 6.99993C12.2095 7.13804 12.1547 7.27049 12.057 7.36816ZM8.04297 4.09055L8.04297 5.17701C8.04297 5.31515 7.9881 5.44762 7.89042 5.5453C7.79275 5.64297 7.66027 5.69785 7.52214 5.69785C7.38932 5.69785 6.84714 5.6718 6.70859 5.65357C5.30488 5.52424 3.96871 4.99093 2.86172 4.11816C2.98737 5.26689 3.53231 6.32891 4.39222 7.10089C5.25212 7.87286 6.36655 8.30053 7.52214 8.30201C7.66027 8.30201 7.79275 8.35689 7.89042 8.45456C7.9881 8.55224 8.04297 8.68471 8.04297 8.82285L8.04297 9.9093L10.9523 6.99993L8.04297 4.09055Z" fill="#667085"/>
</svg>