<svg xmlns="http://www.w3.org/2000/svg" width="17" height="17" viewBox="0 0 17 17" fill="none">
  <g clip-path="url(#clip0_1382_7746)">
    <path d="M16.2852 8.79785C16.2852 13.2161 12.7034 16.7979 8.28516 16.7979C3.86693 16.7979 0.285156 13.2161 0.285156 8.79785C0.285156 4.37963 3.86693 0.797852 8.28516 0.797852C12.7034 0.797852 16.2852 4.37963 16.2852 8.79785Z" fill="#FFCC4D"/>
    <path fill-rule="evenodd" clip-rule="evenodd" d="M0.835526 5.6945C0.942193 5.80072 1.47464 6.11983 1.58086 6.43894C1.68753 6.75761 1.90086 8.56517 2.53997 9.09717C3.19908 9.64472 5.6853 9.44116 6.1613 9.20383C7.22664 8.67272 7.3573 7.19005 7.54575 6.43894C7.65197 6.01361 8.29108 6.01361 8.29108 6.01361C8.29108 6.01361 8.93019 6.01361 9.03686 6.4385C9.2253 7.19005 9.35686 8.67272 10.4213 9.20339C10.8977 9.44116 13.384 9.64516 14.044 9.09761C14.6822 8.56561 14.8951 6.75805 15.0017 6.43894C15.1075 6.12028 15.6409 5.80116 15.7471 5.69494C15.8542 5.58872 15.8542 5.16339 15.7471 5.05672C15.5342 4.84428 13.0209 4.65494 10.3146 4.9505C9.77464 5.00961 9.5693 5.16294 8.29064 5.16294C7.01286 5.16294 6.80664 5.00916 6.26708 4.9505C3.56264 4.6545 1.04886 4.84383 0.835526 5.05628C0.729304 5.1625 0.729304 5.58828 0.835526 5.6945Z" fill="#292F33"/>
    <path d="M12.4336 11.2993C12.3545 11.2278 12.2363 11.2233 12.1514 11.2865C12.1341 11.2993 10.4083 12.5753 8.28476 12.5753C6.16653 12.5753 4.43498 11.2993 4.41809 11.2865C4.3332 11.2233 4.21498 11.2287 4.13587 11.2993C4.0572 11.3705 4.03942 11.4878 4.09409 11.5785C4.15142 11.674 5.52387 13.9087 8.28476 13.9087C11.0456 13.9087 12.4185 11.674 12.4754 11.5785C12.5301 11.4873 12.5128 11.3705 12.4336 11.2993Z" fill="#664500"/>
  </g>
  <defs>
    <clipPath id="clip0_1382_7746">
      <rect width="16" height="16" fill="white" transform="translate(0.285156 0.797852)"/>
    </clipPath>
  </defs>
</svg>