<svg xmlns="http://www.w3.org/2000/svg" width="64" height="32" viewBox="0 0 64 32" fill="none">
  <path d="M20.9921 18.2841L19.8793 14.4644C18.8522 14.7895 17.5682 15.1146 16.1131 15.2771C16.2843 14.7895 16.4555 14.3019 16.5411 13.8143C16.7979 12.7578 16.8835 11.62 16.9691 10.2385V6.50012H12.0045V15.6022C11.0629 15.6835 10.0358 15.6835 8.83741 15.6835V6.50012H3.87282V10.2385L4.3008 15.7647C3.53044 15.7647 2.67447 15.7647 1.81851 15.7647H0.876953L1.21934 19.8282H6.44071C9.77896 19.7469 12.6892 19.6656 15.0003 19.4218C17.397 19.3406 19.3657 18.9342 20.9921 18.2841Z" fill="#030303"/>
  <path d="M19.3658 1.29895H1.39062V5.44365H19.3658V1.29895Z" fill="#030303"/>
  <path d="M12.1748 21.5349L7.03906 22.5914V31.856H30.3212V27.6301H12.1748V21.5349Z" fill="#030303"/>
  <path d="M25.1854 22.0225H30.3212V0.0799561L25.1854 1.13645V4.06212H20.7344V7.96302H25.1854V11.2138H20.7344V15.0334H25.1854V22.0225Z" fill="#030303"/>
  <path d="M58.8242 14.627V18.4467H63.96V0.0799561L58.8242 1.13645V14.627Z" fill="#030303"/>
  <path d="M45.4719 11.7827C45.5575 11.8639 45.5575 12.0265 45.6431 12.1077C46.4991 13.6518 47.6974 14.8709 49.067 15.6836C50.2653 16.415 51.7205 16.7401 53.2612 16.8213C54.8019 16.8213 56.0859 16.4962 57.0274 15.7648L55.5723 11.8639C54.9731 12.2703 54.2884 12.3515 53.518 12.3515C52.662 12.2703 51.9773 12.0265 51.2069 11.6201C50.2653 11.0512 49.495 10.1573 49.067 8.93826C48.5534 7.71923 48.2966 5.76879 48.2966 3.24946V1.46155L43.1608 2.51804V3.16819C43.1608 4.9561 42.9041 6.58147 42.3049 7.88177C41.7913 9.26334 40.8497 10.4824 39.5658 11.5389C38.2819 12.5954 36.6555 13.5706 34.5156 14.3833L36.9123 18.2029C38.881 17.5527 40.593 16.6588 42.2193 15.3585C43.5032 14.302 44.616 13.1642 45.4719 11.7827Z" fill="#030303"/>
  <path d="M41.1914 24.4605H58.8242V32.0185L63.96 31.0433V20.3971H41.1914V24.4605Z" fill="#030303"/>
</svg>