<svg xmlns="http://www.w3.org/2000/svg" width="24" height="24" viewBox="0 0 24 24" fill="none">
  <rect width="24" height="24" rx="12" transform="matrix(-1 0 0 1 24 0)" fill="white"/>
  <path d="M3.08 12.62C3.12759 12.4972 3.19896 12.3851 3.29 12.29L6.29 9.29C6.4783 9.1017 6.7337 8.99591 7 8.99591C7.2663 8.99591 7.5217 9.1017 7.71 9.29C7.8983 9.4783 8.00409 9.7337 8.00409 10C8.00409 10.2663 7.8983 10.5217 7.71 10.71L6.41 12H16C16.2652 12 16.5196 11.8946 16.7071 11.7071C16.8946 11.5196 17 11.2652 17 11V7C17 6.73478 17.1054 6.48043 17.2929 6.29289C17.4804 6.10536 17.7348 6 18 6C18.2652 6 18.5196 6.10536 18.7071 6.29289C18.8946 6.48043 19 6.73478 19 7V11C19 11.7956 18.6839 12.5587 18.1213 13.1213C17.5587 13.6839 16.7956 14 16 14H6.41L7.71 15.29C7.80373 15.383 7.87812 15.4936 7.92889 15.6154C7.97966 15.7373 8.0058 15.868 8.0058 16C8.0058 16.132 7.97966 16.2627 7.92889 16.3846C7.87812 16.5064 7.80373 16.617 7.71 16.71C7.61704 16.8037 7.50644 16.8781 7.38458 16.9289C7.26272 16.9797 7.13201 17.0058 7 17.0058C6.86799 17.0058 6.73728 16.9797 6.61542 16.9289C6.49356 16.8781 6.38296 16.8037 6.29 16.71L3.29 13.71C3.19896 13.6149 3.12759 13.5028 3.08 13.38C2.97998 13.1365 2.97998 12.8635 3.08 12.62Z" fill="#667085"/>
</svg>