<svg xmlns="http://www.w3.org/2000/svg" width="20" height="20" viewBox="0 0 20 20" fill="none">
  <path d="M1.92383 6.52862C1.92383 5.32342 2.90084 4.34642 4.10603 4.34642C4.73223 4.34642 5.28816 3.94572 5.48618 3.35166L5.55844 3.13488C5.59252 3.03265 5.60956 2.98153 5.62779 2.93619C5.86056 2.35717 6.40603 1.96402 7.02894 1.92629C7.07772 1.92334 7.1316 1.92334 7.23936 1.92334H12.7621C12.8699 1.92334 12.9238 1.92334 12.9726 1.92629C13.5955 1.96402 14.1409 2.35717 14.3737 2.93619C14.3919 2.98153 14.409 3.03265 14.4431 3.13488L14.5153 3.35166C14.7133 3.94572 15.2693 4.34642 15.8955 4.34642C17.1007 4.34642 18.0777 5.32342 18.0777 6.52862V13.3926C18.0777 14.7496 18.0777 15.4281 17.8136 15.9465C17.5813 16.4024 17.2106 16.7731 16.7547 17.0054C16.2363 17.2695 15.5578 17.2695 14.2008 17.2695H5.80075C4.4437 17.2695 3.76518 17.2695 3.24685 17.0054C2.79092 16.7731 2.42024 16.4024 2.18793 15.9465C1.92383 15.4281 1.92383 14.7496 1.92383 13.3926V6.52862Z" stroke="#667085" stroke-width="1.61538" stroke-linecap="round" stroke-linejoin="round"/>
  <path d="M10.0008 13.6349C12.0081 13.6349 13.6354 12.0076 13.6354 10.0003C13.6354 7.99292 12.0081 6.36565 10.0008 6.36565C7.99341 6.36565 6.36614 7.99292 6.36614 10.0003C6.36614 12.0076 7.99341 13.6349 10.0008 13.6349Z" stroke="#667085" stroke-width="1.61538" stroke-linecap="round" stroke-linejoin="round"/>
</svg>