<svg xmlns="http://www.w3.org/2000/svg" width="16" height="16" viewBox="0 0 16 16" fill="none">
  <path d="M14.2007 6.72001C14.0133 6.49511 13.7789 6.31406 13.514 6.18966C13.249 6.06525 12.96 6.00051 12.6673 6.00001H9.62732L10.0007 5.04668C10.1559 4.62926 10.2077 4.18041 10.1514 3.73862C10.0951 3.29683 9.93244 2.87529 9.67744 2.51016C9.42244 2.14503 9.08267 1.84721 8.68728 1.64224C8.29189 1.43727 7.85267 1.33127 7.40732 1.33334C7.27908 1.33361 7.15364 1.37086 7.04603 1.44062C6.93843 1.51039 6.85323 1.60971 6.80065 1.72668L4.90065 6.00001H3.33398C2.80355 6.00001 2.29484 6.21072 1.91977 6.5858C1.5447 6.96087 1.33398 7.46958 1.33398 8.00001V12.6667C1.33398 13.1971 1.5447 13.7058 1.91977 14.0809C2.29484 14.456 2.80355 14.6667 3.33398 14.6667H11.8207C12.2885 14.6665 12.7415 14.5023 13.1009 14.2027C13.4602 13.903 13.7031 13.4869 13.7873 13.0267L14.634 8.36001C14.6864 8.0716 14.6747 7.7752 14.5998 7.49179C14.5249 7.20839 14.3886 6.94491 14.2007 6.72001ZM4.66732 13.3333H3.33398C3.15717 13.3333 2.9876 13.2631 2.86258 13.1381C2.73756 13.0131 2.66732 12.8435 2.66732 12.6667V8.00001C2.66732 7.8232 2.73756 7.65363 2.86258 7.52861C2.9876 7.40358 3.15717 7.33334 3.33398 7.33334H4.66732V13.3333ZM13.334 8.12001L12.4873 12.7867C12.4589 12.942 12.3763 13.0822 12.2542 13.1823C12.1322 13.2824 11.9785 13.3359 11.8207 13.3333H6.00065V6.80668L7.81398 2.72668C8.00064 2.78109 8.17399 2.87361 8.32309 2.9984C8.47219 3.12318 8.5938 3.27752 8.68025 3.45167C8.7667 3.62582 8.81611 3.816 8.82536 4.01021C8.8346 4.20442 8.80349 4.39843 8.73398 4.58001L8.38065 5.53334C8.30536 5.73485 8.27994 5.95157 8.30657 6.16503C8.33319 6.37849 8.41106 6.58233 8.53354 6.75917C8.65602 6.93601 8.81946 7.08059 9.00992 7.18057C9.20038 7.28055 9.41221 7.33297 9.62732 7.33334H12.6673C12.7653 7.33318 12.862 7.35461 12.9508 7.39609C13.0395 7.43757 13.118 7.49809 13.1807 7.57334C13.2449 7.64756 13.2919 7.73504 13.3184 7.82954C13.3449 7.92404 13.3502 8.02322 13.334 8.12001Z" fill="#F02826"/>
</svg>