<svg xmlns="http://www.w3.org/2000/svg" width="34" height="22" viewBox="0 0 34 22" fill="none">

  <path d="M18.4968 3.52663V0.447754L0 4.31035V21.72L14.66 18.6971V21.72L27.0294 19.145L30.5226 21.72V18.4172L33.0995 17.9134V0.447754L18.4968 3.52663Z" fill="url(#paint0_linear_1272_2165)"/>
  <path d="M4.29492 13.6591L7.38726 8.56494L10.4796 13.6591H4.29492Z" fill="white"/>
  <path d="M14.489 13.771C16.0071 13.771 17.2377 12.568 17.2377 11.084C17.2377 9.59999 16.0071 8.39697 14.489 8.39697C12.9709 8.39697 11.7402 9.59999 11.7402 11.084C11.7402 12.568 12.9709 13.771 14.489 13.771Z" fill="white"/>
  <path d="M28.8055 8.50903H23.5371V13.6592H28.8055V8.50903Z" fill="white"/>
  <path d="M20.0504 10.9429L17.9043 13.0408L18.6332 13.7533L20.7793 11.6554L20.0504 10.9429Z" fill="white"/>
  <path d="M21.7516 8.42992L19.6055 10.5278L20.3343 11.2403L22.4804 9.14242L21.7516 8.42992Z" fill="white"/>
  <defs>
    <linearGradient id="paint0_linear_1272_2165" x1="30.8515" y1="26.0753" x2="14.7682" y2="8.4303" gradientUnits="userSpaceOnUse">
      <stop stop-color="#FFB334"/>
      <stop offset="0.9825" stop-color="#F02826"/>
    </linearGradient>
  </defs>
</svg>