<svg xmlns="http://www.w3.org/2000/svg" width="20" height="20" viewBox="0 0 20 20" fill="none">
  <path d="M8.33282 10.8333H11.6662C11.8872 10.8333 12.0991 10.7455 12.2554 10.5893C12.4117 10.433 12.4995 10.221 12.4995 10C12.4995 9.77899 12.4117 9.56702 12.2554 9.41074C12.0991 9.25446 11.8872 9.16667 11.6662 9.16667H8.33282C8.11181 9.16667 7.89985 9.25446 7.74357 9.41074C7.58729 9.56702 7.49949 9.77899 7.49949 10C7.49949 10.221 7.58729 10.433 7.74357 10.5893C7.89985 10.7455 8.11181 10.8333 8.33282 10.8333ZM15.8328 2.5H4.16616C3.57987 2.50455 3.01384 2.71501 2.567 3.0946C2.12016 3.47418 1.82094 3.99874 1.72166 4.57658C1.62237 5.15441 1.72934 5.74876 2.02385 6.25572C2.31836 6.76269 2.78168 7.15002 3.33282 7.35V15C3.33282 15.663 3.59622 16.2989 4.06506 16.7678C4.5339 17.2366 5.16978 17.5 5.83282 17.5H14.1662C14.8292 17.5 15.4651 17.2366 15.9339 16.7678C16.4028 16.2989 16.6662 15.663 16.6662 15V7.35C17.2173 7.15002 17.6806 6.76269 17.9751 6.25572C18.2696 5.74876 18.3766 5.15441 18.2773 4.57658C18.178 3.99874 17.8788 3.47418 17.432 3.0946C16.9851 2.71501 16.4191 2.50455 15.8328 2.5ZM14.9995 15C14.9995 15.221 14.9117 15.433 14.7554 15.5893C14.5991 15.7455 14.3872 15.8333 14.1662 15.8333H5.83282C5.61181 15.8333 5.39985 15.7455 5.24357 15.5893C5.08729 15.433 4.99949 15.221 4.99949 15V7.5H14.9995V15ZM15.8328 5.83333H4.16616C3.94514 5.83333 3.73318 5.74554 3.5769 5.58926C3.42062 5.43298 3.33282 5.22101 3.33282 5C3.33282 4.77899 3.42062 4.56702 3.5769 4.41074C3.73318 4.25446 3.94514 4.16667 4.16616 4.16667H15.8328C16.0538 4.16667 16.2658 4.25446 16.4221 4.41074C16.5784 4.56702 16.6662 4.77899 16.6662 5C16.6662 5.22101 16.5784 5.43298 16.4221 5.58926C16.2658 5.74554 16.0538 5.83333 15.8328 5.83333Z" fill="{color}"/>
</svg>