<svg xmlns="http://www.w3.org/2000/svg" width="20" height="20" viewBox="0 0 20 20" fill="none">
  <path d="M9.99915 1.6665C8.38288 1.66957 6.80238 2.1426 5.45017 3.02795C4.09796 3.91331 3.03239 5.17279 2.38326 6.65298C1.73413 8.13317 1.52946 9.77019 1.79417 11.3646C2.05888 12.9591 2.78154 14.4421 3.87415 15.6332C4.6545 16.479 5.6016 17.1541 6.65576 17.6158C7.70992 18.0776 8.8483 18.3159 9.99915 18.3159C11.15 18.3159 12.2884 18.0776 13.3425 17.6158C14.3967 17.1541 15.3438 16.479 16.1241 15.6332C17.2167 14.4421 17.9394 12.9591 18.2041 11.3646C18.4688 9.77019 18.2642 8.13317 17.615 6.65298C16.9659 5.17279 15.9003 3.91331 14.5481 3.02795C13.1959 2.1426 11.6154 1.66957 9.99915 1.6665ZM9.99915 16.6665C8.27287 16.6639 6.61491 15.9917 5.37415 14.7915C5.75085 13.8745 6.39167 13.0901 7.21519 12.5381C8.03871 11.9861 9.00774 11.6913 9.99915 11.6913C10.9906 11.6913 11.9596 11.9861 12.7831 12.5381C13.6066 13.0901 14.2474 13.8745 14.6241 14.7915C13.3834 15.9917 11.7254 16.6639 9.99915 16.6665ZM8.33248 8.33317C8.33248 8.00354 8.43023 7.6813 8.61336 7.40722C8.7965 7.13314 9.0568 6.91952 9.36134 6.79337C9.66588 6.66723 10.001 6.63422 10.3243 6.69853C10.6476 6.76284 10.9446 6.92157 11.1777 7.15466C11.4107 7.38775 11.5695 7.68472 11.6338 8.00802C11.6981 8.33132 11.6651 8.66643 11.5389 8.97098C11.4128 9.27552 11.1992 9.53582 10.9251 9.71895C10.651 9.90209 10.3288 9.99984 9.99915 9.99984C9.55712 9.99984 9.1332 9.82424 8.82063 9.51168C8.50807 9.19912 8.33248 8.7752 8.33248 8.33317ZM15.7575 13.3332C15.0129 12.0596 13.867 11.069 12.4991 10.5165C12.9235 10.0354 13.1999 9.44205 13.2954 8.8077C13.3908 8.17335 13.3012 7.52493 13.0373 6.94025C12.7733 6.35557 12.3463 5.85947 11.8074 5.51148C11.2685 5.16348 10.6406 4.97838 9.99915 4.97838C9.35765 4.97838 8.72979 5.16348 8.19089 5.51148C7.65199 5.85947 7.22495 6.35557 6.96102 6.94025C6.69709 7.52493 6.60747 8.17335 6.70292 8.8077C6.79837 9.44205 7.07484 10.0354 7.49915 10.5165C6.13131 11.069 4.98537 12.0596 4.24081 13.3332C3.64743 12.3224 3.33391 11.1719 3.33248 9.99984C3.33248 8.23173 4.03486 6.53604 5.2851 5.28579C6.53534 4.03555 8.23104 3.33317 9.99915 3.33317C11.7673 3.33317 13.4629 4.03555 14.7132 5.28579C15.9634 6.53604 16.6658 8.23173 16.6658 9.99984C16.6644 11.1719 16.3509 12.3224 15.7575 13.3332Z" fill="#242424"/>
</svg>