<svg xmlns="http://www.w3.org/2000/svg" width="40" height="40" viewBox="0 0 40 40" fill="none">
  <path d="M19.9664 10.3999C14.1563 10.3999 9.4707 14.1483 9.4707 18.6989C9.4707 21.6527 11.4199 24.2391 14.3437 25.716L13.3541 29.412C13.3354 29.4674 13.3326 29.5269 13.3458 29.5838C13.3591 29.6407 13.3879 29.6929 13.4291 29.7344C13.4891 29.7873 13.5664 29.8166 13.6465 29.8168C13.7129 29.8115 13.7759 29.7853 13.8264 29.7419L18.0846 26.8706C18.7132 26.9573 19.3468 27.0024 19.9814 27.0055C25.784 27.0055 30.477 23.2571 30.477 18.6989C30.477 14.1408 25.769 10.3999 19.9664 10.3999Z" fill="#392020"/>
</svg>